<svg width="24" height="24" viewBox="0 0 24 24" fill="none" xmlns="http://www.w3.org/2000/svg">
<g clip-path="url(#clip0)">
<path d="M21.4 1.7002H2.6C1.1 1.7002 0 2.9002 0 4.3002V10.3002C0 11.8002 1.1 12.9002 2.6 12.9002H21.4C22.9 12.9002 24 11.8002 24 10.3002V4.3002C24 2.9002 22.9 1.7002 21.4 1.7002ZM19.7 11.1002H4.3C3.8 11.1002 3.4 10.8002 3.4 10.2002C3.4 9.6002 3.7 9.3002 4.3 9.3002H19.7C20.2 9.3002 20.6 9.6002 20.6 10.2002C20.6 10.8002 20.2 11.1002 19.7 11.1002ZM20.5 4.6002C20.4 4.7002 20.4 4.8002 20.3 4.9002C20 5.2002 19.4 5.2002 19.1 4.9002C19 4.8002 18.9 4.7002 18.9 4.6002C18.8 4.4002 18.8 4.2002 18.9 3.9002C18.9 3.8002 19 3.7002 19.1 3.6002C19.4 3.3002 20 3.3002 20.3 3.6002C20.5 3.8002 20.6 3.9002 20.6 4.2002C20.6 4.4002 20.6 4.6002 20.5 4.6002Z" fill="black"/>
<path d="M4.30001 14.6006C3.80001 14.6006 3.40001 14.9006 3.40001 15.5006V15.9006C3.40001 18.0006 2.30001 19.7006 0.400011 20.7006C1.0848e-05 20.9006 -0.199989 21.4006 0.100011 21.8006C0.300011 22.1006 0.500011 22.3006 0.900011 22.3006C1.10001 22.3006 1.20001 22.3006 1.30001 22.2006C3.60001 21.0006 5.10001 18.6006 5.10001 15.9006V15.5006C5.20001 14.9006 4.80001 14.6006 4.30001 14.6006Z" fill="black"/>
<path d="M23.5002 20.6C21.7002 19.7 20.5002 17.9 20.5002 15.8V15.4C20.5002 14.9 20.2002 14.5 19.6002 14.5C19.1002 14.5 18.7002 14.8 18.7002 15.4V15.8C18.7002 18.5 20.2002 20.9 22.5002 22.1C22.7002 22.2 22.8002 22.2 22.9002 22.2C23.2002 22.2 23.5002 22 23.7002 21.8C24.1002 21.4 23.9002 20.9 23.5002 20.6Z" fill="black"/>
<path d="M9.4 14.6006C8.9 14.6006 8.5 14.9006 8.5 15.5006V19.8006C8.5 20.3006 8.8 20.7006 9.4 20.7006C10 20.7006 10.3 20.4006 10.3 19.8006V15.5006C10.3 14.9006 10 14.6006 9.4 14.6006Z" fill="black"/>
<path d="M14.6002 14.6006C14.1002 14.6006 13.7002 14.9006 13.7002 15.5006V19.8006C13.7002 20.3006 14.0002 20.7006 14.6002 20.7006C15.2002 20.7006 15.5002 20.4006 15.5002 19.8006V15.5006C15.4002 14.9006 15.1002 14.6006 14.6002 14.6006Z" fill="black"/>
</g>
<defs>
<clipPath id="clip0">
<rect width="24" height="24" fill="white"/>
</clipPath>
</defs>
</svg>
