<svg width="24" height="24" viewBox="0 0 24 24" fill="none" xmlns="http://www.w3.org/2000/svg">
<path d="M6.4002 9C6.4002 9 6.4002 8.9 6.4002 9C8.6002 8.4 9.5002 3.7 9.8002 1.7H11.4002V12H12.5002V1.7H14.1002C14.4002 3.7 15.3002 8.4 17.5002 8.9C17.5002 8.9 17.6002 9 17.5002 9C16.4002 9.3 16.0002 10.7 15.9002 12H19.8002V0.3C19.8002 0.1 19.6002 0 19.5002 0H4.5002C4.3002 0 4.2002 0.2 4.2002 0.3V12H8.1002C7.9002 10.8 7.5002 9.3 6.4002 9Z" fill="black"/>
<path d="M22.0002 15C22.2002 15 22.3002 14.8 22.3002 14.7V13.3C22.3002 13.1 22.1002 13 22.0002 13H2.0002C1.8002 13 1.7002 13.1 1.7002 13.3V14.7C1.7002 14.9 1.8002 15 2.0002 15H3.5002V21.9H2.0002C1.8002 21.9 1.7002 22.1 1.7002 22.3V23.7C1.7002 23.8 1.8002 24 2.0002 24H22.0002C22.2002 24 22.3002 23.8 22.3002 23.7V22.3C22.3002 22.1 22.1002 22 22.0002 22H20.5002V15H22.0002ZM7.9002 15H9.8002V21.9H7.9002V15ZM16.1002 21.9H14.2002V15H16.1002V21.9Z" fill="black"/>
</svg>
