<svg width="24" height="24" viewBox="0 0 24 24" fill="none" xmlns="http://www.w3.org/2000/svg">
<path d="M23.3 9.5998H8.6C8.5 9.5998 8.5 9.5998 8.4 9.5998H4.3V5.8998C4.3 4.6998 5.1 3.6998 6 3.6998C7 3.6998 7.9 4.4998 8.1 5.4998C8.2 5.8998 8.5 6.1998 8.9 6.0998C9.3 5.9998 9.6 5.69981 9.5 5.2998C9.3 3.5998 7.8 2.2998 6 2.2998C4.3 2.2998 2.9 3.8998 2.9 5.8998V9.5998H0.7C0.3 9.5998 0 9.9998 0 10.3998V11.5998C0 14.8998 2.3 17.6998 5.5 18.3998L4.1 20.5998C3.9 20.8998 3.9 21.3998 4.3 21.5998C4.7 21.7998 5.1 21.7998 5.3 21.3998C5.3 21.3998 5.3 21.3998 5.3 21.2998L7.1 18.4998H16.9L18.7 21.2998C18.8 21.4998 19.1 21.5998 19.3 21.5998C19.7 21.5998 20 21.2998 20 20.8998C20 20.7998 20 20.5998 19.9 20.4998L18.5 18.2998C21.7 17.5998 24 14.6998 24 11.3998V10.1998C24 9.9998 23.7 9.5998 23.3 9.5998Z" fill="black"/>
</svg>
