<svg width="24" height="24" viewBox="0 0 24 24" fill="none" xmlns="http://www.w3.org/2000/svg">
<path d="M22.9001 9.09961H1.1001V21.5996C1.1001 22.8996 2.1001 23.8996 3.4001 23.8996H20.6001C21.9001 23.8996 22.9001 22.8996 22.9001 21.5996V9.09961ZM8.1001 19.0996C8.1001 19.3996 7.8001 19.6996 7.5001 19.6996H5.9001C5.6001 19.6996 5.3001 19.3996 5.3001 19.0996V17.5996C5.3001 17.2996 5.6001 16.9996 5.9001 16.9996H7.4001C7.7001 16.9996 8.0001 17.2996 8.0001 17.5996V19.0996H8.1001ZM8.1001 13.9996C8.1001 14.2996 7.8001 14.5996 7.5001 14.5996H5.9001C5.6001 14.5996 5.3001 14.5996 5.3001 14.2996V12.7996C5.3001 12.4996 5.6001 11.8996 5.9001 11.8996H7.4001C7.7001 11.8996 8.0001 12.1996 8.0001 12.4996V13.9996H8.1001ZM13.2001 19.0996C13.2001 19.3996 12.9001 19.6996 12.6001 19.6996H11.1001C10.8001 19.6996 10.5001 19.3996 10.5001 19.0996V17.5996C10.5001 17.2996 10.8001 16.9996 11.1001 16.9996H12.6001C12.9001 16.9996 13.2001 17.2996 13.2001 17.5996V19.0996ZM13.2001 13.9996C13.2001 14.2996 12.9001 14.5996 12.6001 14.5996H11.1001C10.8001 14.5996 10.5001 14.2996 10.5001 13.9996V12.4996C10.5001 12.1996 10.8001 11.8996 11.1001 11.8996H12.6001C12.9001 11.8996 13.2001 12.1996 13.2001 12.4996V13.9996ZM18.4001 19.0996C18.4001 19.3996 18.1001 19.6996 17.8001 19.6996H16.3001C16.0001 19.6996 15.7001 19.3996 15.7001 19.0996V17.5996C15.7001 17.2996 16.0001 16.9996 16.3001 16.9996H17.8001C18.1001 16.9996 18.4001 17.2996 18.4001 17.5996V19.0996ZM18.4001 13.9996C18.4001 14.2996 18.1001 14.5996 17.8001 14.5996H16.3001C16.0001 14.5996 15.7001 14.2996 15.7001 13.9996V12.4996C15.7001 12.1996 16.0001 11.8996 16.3001 11.8996H17.8001C18.1001 11.8996 18.4001 12.1996 18.4001 12.4996V13.9996Z" fill="black"/>
<path d="M22.9001 4.49961C22.9001 3.19961 21.9001 2.19961 20.6001 2.19961H19.8001H19.6001H19.3001V3.69961C19.3001 4.39961 18.8001 4.89961 18.1001 4.89961H17.5001C16.8001 4.89961 16.3001 4.39961 16.3001 3.69961V2.09961H7.7001V3.59961C7.7001 4.29961 7.2001 4.79961 6.5001 4.79961H5.9001C5.2001 4.79961 4.7001 4.29961 4.7001 3.59961V2.09961H4.2001H4.1001H4.0001H3.4001C2.1001 2.09961 1.1001 3.09961 1.1001 4.39961V7.79961H23.0001V4.49961H22.9001Z" fill="black"/>
<path d="M16.8999 0.6V3.6C16.8999 3.9 17.1999 4.2 17.4999 4.2H18.0999C18.3999 4.2 18.6999 3.9 18.6999 3.6V0.6C18.6999 0.3 18.3999 0 18.0999 0H17.4999C17.0999 0 16.8999 0.3 16.8999 0.6Z" fill="black"/>
<path d="M6.50029 4.3C6.80029 4.3 7.10029 4 7.10029 3.7V0.7C7.10029 0.3 6.90029 0 6.50029 0H5.90029C5.60029 0 5.30029 0.3 5.30029 0.6V3.6C5.30029 3.9 5.60029 4.2 5.90029 4.2H6.50029V4.3Z" fill="black"/>
</svg>
