<svg width="24" height="24" viewBox="0 0 24 24" fill="none" xmlns="http://www.w3.org/2000/svg">
<path d="M22.8 6.9002H22.3C21.8 6.9002 21.3 7.1002 20.9 7.5002C20.3 6.0002 19.5 4.3002 19.1 3.7002C18.2 2.5002 17 2.1002 16.2 2.0002C14.8 1.8002 13.4 1.7002 12 1.7002C10.6 1.7002 9.2 1.8002 7.8 2.0002C6.9 2.1002 5.7 2.4002 4.9 3.6002C4.4 4.3002 3.7 6.0002 3.1 7.5002C2.7 7.1002 2.2 6.9002 1.7 6.8002H1.2C0.5 6.8002 0 7.4002 0 8.1002C0 8.3002 0 8.6002 0 9.0002C0 9.7002 0.6 10.2002 1.3 10.3002H1.9C1.8 10.4002 1.8 10.5002 1.7 10.6002C1.1 11.5002 0.8 12.5002 0.8 13.6002V19.6002C0.8 20.3002 1.4 20.8002 2 20.8002H3.6C4.3 20.8002 4.8 20.2002 4.8 19.6002V18.7002H18.8V19.6002C18.8 20.3002 19.4 20.8002 20 20.8002H21.6C22.3 20.8002 22.8 20.2002 22.8 19.6002V13.6002C22.9 12.5002 22.6 11.5002 22 10.6002C21.9 10.5002 21.9 10.4002 21.8 10.3002H22.4C23.1 10.3002 23.6 9.7002 23.7 9.0002C23.7 8.6002 23.7 8.4002 23.7 8.1002C24 7.4002 23.4 6.9002 22.8 6.9002ZM8.3 13.4002C8.2 13.8002 7.8 14.1002 7.4 14.1002H5.1C4.6 14.1002 4.1 13.7002 4.1 13.1002V12.5002C4.1 12.0002 4.5 11.5002 5.1 11.5002C5.2 11.5002 5.3 11.5002 5.3 11.5002L7.6 12.1002C8.1 12.4002 8.4 12.9002 8.3 13.4002ZM19 14.1002H16.7C16.2 14.1002 15.7 13.7002 15.7 13.1002C15.7 12.7002 16 12.2002 16.4 12.2002L18.7 11.6002C19.2 11.5002 19.8 11.8002 19.9 12.3002C19.9 12.4002 19.9 12.4002 19.9 12.5002V13.1002C20 13.7002 19.5 14.1002 19 14.1002Z" fill="black"/>
</svg>
