<svg width="24" height="24" viewBox="0 0 24 24" fill="none" xmlns="http://www.w3.org/2000/svg">
<path d="M2.4 3.16699C1.2 3.16699 0 4.36699 0 5.56699V7.96698H24V5.56699C24 4.36699 22.8 3.16699 21.6 3.16699H2.4ZM0 9.56699V18.367C0 19.567 1.2 20.767 2.4 20.767H21.5C22.7 20.767 23.9 19.567 23.9 18.367V9.56699H0ZM3.9 15.967H12.1C12.4 15.967 13 16.267 13 16.867C13 17.167 12.7 17.767 12.1 17.767H3.9C3.6 17.767 3 17.467 3 16.867C3 16.267 3.3 15.967 3.9 15.967ZM16.7 15.967C17 15.967 17.6 16.267 17.6 16.867C17.6 17.167 17.3 17.767 16.7 17.767C16.4 17.767 15.8 17.467 15.8 16.867C16.1 16.267 16.4 15.967 16.7 15.967ZM20 15.967C20.3 15.967 20.9 16.267 20.9 16.867C20.9 17.167 20.6 17.767 20 17.767C19.7 17.767 19.1 17.467 19.1 16.867C19.1 16.267 19.4 15.967 20 15.967Z" fill="black"/>
</svg>
