<svg width="24" height="24" viewBox="0 0 24 24" fill="none" xmlns="http://www.w3.org/2000/svg">
<g clip-path="url(#clip0)">
<path fill-rule="evenodd" clip-rule="evenodd" d="M3.5 5.59989H7C7.1 5.59989 7.1 5.59989 7.1 5.69989L7.2 7.29989V7.39989C7.2 7.39989 7.2 7.39989 7.1 7.39989H4.4H2.3C2 7.39989 1.7 7.49989 1.5 7.59989C1.3 7.69989 1.1 7.49989 1.2 7.29989C1.5 5.9999 2.9 5.59989 3.5 5.59989ZM2.3 8.69989H18.8C19.5 8.69989 20.1 9.2999 20.1 9.9999V12.3999C20.1 12.8999 19.7 13.1999 19.3 13.1999H19C17.4 13.1999 16 14.4999 16 16.1999V16.3999C16 17.9999 17.3 19.3999 19 19.3999H19.3C19.8 19.3999 20.1 19.7999 20.1 20.1999V22.5999C20.1 23.2999 19.5 23.8999 18.8 23.8999H2.3C1.6 23.9999 1 23.3999 1 22.6999V9.9999C1 9.2999 1.6 8.69989 2.3 8.69989ZM19 14.4999H21.3C22.3 14.4999 23.1 15.2999 23.1 16.2999V16.4999C23.1 17.4999 22.3 18.2999 21.3 18.2999H19C18 18.2999 17.2 17.4999 17.2 16.4999V16.2999C17.2 15.2999 18 14.4999 19 14.4999ZM9.6 2.79989C11.5 0.399894 14.5 -0.900105 18.2 0.699895C18.3 0.699895 18.4 0.899895 18.3 0.999895C18.3 1.09989 18.2 1.19989 18.1 1.19989C15.9 1.29989 13.9 1.29989 11.9 4.29989C11.9 4.39989 11.8 4.39989 11.9 4.49989C11.9 4.59989 12 4.59989 12 4.69989L12.8 5.19989C12.9 5.29989 12.9 5.29989 12.9 5.39989C12.9 5.49989 12.8 5.59989 12.7 5.59989L8.5 7.49989C8.4 7.49989 8.3 7.49989 8.3 7.49989C8.1 7.39989 8.1 7.29989 8.1 7.29989L7.9 2.49989C7.9 2.39989 8 2.29989 8 2.29989C8.1 2.29989 8.2 2.29989 8.3 2.29989L9.3 2.89989C9.4 2.89989 9.6 2.89989 9.6 2.79989ZM14.2 5.59989H18.8C19.5 5.59989 20.1 6.29989 20.1 7.09989V7.49989C20.1 7.59989 20.1 7.69989 20 7.69989C19.9 7.69989 19.8 7.69989 19.8 7.69989C19.5 7.49989 19.2 7.39989 18.8 7.39989H11.7C11.6 7.39989 11.6 7.39989 11.6 7.29989C11.6 7.19989 11.6 7.19989 11.7 7.19989L13.2 6.59989C13.5 6.49989 13.8 6.19989 13.9 5.89989C13.9 5.69989 14 5.59989 14.2 5.59989Z" fill="black"/>
</g>
<defs>
<clipPath id="clip0">
<rect width="24" height="24" fill="white"/>
</clipPath>
</defs>
</svg>
