<svg width="24" height="24" viewBox="0 0 24 24" fill="none" xmlns="http://www.w3.org/2000/svg">
<g clip-path="url(#clip0)">
<path d="M14.3002 12.0998L23.5002 2.8998C24.2002 2.2998 24.2002 1.2998 23.6002 0.599805C23.0002 -0.100195 22.0002 -0.100195 21.3002 0.499805C21.2002 0.599805 21.2002 0.599805 21.2002 0.599805L12.0002 9.6998L2.7002 0.499805C2.0002 -0.100195 1.1002 -0.100195 0.400195 0.499805C-0.199805 1.1998 -0.199805 2.0998 0.400195 2.7998L9.6002 11.9998L0.400195 21.1998C-0.199805 21.8998 -0.199805 22.7998 0.400195 23.4998C1.1002 24.0998 2.0002 24.0998 2.7002 23.4998L11.9002 14.2998L21.1002 23.4998C21.8002 24.0998 22.8002 23.9998 23.4002 23.3998C23.9002 22.7998 23.9002 21.7998 23.4002 21.1998L14.3002 12.0998Z" fill="black"/>
</g>
<defs>
<clipPath id="clip0">
<rect width="24" height="24" fill="white"/>
</clipPath>
</defs>
</svg>
