<svg width="24" height="24" viewBox="0 0 24 24" fill="none" xmlns="http://www.w3.org/2000/svg">
<path d="M9.6 5L9 0H1V2H7.2L7.6 5H4C5.3 8.1 6 11.5 6 15V16.5C6 17.9 7.1 19 8.5 19H10V20.5C10 21.6 9.1 22.5 8 22.5H7V24H15V22.5H14C12.9 22.5 12 21.6 12 20.5V19H13.5C14.9 19 16 17.9 16 16.5V15C16 11.4 16.7 8 18 4.9L9.6 5Z" fill="black"/>
<path d="M17.9998 0C15.7998 0 13.8998 1.5 13.2998 3.5H20.2998L19.3998 5.6C18.7998 7 18.2998 8.5 17.9998 10C20.7998 10 22.9998 7.8 22.9998 5C22.9998 2.2 20.7998 0 17.9998 0Z" fill="black"/>
</svg>
