<svg width="24" height="24" viewBox="0 0 24 24" fill="none" xmlns="http://www.w3.org/2000/svg">
<g clip-path="url(#clip0)">
<path d="M9.7999 1.7998C9.1999 1.1998 8.2999 1.1998 7.6999 1.7998C7.6999 1.4998 7.4999 1.1998 7.2999 0.999805C6.6999 0.399805 5.7999 0.399805 5.1999 0.999805L4.1999 1.9998L2.0999 4.1998L1.0999 5.0998C0.499902 5.6998 0.499902 6.5998 1.0999 7.1998C1.1999 7.2998 1.2999 7.3998 1.4999 7.4998C1.5999 7.5998 1.7999 7.5998 1.8999 7.6998C1.2999 8.2998 1.2999 9.1998 1.8999 9.7998C2.4999 10.3998 3.3999 10.3998 3.9999 9.7998L5.7999 7.9998L7.8999 5.8998L9.6999 4.0998C10.3999 3.3998 10.3999 2.3998 9.7999 1.7998C9.7999 1.8998 9.7999 1.8998 9.7999 1.7998Z" fill="black"/>
<path d="M2.6002 0.400195L3.6002 1.4002L1.4002 3.5002L0.400195 2.5002C-0.199805 1.9002 -0.199805 1.0002 0.400195 0.400195C1.0002 -0.199805 1.9002 -0.199805 2.6002 0.400195Z" fill="black"/>
<path d="M22.7 16.6004C22.6 16.5004 22.5 16.4004 22.3 16.3004C22.2 16.2004 22 16.2004 21.9 16.2004C22.5 15.6004 22.5 14.7004 21.9 14.1004C21.3 13.5004 20.4 13.5004 19.8 14.1004L18 15.9004L16 18.0004L14.2 19.8004C13.6 20.4004 13.6 21.3004 14.2 21.9004C14.8 22.5004 15.7 22.5004 16.3 21.9004C16.3 22.2004 16.5 22.5004 16.7 22.7004C17.3 23.3004 18.2 23.3004 18.8 22.7004L19.7 21.8004L21.8 19.7004L22.7 18.8004C23.3 18.2004 23.3 17.2004 22.7 16.6004Z" fill="black"/>
<path d="M8.58419 6.48319L6.46289 8.60449L15.2309 17.3725L17.3522 15.2512L8.58419 6.48319Z" fill="black"/>
<path d="M23.5999 23.4998C22.9999 24.0998 22.0999 24.0998 21.4999 23.4998L20.3999 22.3998L22.4999 20.2998L23.5999 21.3998C24.0999 21.9998 24.0999 22.8998 23.5999 23.4998Z" fill="black"/>
</g>
<defs>
<clipPath id="clip0">
<rect width="24" height="24" fill="white"/>
</clipPath>
</defs>
</svg>
