<svg width="24" height="24" viewBox="0 0 24 24" fill="none" xmlns="http://www.w3.org/2000/svg">
<path d="M23.2 16.5996H0.8C0.3 16.5996 0 16.9996 0 17.3996C0 17.7996 0.3 18.1996 0.8 18.1996H3.3V18.2996C3.3 19.0996 4 19.7996 4.8 19.7996H19.2C20 19.7996 20.9 19.0996 20.9 18.2996V18.1996H23.3C23.8 18.1996 24 17.7996 24 17.3996C24 16.9996 23.6 16.5996 23.2 16.5996Z" fill="black"/>
<path d="M14.8002 6.2998C14.6002 5.1998 13.6002 4.2998 12.4002 4.2998H11.6002C10.4002 4.2998 9.4002 5.0998 9.2002 6.2998C4.8002 7.4998 1.4002 11.3998 1.2002 15.7998H23.0002C22.7002 11.4998 19.3002 7.5998 14.8002 6.2998ZM12.0002 5.9998C11.3002 5.9998 10.6002 6.0998 10.0002 6.1998C10.3002 5.4998 10.9002 5.0998 11.7002 5.0998H12.4002C13.2002 5.0998 13.8002 5.5998 14.1002 6.1998C13.4002 6.0998 12.7002 5.9998 12.0002 5.9998Z" fill="black"/>
</svg>
