<svg width="24" height="24" viewBox="0 0 24 24" fill="none" xmlns="http://www.w3.org/2000/svg">
<g clip-path="url(#clip0)">
<path d="M11.9002 14.4C15.8766 14.4 19.1002 11.1764 19.1002 7.2C19.1002 3.22355 15.8766 0 11.9002 0C7.92374 0 4.7002 3.22355 4.7002 7.2C4.7002 11.1764 7.92374 14.4 11.9002 14.4Z" fill="black"/>
<path d="M20.8001 12.4C20.3001 11.9 19.6001 12 19.1001 12.5C15.5001 16.3 9.50007 16.7 5.50007 13.2C5.30007 13 5.00007 12.7 4.80007 12.5C4.40007 12 3.70007 12 3.20007 12.4C2.70007 12.9 2.70007 13.6 3.10007 14.1C5.10007 16.4 7.90007 17.7 10.8001 18.1V22.9C10.8001 23.6 11.3001 24.1 12.0001 24.1C12.7001 24.1 13.2001 23.6 13.2001 22.9V18C16.2001 17.8 19.0001 16.3 20.9001 14C21.3001 13.6 21.3001 12.7 20.8001 12.4Z" fill="black"/>
</g>
<defs>
<clipPath id="clip0">
<rect width="24" height="24" fill="white"/>
</clipPath>
</defs>
</svg>
