<svg width="24" height="24" viewBox="0 0 24 24" fill="none" xmlns="http://www.w3.org/2000/svg">
<path d="M12.2998 10.3V14.4H19.1998C18.8998 16.1 17.0998 19.5 12.2998 19.5C8.1998 19.5 4.8998 16.1 4.8998 12C4.8998 7.9 8.1998 4.5 12.2998 4.5C14.6998 4.5 16.1998 5.5 17.0998 6.4L20.3998 3.3C18.2998 1.2 15.4998 0 12.2998 0C5.5998 0 0.299805 5.3 0.299805 12C0.299805 18.7 5.5998 24 12.2998 24C19.1998 24 23.7998 19.2 23.7998 12.3C23.7998 11.4 23.7998 10.9 23.5998 10.2H12.2998V10.3Z" fill="black"/>
</svg>
