<svg width="24" height="24" viewBox="0 0 24 24" fill="none" xmlns="http://www.w3.org/2000/svg">
<g clip-path="url(#clip0)">
<path d="M21.4002 3.49961C16.6002 3.49961 12.6002 0.299609 12.5002 0.199609C12.2002 -0.100391 11.7002 -0.100391 11.5002 0.199609C11.4002 0.299609 7.4002 3.49961 2.6002 3.49961C2.1002 3.49961 1.7002 3.79961 1.7002 4.39961V11.9996C1.7002 17.6996 4.0002 20.5996 11.6002 23.8996C11.9002 23.9996 12.1002 23.9996 12.3002 23.8996C19.9002 20.5996 22.2002 17.6996 22.2002 11.9996V4.29961C22.3002 3.79961 21.9002 3.49961 21.4002 3.49961ZM12.0002 18.8996C8.2002 18.8996 5.1002 15.7996 5.1002 11.9996C5.1002 8.19961 8.2002 5.19961 12.0002 5.19961C15.8002 5.19961 18.9002 8.29961 18.9002 12.0996C18.9002 15.8996 15.8002 18.8996 12.0002 18.8996ZM15.2002 9.69961C15.5002 9.99961 15.5002 10.5996 15.2002 10.8996L11.8002 14.2996C11.5002 14.5996 10.9002 14.5996 10.6002 14.2996L8.9002 12.5996C8.60019 12.2996 8.60019 11.6996 8.9002 11.3996C9.2002 11.0996 9.8002 11.0996 10.1002 11.3996L11.2002 12.4996L14.0002 9.69961C14.3002 9.39961 14.8002 9.39961 15.2002 9.69961Z" fill="black"/>
</g>
<defs>
<clipPath id="clip0">
<rect width="24" height="24" fill="white"/>
</clipPath>
</defs>
</svg>
