<svg width="24" height="24" viewBox="0 0 24 24" fill="none" xmlns="http://www.w3.org/2000/svg">
<path fill-rule="evenodd" clip-rule="evenodd" d="M3.7 2.7002H20.4C22.4 2.7002 24 4.3002 24 6.4002V17.7002C24 19.7002 22.4 21.3002 20.4 21.3002H3.6C1.6 21.3002 0 19.7002 0 17.7002V6.4002C0 4.4002 1.6 2.7002 3.7 2.7002ZM17.2 5.4002C18.2 5.4002 19.1 6.2002 19.1 7.3002C19.1 8.4002 18.3 9.2002 17.2 9.2002C16.2 9.2002 15.3 8.4002 15.3 7.3002C15.3 6.2002 16.1 5.4002 17.2 5.4002ZM5.1 15.6002L9.4 8.7002C9.8 8.3002 10.6 8.3002 10.9 8.7002L13.7 13.2002L14.8 11.4002C15 11.1002 15.6 11.1002 15.9 11.4002L18.9 16.3002C19.5 17.2002 18.9 18.4002 17.8 18.4002C14.1 18.4002 10.3 18.4002 6.5 18.4002C5.2 18.4002 4.3 16.9002 5.1 15.6002Z" fill="black"/>
</svg>
