<svg width="24" height="24" viewBox="0 0 24 24" fill="none" xmlns="http://www.w3.org/2000/svg">
<path d="M12 0C18.6 0 24 5.4 24 12C24 18.6 18.6 24 12 24C5.4 24 0 18.6 0 12C0 5.4 5.4 0 12 0ZM11.1 9.1C10.4 9.1 9.7 9.1 9 9.1C8.8 9.1 8.7 9.1 8.5 9.2C8.3 9.2 8.2 9.4 8.2 9.6C8.1 9.8 8.2 10 8.4 10.1C8.6 10.2 8.9 10.3 9.1 10.3C9.8 10.3 10 10.6 9.9 11.3C9.7 12.6 9.5 13.9 9.2 15.1C9.1 16 9 16.8 8.9 17.7C8.7 18.9 9.8 20 10.7 20.1C11.2 20.2 11.7 20.2 12.2 20.2C13.3 20.2 14.4 19.7 15.1 18.9C15.2 18.8 15.3 18.6 15.4 18.4C15.4 18.2 15.4 18.1 15.3 18C15.2 17.9 15 17.9 14.9 18C14.7 18.1 14.5 18.2 14.3 18.3C14.1 18.4 13.8 18.5 13.6 18.5C13.2 18.6 12.9 18.4 12.8 18V17.9C12.8 17.7 12.8 17.4 12.8 17.2C12.9 16.6 13 16.1 13.1 15.5C13.4 14 13.7 12.5 13.9 11C14 10.6 14.1 10.2 14 9.7C14 9.3 13.6 9 13.2 9C12.5 9.1 11.8 9.1 11.1 9.1ZM12.4 3.8C11.2 3.7 10.2 4.7 10.1 5.9C10 7.1 11 8.1 12.2 8.2C13.4 8.3 14.4 7.3 14.5 6.1C14.5 4.8 13.6 3.9 12.4 3.8Z" fill="black"/>
</svg>
