<svg width="24" height="24" viewBox="0 0 24 24" fill="none" xmlns="http://www.w3.org/2000/svg">
<g clip-path="url(#clip0)">
<path d="M20.4002 0.9H19.5002C18.8002 0.1 16.4002 0 13.7002 0C10.4002 0 7.5002 0.5 6.5002 1.3C6.2002 1.6 6.0002 1.9 5.7002 2.2C4.1002 2.9 1.2002 4 1.2002 8.3C1.2002 14.4 5.4002 18.4 5.4002 19.4V21.6C5.4002 22.9 6.5002 24.1 7.8002 24.1H16.3002C17.5002 24.1 18.6002 23.1 18.8002 21.9L20.0002 7.3C20.3002 4.7 22.9002 1 22.9002 1H20.4002V0.9ZM5.4002 15.1C4.0002 15.1 1.7002 5.4 5.4002 4.8V15.1ZM16.3002 18.3C16.3002 18.5 16.1002 18.7 15.9002 18.7C15.7002 18.7 15.5002 18.5 15.5002 18.3V5.8C15.5002 5.6 15.7002 5.4 15.9002 5.4C16.1002 5.4 16.3002 5.6 16.3002 5.8V18.3Z" fill="black"/>
</g>
<defs>
<clipPath id="clip0">
<rect width="24" height="24" fill="white"/>
</clipPath>
</defs>
</svg>
