<svg width="24" height="24" viewBox="0 0 24 24" fill="none" xmlns="http://www.w3.org/2000/svg">
<path d="M1.09985 1.33758C-0.600149 3.13758 0.0998513 5.33756 0.899851 6.13756C-0.600149 7.63756 -0.100149 10.1376 1.59985 11.9376C3.69985 14.0375 6.99985 14.2376 9.69985 12.5376L20.2999 23.2375C20.7999 23.7375 21.7999 23.7376 22.4999 23.0376C23.1999 22.3376 23.1999 21.2375 22.6999 20.7375L22.1999 20.2375L23.8999 18.4376L23.1999 17.7375L22.4999 18.4376L21.4999 17.4376L22.1999 16.7375L21.4999 16.0376L19.7999 17.8376L12.1999 10.1376C13.8999 7.43756 13.6999 4.13759 11.5999 2.03759C9.89985 0.237587 7.39985 -0.262425 5.89985 1.33758C5.19985 0.337575 2.99985 -0.362425 1.09985 1.33758ZM2.59985 2.73754C2.99985 2.33754 3.69985 2.33754 4.09985 2.73754C4.49985 3.13754 4.49985 3.83754 4.09985 4.23754C3.69985 4.63754 2.99985 4.63754 2.59985 4.23754C2.19985 3.83754 2.19985 3.13754 2.59985 2.73754Z" fill="black"/>
</svg>
