<svg width="24" height="24" viewBox="0 0 24 24" fill="none" xmlns="http://www.w3.org/2000/svg">
<path d="M23.9 7.4C23.9 6.9 23.5 6.5 23 6.5H0.9C0.4 6.5 0 6.9 0 7.4C0 7.9 0.4 8.3 0.9 8.3H23C23.5 8.2 23.9 7.9 23.9 7.4Z" fill="black"/>
<path d="M22.9999 11.0996H12.7999C12.2999 11.0996 11.8999 11.4996 11.8999 11.9996C11.8999 12.4996 12.2999 12.8996 12.7999 12.8996H22.9999C23.4999 12.8996 23.8999 12.4996 23.8999 11.9996C23.8999 11.4996 23.4999 11.0996 22.9999 11.0996Z" fill="black"/>
<path d="M23.0001 15.7998H7.0001C6.5001 15.7998 6.1001 16.1998 6.1001 16.6998C6.1001 17.1998 6.5001 17.5998 7.0001 17.5998H23.0001C23.5001 17.5998 23.9001 17.1998 23.9001 16.6998C23.9001 16.1998 23.5001 15.7998 23.0001 15.7998Z" fill="black"/>
</svg>
