<svg width="24" height="24" viewBox="0 0 24 24" fill="none" xmlns="http://www.w3.org/2000/svg">
<path d="M23.2002 9.50005C23.5002 9.10005 24.0002 5.00005 20.8002 3.60005C17.6002 2.20005 14.7002 4.10005 14.0002 4.60005C13.8002 4.80005 13.7002 4.60005 13.7002 4.60005C13.7002 4.60005 12.2002 0.600052 8.40017 0.100052C5.00017 -0.399948 3.20017 3.30005 3.20017 3.80005C3.20017 3.80005 8.20017 0.500052 12.5002 4.80005C0.500174 1.60005 1.10017 12.2001 1.10017 12.2001C5.50017 6.90005 11.2002 6.30005 12.8002 6.30005C11.6002 8.00005 6.90017 14.8001 6.80017 23.4001V23.5001C6.80017 23.9001 7.40017 24.0001 8.20017 24.0001C9.00017 24.0001 9.70017 23.7001 9.70017 23.3001C9.70017 23.3001 9.00017 13.1001 13.5002 6.40005C14.6002 7.10005 19.5002 10.4001 20.5002 17.7001C20.5002 17.7001 26.5002 9.00005 14.6002 5.40005C20.7002 4.10005 23.2002 9.50005 23.2002 9.50005Z" fill="black"/>
<path d="M17.1003 1.99998C17.1003 1.99998 15.8003 -0.700019 12.8003 0.599981C12.8003 0.599981 13.9003 1.89998 14.2003 3.19998C14.4003 3.29998 15.6003 2.19998 17.1003 1.99998Z" fill="black"/>
<path d="M11.7003 18.2998C11.6003 18.0998 11.4003 16.5998 12.6003 16.0998C13.7003 15.5998 14.9003 16.2998 15.1003 16.4998C15.2003 16.5998 15.3003 16.4998 15.3003 16.4998C15.3003 16.4998 15.8003 14.9998 17.3003 14.7998C18.6003 14.5998 19.3003 15.9998 19.3003 16.1998C19.3003 16.1998 17.5003 14.9998 15.8003 16.5998C20.2003 15.3998 20.1003 19.3998 20.1003 19.3998C18.4003 17.3998 16.3003 17.1998 15.7003 17.1998C16.2003 17.7998 17.9003 20.3998 18.0003 23.5998C18.0003 23.7998 17.7003 23.7998 17.4003 23.7998C17.1003 23.7998 16.8003 23.5998 16.8003 23.5998C16.8003 23.5998 17.0003 19.7998 15.4003 17.2998C15.0003 17.4998 13.1003 18.7998 12.8003 21.4998C12.8003 21.4998 10.5003 18.2998 15.0003 16.8998C12.6003 16.2998 11.7003 18.2998 11.7003 18.2998Z" fill="black"/>
<path d="M13.9004 15.4994C13.9004 15.4994 14.4004 14.4994 15.5004 14.9994C15.5004 14.9994 15.0004 15.4994 15.0004 15.9994C15.0004 15.9994 14.5004 15.5994 13.9004 15.4994Z" fill="black"/>
</svg>
