<svg width="24" height="24" viewBox="0 0 24 24" fill="none" xmlns="http://www.w3.org/2000/svg">
<path d="M12.8 7.7002H10.5V11.5002H12.8C13.4 11.5002 13.9 11.4002 14.3 11.1002C14.6 10.8002 14.8 10.3002 14.8 9.7002C14.8 9.1002 14.6 8.6002 14.3 8.2002C13.9 7.8002 13.4 7.7002 12.8 7.7002Z" fill="black"/>
<path d="M20.7 0H3.4C1.6 0 0 1.5 0 3.4V20.7C0 22.5 1.6 24 3.4 24H20.7C22.5 24 24 22.5 24 20.7V3.4C24 1.5 22.5 0 20.7 0ZM16.7 12.9C15.7 13.7 14.4 14 12.7 14H10.5V18.9H7.1V5.1H12.7C13.7 5.1 14.7 5.3 15.5 5.6C16.3 5.9 17 6.5 17.4 7.2C17.8 7.9 18.1 8.7 18.1 9.6C18.1 11 17.6 12.1 16.7 12.9Z" fill="black"/>
</svg>
