<svg width="24" height="24" viewBox="0 0 24 24" fill="none" xmlns="http://www.w3.org/2000/svg">
<g clip-path="url(#clip0)">
<path d="M19.0001 0.400477C17.6001 1.10048 1.00013 17.5005 0.100128 19.3005C-0.399872 20.3005 3.40013 24.3005 5.10013 23.8005C6.10013 23.5005 24.1001 5.60048 24.0001 4.30048C23.9001 2.60048 21.3001 -0.899523 19.0001 0.400477ZM8.60013 5.30048C8.90013 3.60048 8.20013 1.50048 5.60013 1.10048C2.90013 0.700477 1.60013 2.40048 1.40013 4.10048C1.10013 5.70048 1.80013 7.70048 4.40013 8.30048C7.10013 8.80048 8.40013 7.00048 8.60013 5.30048ZM16.9001 16.5005C15.0001 18.4005 15.6001 20.5005 16.9001 21.7005C18.0001 22.8005 20.0001 23.5005 22.0001 21.7005C24.1001 19.8005 23.3001 17.7005 22.1001 16.5005C20.8001 15.3005 18.8001 14.6005 16.9001 16.5005Z" fill="black"/>
</g>
<defs>
<clipPath id="clip0">
<rect width="24" height="24" fill="white"/>
</clipPath>
</defs>
</svg>
