<svg width="24" height="24" viewBox="0 0 24 24" fill="none" xmlns="http://www.w3.org/2000/svg">
<path d="M1.8001 6.2002C2.2001 9.5002 3.8001 13.1002 6.3001 16.3002C8.8001 19.5002 11.8001 21.9002 14.9001 23.2002C15.6001 23.5002 16.6001 23.7002 17.4001 23.9002C18.2001 24.1002 19.0001 23.8002 19.6001 23.1002L21.9001 20.4002C22.5001 19.7002 22.4001 18.7002 21.6001 18.2002L17.4001 15.3002C16.8001 14.9002 16.0001 15.0002 15.5001 15.5002L13.6001 17.4002C12.1001 16.3002 11.0001 15.3002 9.7001 13.7002C8.3001 12.0002 7.7001 10.7002 7.1001 9.0002L9.4001 7.6002C10.0001 7.2002 10.3001 6.5002 10.0001 5.8002L8.3001 1.0002C8.0001 0.100203 7.0001 -0.199797 6.2001 0.200203L3.0001 1.7002C2.3001 2.1002 1.8001 2.8002 1.8001 3.6002C1.7001 4.4002 1.7001 5.5002 1.8001 6.2002Z" fill="black"/>
</svg>
