<svg width="24" height="24" viewBox="0 0 24 24" fill="none" xmlns="http://www.w3.org/2000/svg">
<g clip-path="url(#clip0)">
<path d="M22.9998 17.0996C22.5998 17.0996 22.3998 16.8996 21.8998 16.3996C21.3998 15.8996 20.6998 15.0996 19.2998 15.0996C17.8998 15.0996 17.2998 15.8996 16.6998 16.3996C16.2998 16.8996 16.0998 17.0996 15.5998 17.0996C15.0998 17.0996 14.9998 16.8996 14.4998 16.3996C13.9998 15.8996 13.2998 15.0996 11.8998 15.0996C10.4998 15.0996 9.89981 15.8996 9.2998 16.3996C8.89981 16.8996 8.6998 17.0996 8.1998 17.0996C7.6998 17.0996 7.5998 16.8996 7.0998 16.3996C6.5998 15.8996 5.8998 15.0996 4.4998 15.0996C3.0998 15.0996 2.4998 15.8996 1.8998 16.3996C1.4998 16.8996 1.2998 17.0996 0.799805 17.0996C0.299805 17.0996 -0.200195 17.4996 -0.200195 18.0996C-0.200195 18.6996 0.199805 19.0996 0.799805 19.0996C2.0998 19.0996 2.7998 18.2996 3.3998 17.7996C3.7998 17.2996 3.9998 17.0996 4.4998 17.0996C4.9998 17.0996 5.0998 17.2996 5.5998 17.7996C6.0998 18.2996 6.7998 19.0996 8.1998 19.0996C9.5998 19.0996 10.1998 18.2996 10.7998 17.7996C11.1998 17.2996 11.3998 17.0996 11.8998 17.0996C12.3998 17.0996 12.4998 17.2996 12.9998 17.7996C13.4998 18.2996 14.1998 19.0996 15.5998 19.0996C16.9998 19.0996 17.6998 18.2996 18.1998 17.7996C18.5998 17.2996 18.7998 17.0996 19.2998 17.0996C19.7998 17.0996 19.8998 17.2996 20.3998 17.7996C20.8998 18.2996 21.5998 19.0996 22.9998 19.0996C23.4998 19.0996 23.9998 18.6996 23.9998 18.0996C23.9998 17.4996 23.4998 17.0996 22.9998 17.0996Z" fill="black"/>
<path d="M23 22C22.6 22 22.4 21.8 21.9 21.3C21.4 20.8 20.7 20 19.3 20C17.9 20 17.3 20.8 16.7 21.3C16.3 21.8 16.1 22 15.6 22C15.1 22 15 21.8 14.5 21.3C14 20.8 13.3 20 11.9 20C10.5 20 9.9 20.8 9.3 21.3C9 21.8 8.8 22 8.3 22C7.8 22 7.7 21.8 7.2 21.3C6.7 20.8 6 20 4.6 20C3.2 20 2.6 20.8 2 21.3C1.6 21.8 1.4 22 1 22C0.5 22 0 22.4 0 23C0 23.6 0.4 24 1 24C2.3 24 3 23.2 3.6 22.7C4 22.2 4.2 22 4.7 22C5.2 22 5.3 22.2 5.8 22.7C6.3 23.3 7 24 8.3 24C9.6 24 10.3 23.2 10.9 22.7C11.3 22.2 11.5 22 12 22C12.5 22 12.6 22.2 13.1 22.7C13.6 23.2 14.3 24 15.7 24C17.1 24 17.8 23.2 18.3 22.7C18.7 22.2 18.9 22 19.4 22C19.9 22 20 22.2 20.5 22.7C21 23.2 21.7 24 23.1 24C23.6 24 24.1 23.6 24.1 23C24.1 22.4 23.5 22 23 22Z" fill="black"/>
<path d="M7 14C7.5 14 8 13.6 8 13V11H16V13C16 13.5 16.4 14 17 14C17.5 14 18 13.6 18 13V3C18 2.5 18.4 2 19 2C19.5 2 20 1.6 20 1C20 0.4 19.6 0 19 0C17.4 0 16 1.3 16 3V4H8V3C8 2.5 8.4 2 9 2C9.5 2 10 1.6 10 1C10 0.4 9.6 0 9 0C7.4 0 6 1.3 6 3V13C6 13.6 6.5 14 7 14ZM16 6V9H8V6H16Z" fill="black"/>
</g>
<defs>
<clipPath id="clip0">
<rect width="24" height="24" fill="white"/>
</clipPath>
</defs>
</svg>
