<svg width="24" height="24" viewBox="0 0 24 24" fill="none" xmlns="http://www.w3.org/2000/svg">
<path d="M20.2 16.1002C20.5866 16.1002 20.9 15.7868 20.9 15.4002C20.9 15.0136 20.5866 14.7002 20.2 14.7002C19.8134 14.7002 19.5 15.0136 19.5 15.4002C19.5 15.7868 19.8134 16.1002 20.2 16.1002Z" fill="black"/>
<path d="M17.7 9.30039C18.0866 9.30039 18.4 8.98699 18.4 8.60039C18.4 8.21379 18.0866 7.90039 17.7 7.90039C17.3134 7.90039 17 8.21379 17 8.60039C17 8.98699 17.3134 9.30039 17.7 9.30039Z" fill="black"/>
<path d="M20.2 13.8004C20.5866 13.8004 20.9 13.487 20.9 13.1004C20.9 12.7138 20.5866 12.4004 20.2 12.4004C19.8134 12.4004 19.5 12.7138 19.5 13.1004C19.5 13.487 19.8134 13.8004 20.2 13.8004Z" fill="black"/>
<path d="M17.7 16.1002C18.0866 16.1002 18.4 15.7868 18.4 15.4002C18.4 15.0136 18.0866 14.7002 17.7 14.7002C17.3134 14.7002 17 15.0136 17 15.4002C17 15.7868 17.3134 16.1002 17.7 16.1002Z" fill="black"/>
<path d="M20.2 11.6002C20.5866 11.6002 20.9 11.2868 20.9 10.9002C20.9 10.5136 20.5866 10.2002 20.2 10.2002C19.8134 10.2002 19.5 10.5136 19.5 10.9002C19.5 11.2868 19.8134 11.6002 20.2 11.6002Z" fill="black"/>
<path d="M17.7 11.6002C18.0866 11.6002 18.4 11.2868 18.4 10.9002C18.4 10.5136 18.0866 10.2002 17.7 10.2002C17.3134 10.2002 17 10.5136 17 10.9002C17 11.2868 17.3134 11.6002 17.7 11.6002Z" fill="black"/>
<path d="M17.7 13.8004C18.0866 13.8004 18.4 13.487 18.4 13.1004C18.4 12.7138 18.0866 12.4004 17.7 12.4004C17.3134 12.4004 17 12.7138 17 13.1004C17 13.487 17.3134 13.8004 17.7 13.8004Z" fill="black"/>
<path d="M20.2 7.90039C19.8 7.90039 19.5 8.20039 19.5 8.60039C19.5 9.00039 19.8 9.30039 20.2 9.30039C20.6 9.30039 20.9 9.00039 20.9 8.60039C20.9 8.20039 20.6 7.90039 20.2 7.90039Z" fill="black"/>
<path d="M22.8001 9.30039C23.1867 9.30039 23.5001 8.98699 23.5001 8.60039C23.5001 8.21379 23.1867 7.90039 22.8001 7.90039C22.4135 7.90039 22.1001 8.21379 22.1001 8.60039C22.1001 8.98699 22.4135 9.30039 22.8001 9.30039Z" fill="black"/>
<path d="M22.8001 16.1002C23.1867 16.1002 23.5001 15.7868 23.5001 15.4002C23.5001 15.0136 23.1867 14.7002 22.8001 14.7002C22.4135 14.7002 22.1001 15.0136 22.1001 15.4002C22.1001 15.7868 22.4135 16.1002 22.8001 16.1002Z" fill="black"/>
<path d="M22.8001 11.6002C23.1867 11.6002 23.5001 11.2868 23.5001 10.9002C23.5001 10.5136 23.1867 10.2002 22.8001 10.2002C22.4135 10.2002 22.1001 10.5136 22.1001 10.9002C22.1001 11.2868 22.4135 11.6002 22.8001 11.6002Z" fill="black"/>
<path d="M22.8001 13.8004C23.1867 13.8004 23.5001 13.487 23.5001 13.1004C23.5001 12.7138 23.1867 12.4004 22.8001 12.4004C22.4135 12.4004 22.1001 12.7138 22.1001 13.1004C22.1001 13.487 22.4135 13.8004 22.8001 13.8004Z" fill="black"/>
<path d="M23.8 17.2996H16.6C16.2 17.2996 15.8 16.8996 15.8 16.4996V7.49961C15.8 7.09961 16.2 6.69961 16.6 6.69961H23.8C23.8 6.69961 23.9 6.69961 24 6.69961V3.29961C24 2.59961 23.5 2.09961 22.8 2.09961H1.2C0.5 2.09961 0 2.59961 0 3.29961V20.7996C0 21.4996 0.5 21.9996 1.2 21.9996H22.8C23.5 21.9996 24 21.4996 24 20.7996V17.3996C24 17.2996 23.9 17.2996 23.8 17.2996ZM5.2 14.1996C3.7 14.1996 2.4 12.8996 2.4 11.3996C2.4 9.89961 3.7 8.59961 5.2 8.59961C6.7 8.59961 8 9.79961 8 11.3996C8 12.9996 6.8 14.1996 5.2 14.1996Z" fill="black"/>
<path d="M5.9999 10.8C5.9999 10.4 5.6999 10 5.1999 10C4.6999 10 4.3999 10.4 4.3999 10.8C4.3999 11.1 4.4999 11.3 4.6999 11.4V12.7C4.6999 13 4.8999 13.2 5.1999 13.2C5.4999 13.2 5.6999 13 5.6999 12.7V11.4C5.8999 11.3 5.9999 11.1 5.9999 10.8Z" fill="black"/>
</svg>
