<svg width="24" height="24" viewBox="0 0 24 24" fill="none" xmlns="http://www.w3.org/2000/svg">
<path d="M14.7 0C11.4 0 8.59998 2.5 8.29998 5.7C5.49998 6.2 3.19998 8.8 2.79998 12.1C2.69998 12.7 3.09998 13.3 3.69998 13.3H15.1C15.7 13.3 16.1 12.7 16 12.1C15.6 9 13.5 6.4 10.9 5.8C11.2 3.9 12.8 2.5 14.8 2.5C17 2.5 18.8 4.3 18.8 6.5V13.8V22.8C18.8 23.5 19.4 24 20 24C20.7 24 21.2 23.4 21.2 22.8V13.8V6.5C21.2 2.9 18.3 0 14.7 0Z" fill="black"/>
<path d="M5.5999 15.1C5.5999 14.8 5.2999 14.5 4.9999 14.5C4.6999 14.5 4.3999 14.8 4.3999 15.1V17C4.3999 17.3 4.6999 17.6 4.9999 17.6C5.2999 17.6 5.5999 17.3 5.5999 17V15.1Z" fill="black"/>
<path d="M8.49971 15.1C8.49971 14.8 8.19971 14.5 7.89971 14.5C7.59971 14.5 7.19971 14.8 7.19971 15.1V17C7.19971 17.3 7.49971 17.6 7.79971 17.6C8.09971 17.6 8.39971 17.3 8.39971 17L8.49971 15.1Z" fill="black"/>
<path d="M13.7001 14.4004C13.3001 14.4004 13.1001 14.7004 13.1001 15.0004V17.0004C13.1001 17.3004 13.4001 17.6004 13.7001 17.6004C14.0001 17.6004 14.3001 17.3004 14.3001 17.0004V15.1004C14.3001 14.7004 14.0001 14.4004 13.7001 14.4004Z" fill="black"/>
<path d="M11.3997 15.1C11.3997 14.8 11.0997 14.5 10.7997 14.5C10.4997 14.5 10.1997 14.8 10.1997 15.1V17C10.1997 17.3 10.4997 17.6 10.7997 17.6C11.0997 17.6 11.3997 17.3 11.3997 17V15.1Z" fill="black"/>
<path d="M6.2001 18.5C5.9001 18.5 5.6001 18.8 5.6001 19.1V21C5.6001 21.3 5.9001 21.6 6.2001 21.6C6.5001 21.6 6.8001 21.3 6.8001 21V19.1C6.8001 18.8 6.5001 18.5 6.2001 18.5Z" fill="black"/>
<path d="M11.9999 18.5C11.6999 18.5 11.3999 18.8 11.3999 19.1V21C11.3999 21.3 11.6999 21.6 11.9999 21.6C12.2999 21.6 12.5999 21.3 12.5999 21V19.1C12.5999 18.8 12.2999 18.5 11.9999 18.5Z" fill="black"/>
<path d="M9.1 18.5C8.8 18.5 8.5 18.8 8.5 19.1V21C8.5 21.3 8.8 21.6 9.1 21.6C9.4 21.6 9.7 21.3 9.7 21V19.1C9.7 18.8 9.4 18.5 9.1 18.5Z" fill="black"/>
</svg>
