<svg width="24" height="24" viewBox="0 0 24 24" fill="none" xmlns="http://www.w3.org/2000/svg">
<g clip-path="url(#clip0)">
<path d="M23.2999 20.9998C20.0999 16.5998 15.4999 13.9998 12.1999 10.6998C11.1999 9.6998 10.8999 8.5998 10.8999 7.4998C10.8999 5.5998 9.99986 4.39981 7.39987 2.1998L4.89987 0.199805C4.69987 -0.00019531 4.39986 -0.00019531 4.19986 0.199805C3.99986 0.399805 3.99986 0.699805 4.19986 0.899805L8.49987 5.1998C8.69987 5.3998 8.79987 5.6998 8.59987 5.8998C8.29987 5.9998 7.99987 5.9998 7.79987 5.7998L3.49987 1.4998C3.29987 1.3998 2.99987 1.3998 2.79987 1.4998C2.59986 1.6998 2.59986 1.9998 2.79987 2.1998L7.09986 6.4998C7.29986 6.6998 7.39986 6.9998 7.19986 7.1998C6.99987 7.3998 6.59986 7.2998 6.49987 7.0998L2.19987 2.8998C1.99987 2.6998 1.69987 2.6998 1.49987 2.8998C1.29987 3.0998 1.29987 3.3998 1.49987 3.5998L5.79987 7.8998C5.99987 7.9998 5.99987 8.2998 5.79987 8.4998C5.59987 8.6998 5.29986 8.6998 5.09986 8.4998L0.899865 4.1998C0.699865 3.9998 0.399865 3.9998 0.199865 4.1998C-0.000134885 4.3998 -0.000134885 4.6998 0.0998651 4.8998L2.19987 7.4998C4.49987 10.1998 5.59986 10.9998 7.49987 10.9998C8.59986 10.9998 9.69987 11.1998 10.6999 12.2998C13.8999 15.5998 16.5999 20.0998 20.9999 23.3998C22.1999 24.2998 22.8999 24.1998 23.4999 23.5998C24.0999 22.9998 24.1999 22.1998 23.2999 20.9998Z" fill="black"/>
<path d="M14.4002 11.3001C15.1002 10.9001 15.9002 10.7001 16.7002 10.7001C18.2002 10.6001 19.5002 10.9001 21.9002 8.60013C22.6002 7.90013 23.1002 7.20013 23.5002 6.30013C24.4002 4.40013 23.8002 2.60013 22.6002 1.30013C21.3002 0.10013 19.5002 -0.49987 17.6002 0.40013C16.8002 0.80013 16.0002 1.40013 15.4002 2.00013C13.1002 4.30013 13.4002 5.70013 13.3002 7.20013C13.3002 8.00013 13.1002 8.90013 12.7002 9.60013C12.8002 9.70013 12.9002 9.80013 13.0002 10.0001C13.4002 10.4001 13.9002 10.9001 14.4002 11.3001Z" fill="black"/>
<path d="M9.50024 12.5996C6.60024 14.9996 3.20024 17.3996 0.700237 20.8996C-0.199763 22.0996 -0.0997633 22.7996 0.500237 23.4996C1.10024 24.0996 1.90024 24.1996 3.10024 23.2996C6.60024 20.6996 9.00024 17.3996 11.4002 14.4996C10.9002 13.9996 10.5002 13.4996 10.0002 12.9996C9.80024 12.8996 9.70024 12.6996 9.50024 12.5996Z" fill="black"/>
</g>
<defs>
<clipPath id="clip0">
<rect width="24" height="24" fill="white"/>
</clipPath>
</defs>
</svg>
