<svg width="24" height="24" viewBox="0 0 24 24" fill="none" xmlns="http://www.w3.org/2000/svg">
<g clip-path="url(#clip0)">
<path d="M17.6002 14.4996L23.6002 9.99961C24.2002 9.59961 23.9002 8.69961 23.2002 8.69961L15.7002 8.59961C15.4002 8.59961 15.1002 8.39961 15.0002 8.09961L12.7002 0.999609C12.5002 0.299609 11.5002 0.299609 11.3002 0.999609L8.90022 8.19961C8.80022 8.49961 8.60022 8.69961 8.20022 8.69961H0.700218C0.000218451 8.69961 -0.299782 9.59961 0.300218 9.99961L6.30022 14.4996C6.60022 14.6996 6.70022 14.9996 6.60022 15.2996L4.30022 22.3996C4.10022 23.0996 4.90022 23.6996 5.40022 23.1996L11.5002 18.7996C11.8002 18.5996 12.1002 18.5996 12.4002 18.7996L18.5002 23.1996C19.1002 23.5996 19.9002 22.9996 19.6002 22.3996L17.3002 15.2996C17.3002 14.9996 17.4002 14.6996 17.6002 14.4996Z" fill="black"/>
</g>
<defs>
<clipPath id="clip0">
<rect width="24" height="24" fill="white"/>
</clipPath>
</defs>
</svg>
