<svg width="24" height="24" viewBox="0 0 24 24" fill="none" xmlns="http://www.w3.org/2000/svg">
<path d="M12 0C5.3 0 0 5.3 0 12C0 18.7 5.3 24 12 24C18.7 24 24 18.7 24 12C24 5.3 18.7 0 12 0ZM17.7 8.8C17.6 9.6 17.5 10.5 17.3 11.5C17.2 12.1 17.1 12.7 17.1 13.3C17 13.7 17 14 16.9 14.4C16.8 14.8 16.8 15.1 16.7 15.5C16.6 16 16.6 16.6 16.5 17.1C16.4 17.8 15.7 18.2 15 17.9C14.9 17.9 14.8 17.8 14.8 17.8C13.3 16.8 12 15.9 10.6 15C10.4 14.9 10.2 14.6 10.4 14.4C10.4 14.2 10.5 13.9 10.8 13.8C11.2 13.4 11.6 13 12 12.6C12.2 12.4 12.5 12.1 12.7 11.9C13.3 11.3 13.9 10.8 14.5 10.2C14.6 10.1 14.6 10.1 14.6 10C14.6 9.9 14.6 9.8 14.4 9.8C14.3 9.8 14.2 9.9 14 9.9C13.5 10.1 13.2 10.5 12.7 10.7C12.3 10.9 12.1 11.2 11.7 11.4C11.3 11.6 10.9 12 10.5 12.2C9.9 12.6 9.4 12.9 8.8 13.3C8.4 13.5 8 13.7 7.5 13.5C6.5 13.4 5.7 13 4.8 12.7C4.7 12.7 4.7 12.6 4.6 12.5C4.5 12.4 4.5 12.3 4.6 12.1C4.4 12 4.5 12 4.6 12C5.6 11.5 6.7 11 7.6 10.5C7.8 10.4 8.1 10.3 8.3 10.1C8.6 10.1 9 9.9 9.2 9.8C9.8 9.6 10.4 9.3 11.1 9.1C11.9 8.7 12.7 8.4 13.5 8.1C14 7.9 14.6 7.7 15.1 7.5C15.6 7.4 16 7.2 16.5 7C16.7 6.9 17.1 6.9 17.5 6.9C17.7 6.9 18 7.1 18 7.5C17.8 8 17.8 8.5 17.7 8.8Z" fill="black"/>
</svg>
