<svg width="24" height="24" viewBox="0 0 24 24" fill="none" xmlns="http://www.w3.org/2000/svg">
<path d="M21.4 10.3H23C23.5 10.3 23.9 9.9 23.9 9.4V5.7C23.9 4.4 23 3.5 21.7 3.5H2.2C0.9 3.5 0 4.4 0 5.7V9.5C0 9.9 0.4 10.4 0.9 10.4H2.4C3.3 10.4 4 11 4.2 11.9C4.4 12.8 3.8 13.7 2.8 13.9C2.7 13.9 2.6 13.9 2.5 13.9H0.9C0.4 13.9 0 14.3 0 14.8V18.6C0 19.8 0.9 20.7 2.2 20.7H21.8C23 20.7 24 19.8 24 18.5V14.7C24 14.2 23.6 13.8 23.1 13.8H21.4C20.5 13.8 19.7 13 19.7 12.1C19.7 12 19.7 11.9 19.7 11.8C19.8 10.9 20.6 10.3 21.4 10.3ZM11.2 12.9H8.5C8 12.9 7.6 12.6 7.6 12C7.6 11.5 7.9 11.1 8.5 11.1H11.2C11.7 11.1 12.1 11.4 12.1 12C12 12.5 11.6 12.9 11.2 12.9ZM15.5 9.4H8.6C8.1 9.4 7.8 9 7.8 8.5C7.8 8 8.1 7.6 8.7 7.6H15.5C16 7.6 16.4 7.9 16.4 8.5C16.4 9.1 16 9.4 15.5 9.4Z" fill="black"/>
</svg>
