<svg width="24" height="24" viewBox="0 0 24 24" fill="none" xmlns="http://www.w3.org/2000/svg">
<g clip-path="url(#clip0)">
<path d="M5.1 6.9C5.1 3.1 8.2 0 12 0C15.8 0 18.9 3.1 18.9 6.9C18.9 10.7 15.8 13.8 12 13.8C8.2 13.8 5.1 10.6 5.1 6.9ZM21.9 17L12.7 15.6C12.3 15.5 11.8 15.5 11.4 15.6L2.1 17C0.9 17.1 0 18.2 0 19.5V21.5C0 22.9 1.1 24 2.6 24H21.5C23 24 24.1 22.9 24.1 21.4V19.4C24 18.2 23.1 17.1 21.9 17Z" fill="black"/>
</g>
<defs>
<clipPath id="clip0">
<rect width="24" height="24" fill="white"/>
</clipPath>
</defs>
</svg>
