<svg width="24" height="24" viewBox="0 0 24 24" fill="none" xmlns="http://www.w3.org/2000/svg">
<path d="M14 8.40039C14 9.20039 14 10.1004 14 10.9004C14 11.1004 14 11.3004 14.1 11.4004C14.2 11.7004 14.4 11.7004 14.6 11.6004C14.8 11.5004 15 11.4004 15.1 11.3004C15.7 10.8004 16.2 10.1004 16.7 9.50039C17.6 8.20039 18.3 6.90039 18.9 5.50039C19 5.30039 19.3 5.00039 19.8 4.90039C19.9 4.90039 19.9 4.90039 20 4.90039C20.9 4.90039 21.8 4.90039 22.8 4.90039C22.9 4.90039 23 4.90039 23 4.90039C23.4 5.00039 23.6 5.20039 23.5 5.70039C23.4 6.10039 23.2 6.60039 23 7.00039C22.4 8.20039 21.7 9.30039 20.9 10.4004C20.6 10.9004 20.3 11.3004 19.9 11.8004C19.8 11.9004 19.8 12.0004 19.7 12.1004C19.5 12.4004 19.6 12.6004 19.7 12.9004C19.8 13.0004 19.9 13.2004 20 13.3004C20.9 14.2004 21.8 15.2004 22.6 16.2004C23 16.7004 23.4 17.2004 23.7 17.8004C23.8 18.0004 23.8 18.1004 23.8 18.3004C23.9 18.7004 23.7 19.0004 23.3 19.1004C23.1 19.1004 23 19.2004 22.8 19.2004C22 19.2004 21.1 19.2004 20.3 19.2004C19.8 19.2004 19.4 19.0004 19.1 18.7004C18.7 18.3004 18.3 17.8004 17.9 17.4004C17.3 16.7004 16.6 16.1004 15.8 15.5004C15.5 15.3004 15.1 15.0004 14.7 15.0004C14.5 15.0004 14.4 15.0004 14.2 15.0004C14 15.0004 13.9 15.1004 13.9 15.3004C13.9 15.5004 13.8 15.6004 13.8 15.8004C13.8 16.6004 13.8 17.4004 13.8 18.2004C13.8 18.3004 13.8 18.4004 13.8 18.5004C13.8 18.8004 13.6 19.1004 13.3 19.1004C13 19.2004 12.7 19.2004 12.4 19.2004C10.6 19.3004 8.9 18.7004 7.4 17.8004C6.1 17.0004 5 15.9004 4.1 14.6004C3.1 12.8004 2 11.1004 1.1 9.20039C0.7 8.20039 0.3 7.30039 0 6.20039C0 6.00039 0 5.80039 0 5.70039C0 5.20039 0.2 5.00039 0.7 4.90039C0.8 4.90039 0.9 4.90039 1 4.90039C1.8 4.90039 2.6 4.90039 3.4 4.90039C3.5 4.90039 3.6 4.90039 3.8 4.90039C4.1 4.90039 4.3 5.10039 4.5 5.40039C4.6 5.60039 4.7 5.80039 4.8 6.00039C5.5 7.80039 6.3 9.60039 7.3 11.2004C7.6 11.7004 8 12.2004 8.4 12.5004C8.5 12.6004 8.7 12.7004 8.8 12.8004C9.1 12.9004 9.4 12.8004 9.4 12.5004C9.4 12.3004 9.5 12.0004 9.5 11.8004C9.5 10.6004 9.5 9.30039 9.5 8.10039C9.5 7.40039 9.3 6.70039 8.8 6.10039C8.7 6.00039 8.7 5.90039 8.6 5.80039C8.4 5.40039 8.6 4.90039 9.1 4.90039C9.2 4.90039 9.2 4.90039 9.3 4.90039C10.6 4.90039 11.9 4.90039 13.2 4.90039H13.3C13.7 4.90039 14 5.10039 14 5.60039C14 5.70039 14 5.90039 14 6.00039C14 6.80039 14 7.60039 14 8.40039Z" fill="black"/>
</svg>
