<svg width="24" height="24" viewBox="0 0 24 24" fill="none" xmlns="http://www.w3.org/2000/svg">
<path d="M20.4 3.5C18.2 1.2 15.2 0 12 0C5.4 0 0.1 5.4 0.1 11.9C0.1 14.1 0.7 16.1 1.7 17.9L0 24L6.2 22.3C8 23.3 9.9 23.7 11.8 23.7C18.4 23.7 23.7 18.3 23.7 11.8C24 8.8 22.7 5.8 20.4 3.5ZM17.9 16.2C17.7 16.9 16.5 17.5 15.9 17.6C15.4 17.7 14.7 17.7 14 17.5C13.5 17.4 13 17.1 12.3 16.9C9.3 15.6 7.4 12.6 7.3 12.5C7.1 12.2 6 10.9 6 9.4C6 8 6.8 7.2 7.1 6.9C7.3 6.7 7.7 6.5 7.9 6.5C8.1 6.5 8.3 6.5 8.5 6.5C8.7 6.5 9 6.4 9.2 7C9.4 7.6 10 9 10.2 9.2C10.3 9.3 10.3 9.6 10.2 9.7C10.1 9.9 10.1 10.1 10 10.2C9.9 10.3 9.6 10.6 9.5 10.7C9.4 10.8 9.3 11.1 9.4 11.3C9.6 11.5 10.1 12.6 11.1 13.3C12.2 14.3 13.1 14.6 13.5 14.7C13.7 14.8 14 14.8 14.1 14.6C14.2 14.4 14.8 13.8 15.1 13.4C15.3 13.2 15.5 13.2 15.8 13.3C16 13.4 17.5 14.1 17.8 14.3C18 14.4 18.3 14.5 18.4 14.7C18.1 14.9 18.1 15.5 17.9 16.2Z" fill="black"/>
</svg>
