<svg width="24" height="24" viewBox="0 0 24 24" fill="none" xmlns="http://www.w3.org/2000/svg">
<g clip-path="url(#clip0)">
<path d="M23.5001 8.0998C22.9001 7.5998 22.3001 6.9998 21.7001 6.4998C20.6001 5.6998 19.5001 4.9998 18.2001 4.4998C16.2001 3.6998 14.2001 3.2998 12.0001 3.2998C12.0001 3.2998 10.4001 3.3998 9.60015 3.4998C7.40015 3.7998 5.40015 4.4998 3.50015 5.6998C2.40015 6.3998 1.30015 7.1998 0.400146 8.0998C0.300146 8.2998 0.100146 8.4998 0.000146218 8.7998C-0.199854 9.3998 0.100146 9.9998 0.600146 10.2998C1.10015 10.5998 1.80015 10.4998 2.20015 10.0998C3.40015 8.89981 4.80015 7.9998 6.30015 7.2998C8.00015 6.3998 9.70015 6.0998 11.5001 5.9998C12.9001 5.9998 14.3001 6.0998 15.7001 6.4998C17.5001 6.9998 19.2001 7.89981 20.7001 9.0998C21.1001 9.39981 21.4001 9.7998 21.8001 10.0998C22.4001 10.5998 23.3001 10.4998 23.8001 9.7998C24.1001 9.1998 24.1001 8.4998 23.5001 8.0998Z" fill="black"/>
<path d="M19.1002 9.9998C18.2002 9.3998 17.2002 8.8998 16.1002 8.4998C14.8002 8.0998 13.5002 7.7998 12.2002 7.7998C11.3002 7.7998 10.5002 7.8998 9.6002 7.9998C8.1002 8.2998 6.7002 8.8998 5.5002 9.6998C4.7002 10.1998 3.9002 10.7998 3.2002 11.4998C2.7002 11.9998 2.7002 12.8998 3.2002 13.3998C3.7002 13.8998 4.5002 13.8998 5.0002 13.3998C5.3002 13.0998 5.5002 12.8998 5.8002 12.6998C7.6002 11.2998 9.6002 10.5998 11.8002 10.4998C13.6002 10.4998 15.3002 10.8998 16.9002 11.7998C17.7002 12.1998 18.3002 12.7998 18.9002 13.3998C19.3002 13.7998 19.7002 13.8998 20.2002 13.6998C21.2002 13.3998 21.5002 12.1998 20.8002 11.4998C20.3002 10.8998 19.7002 10.4998 19.1002 9.9998Z" fill="black"/>
<path d="M17.5002 14.3994C15.9002 12.9994 14.0002 12.3994 12.3002 12.3994C10.7002 12.3994 9.60017 12.6994 8.50017 13.1994C7.60017 13.5994 6.80017 14.1994 6.10017 14.8994C5.60017 15.3994 5.60017 16.2994 6.20017 16.7994C6.70017 17.2994 7.50017 17.1994 8.00017 16.6994C8.70017 15.9994 9.50017 15.4994 10.4002 15.2994C12.0002 14.7994 13.5002 14.9994 14.9002 15.7994C15.4002 16.0994 15.9002 16.4994 16.3002 16.7994C16.8002 17.1994 17.5002 17.1994 18.0002 16.7994C18.5002 16.2994 18.6002 15.5994 18.2002 15.0994C18.0002 14.7994 17.7002 14.5994 17.5002 14.3994Z" fill="black"/>
<path d="M11.4001 17.0002C10.5001 17.1002 9.8001 17.5002 9.2001 18.1002C8.9001 18.4002 8.9001 18.7002 9.2001 18.9002C9.4001 19.1002 9.6001 19.3002 9.9001 19.6002C10.5001 20.2002 11.0001 20.7002 11.6001 21.3002C11.8001 21.5002 12.2001 21.5002 12.4001 21.3002C13.2001 20.5002 14.0001 19.7002 14.8001 18.9002C14.9001 18.8002 14.9001 18.7002 15.0001 18.5002C15.0001 18.3002 14.9001 18.1002 14.7001 18.0002C13.7001 17.2002 12.7001 16.8002 11.4001 17.0002Z" fill="black"/>
</g>
<defs>
<clipPath id="clip0">
<rect width="24" height="24" fill="white"/>
</clipPath>
</defs>
</svg>
