<svg width="24" height="24" viewBox="0 0 24 24" fill="none" xmlns="http://www.w3.org/2000/svg">
<path d="M7.7998 2.2998C7.7998 2.2998 3.7998 14.4998 2.2998 16.7998C5.1998 15.6998 10.0998 15.0998 10.0998 15.0998C10.0998 15.0998 9.6998 4.7998 7.7998 2.2998Z" fill="black"/>
<path d="M20.4 14.8998C19.8 9.5998 17.5 2.0998 9 0.799805C9 0.799805 11.3 4.3998 11.7 14.8998C14.9 14.6998 17.5 14.4998 20.4 14.8998Z" fill="black"/>
<path d="M0 19.7996C0 20.1996 0.1 20.5996 0.2 20.8996C1.1 20.8996 1 21.5996 1.1 22.2996C1.2 22.6996 1.6 22.9996 2 22.9996C10.2 23.6996 15.2 19.8996 20.3 21.7996C20.7 19.8996 23.2 16.9996 23.9 16.0996C6.5 16.7996 0 19.7996 0 19.7996Z" fill="black"/>
</svg>
