<svg width="24" height="24" viewBox="0 0 24 24" fill="none" xmlns="http://www.w3.org/2000/svg">
<path d="M11.4 4.90039C11.4 2.40039 10 0.400391 8.2 0.400391C6.4 0.400391 5 2.40039 5 4.90039C5 7.40039 6.4 9.40039 8.2 9.40039C10 9.50039 11.4 7.50039 11.4 4.90039Z" fill="black"/>
<path d="M19.0001 4.90039C19.0001 2.40039 17.6001 0.400391 15.8001 0.400391C14.0001 0.400391 12.6001 2.40039 12.6001 4.90039C12.6001 7.40039 14.0001 9.40039 15.8001 9.40039C17.6001 9.50039 19.0001 7.50039 19.0001 4.90039Z" fill="black"/>
<path d="M0.500093 12.2C1.20009 13.7 2.40009 14.6 3.60009 14.6C3.90009 14.6 4.20009 14.5 4.50009 14.4C5.90009 13.8 6.30009 11.8 5.40009 10C4.70009 8.5 3.50009 7.5 2.30009 7.5C2.00009 7.5 1.70009 7.6 1.40009 7.7C9.32217e-05 8.4 -0.399907 10.3 0.500093 12.2Z" fill="black"/>
<path d="M3.2998 20.1998C3.2998 22.1998 4.7998 23.5998 7.0998 23.5998H7.1998C7.9998 23.5998 8.5998 23.5998 9.8998 22.8998C9.8998 22.8998 10.8998 22.2998 11.8998 22.3998H11.9998C12.9998 22.2998 13.9998 22.8998 13.9998 22.8998C15.2998 23.5998 15.8998 23.5998 16.6998 23.5998C18.9998 23.5998 20.4998 22.2998 20.4998 20.1998C20.4998 19.0998 19.8998 18.0998 18.9998 16.5998C18.8998 16.3998 17.0998 13.4998 15.4998 11.9998C14.1998 10.7998 12.0998 10.7998 11.8998 10.7998C11.6998 10.7998 9.5998 10.7998 8.2998 11.9998C6.6998 13.3998 4.9998 16.2998 4.7998 16.5998C3.8998 18.0998 3.2998 19.0998 3.2998 20.1998Z" fill="black"/>
<path d="M23.5002 12.1996C24.4002 10.2996 24.0002 8.39961 22.6002 7.79961C22.3002 7.69961 22.0002 7.59961 21.7002 7.59961C20.5002 7.59961 19.3002 8.49961 18.6002 9.99961C17.7002 11.8996 18.1002 13.7996 19.5002 14.3996C19.8002 14.4996 20.1002 14.5996 20.4002 14.5996C21.6002 14.5996 22.9002 13.5996 23.5002 12.1996Z" fill="black"/>
</svg>
