<svg width="70" height="24" viewBox="0 0 70 24" fill="none" xmlns="http://www.w3.org/2000/svg">
  <path d="M36.4696 4.76011C36.4696 4.84011 36.4696 4.91011 36.4596 4.97011C36.4396 5.11011 36.4196 5.25011 36.3696 5.38011C36.3396 5.45011 36.3096 5.52011 36.2796 5.59011C36.2496 5.65011 36.2096 5.71011 36.1796 5.76011C36.1496 5.80011 36.1196 5.85011 36.0896 5.89011C36.0296 5.97011 35.9596 6.04011 35.8896 6.10011C35.8296 6.15011 35.7796 6.19011 35.7196 6.24011C35.5896 6.33011 35.4596 6.40011 35.3096 6.46011C35.0896 6.55011 34.8496 6.58011 34.6196 6.57011C34.4996 6.57011 34.3796 6.55011 34.2596 6.53011C34.1596 6.51011 34.0496 6.48011 33.9596 6.43011C33.8896 6.40011 33.8296 6.37011 33.7696 6.33011C33.6996 6.29011 33.6396 6.25011 33.5696 6.20011C33.4996 6.15011 33.4296 6.09011 33.3696 6.02011C33.3396 5.99011 33.3096 5.95011 33.2696 5.92011C33.2396 5.88011 33.1996 5.84011 33.1696 5.79011C33.1396 5.74011 33.1096 5.69011 33.0696 5.64011C33.0296 5.57011 32.9996 5.49011 32.9696 5.42011C32.9196 5.30011 32.8996 5.17011 32.8696 5.04011C32.8396 4.90011 32.8496 4.76011 32.8596 4.62011C32.8696 4.48011 32.8996 4.35011 32.9496 4.22011C32.9796 4.14011 33.0096 4.07011 33.0496 3.99011C33.0796 3.94011 33.1096 3.88011 33.1396 3.83011C33.1696 3.78011 33.1996 3.74011 33.2396 3.70011C33.2696 3.66011 33.2996 3.62011 33.3396 3.59011C33.3996 3.53011 33.4696 3.47011 33.5296 3.42011C33.5896 3.37011 33.6596 3.33011 33.7196 3.29011C33.8696 3.20011 34.0396 3.13011 34.2096 3.09011C34.3996 3.04011 34.5896 3.03011 34.7796 3.04011C34.9496 3.05011 35.1196 3.08011 35.2796 3.14011C35.3396 3.16011 35.3996 3.19011 35.4596 3.22011C35.5296 3.26011 35.5996 3.30011 35.6596 3.34011C35.7296 3.38011 35.7896 3.43011 35.8496 3.49011C35.9196 3.55011 35.9896 3.62011 36.0496 3.69011C36.0796 3.73011 36.1196 3.78011 36.1496 3.82011C36.1796 3.87011 36.2096 3.93011 36.2496 3.98011C36.2896 4.05011 36.3196 4.12011 36.3496 4.19011C36.4096 4.32011 36.4296 4.45011 36.4496 4.59011C36.4496 4.64011 36.4596 4.71011 36.4696 4.76011ZM34.9596 6.09011C34.9696 6.09011 34.9696 6.10011 34.9596 6.09011C35.0396 6.08011 35.1196 6.07011 35.1896 6.04011C35.2396 6.03011 35.2696 6.00011 35.2996 5.96011C35.3196 5.93011 35.3496 5.91011 35.3796 5.89011C35.3996 5.87011 35.4196 5.86011 35.4096 5.83011C35.3996 5.77011 35.4296 5.73011 35.4696 5.69011C35.5096 5.65011 35.5396 5.61011 35.5696 5.57011C35.5796 5.55011 35.5896 5.52011 35.5796 5.50011C35.5796 5.47011 35.5696 5.43011 35.5596 5.40011C35.5596 5.39011 35.5596 5.38011 35.5596 5.37011C35.5696 5.35011 35.5796 5.32011 35.5996 5.30011C35.6196 5.27011 35.6496 5.24011 35.6696 5.20011C35.6996 5.16011 35.7296 5.13011 35.7496 5.09011C35.7696 5.06011 35.7996 5.02011 35.8096 4.98011C35.8196 4.96011 35.8196 4.95011 35.7896 4.96011C35.7696 4.96011 35.7496 4.97011 35.7296 4.97011C35.7196 4.97011 35.6996 4.97011 35.6896 4.96011C35.6496 4.90011 35.5996 4.83011 35.5596 4.77011C35.5296 4.73011 35.5196 4.69011 35.4996 4.65011C35.4796 4.60011 35.4596 4.55011 35.4396 4.50011C35.3996 4.42011 35.3396 4.38011 35.2596 4.36011C35.2196 4.35011 35.1796 4.34011 35.1396 4.33011C35.0996 4.32011 35.0696 4.31011 35.0396 4.33011H35.0296C34.9696 4.34011 34.9096 4.33011 34.8496 4.32011C34.8196 4.31011 34.8096 4.29011 34.7996 4.27011C34.7896 4.25011 34.7796 4.22011 34.7796 4.20011C34.7696 4.17011 34.7696 4.17011 34.7396 4.17011C34.7096 4.17011 34.6896 4.17011 34.6596 4.17011C34.6196 4.16011 34.5896 4.16011 34.5596 4.17011C34.5496 4.18011 34.5296 4.18011 34.5196 4.18011C34.4696 4.20011 34.4096 4.22011 34.3596 4.22011C34.3396 4.22011 34.3096 4.23011 34.2996 4.24011C34.2696 4.27011 34.2396 4.31011 34.2296 4.35011C34.2296 4.35011 34.2296 4.36011 34.2196 4.36011C34.1896 4.38011 34.1696 4.41011 34.1396 4.43011C34.1296 4.44011 34.1096 4.45011 34.0996 4.46011C34.0396 4.50011 34.0196 4.56011 34.0096 4.63011C34.0096 4.67011 33.9996 4.72011 33.9996 4.77011C33.9996 4.79011 34.0096 4.80011 34.0096 4.82011C34.0196 4.83011 34.0296 4.85011 34.0296 4.86011C34.0496 4.90011 34.0696 4.93011 34.0996 4.96011C34.1396 5.01011 34.1896 5.05011 34.2496 5.09011C34.2796 5.11011 34.3096 5.12011 34.3496 5.11011C34.4096 5.09011 34.4796 5.07011 34.5396 5.04011C34.5696 5.03011 34.5796 5.03011 34.5896 5.06011C34.5996 5.08011 34.6196 5.10011 34.6496 5.09011C34.6696 5.08011 34.6896 5.08011 34.7096 5.07011C34.7296 5.06011 34.7396 5.07011 34.7396 5.09011C34.7496 5.13011 34.7496 5.18011 34.7596 5.22011C34.7596 5.25011 34.7696 5.27011 34.7996 5.29011C34.8196 5.31011 34.8396 5.33011 34.8496 5.36011C34.8596 5.40011 34.8696 5.45011 34.8796 5.49011C34.8796 5.50011 34.8796 5.51011 34.8796 5.52011C34.8696 5.56011 34.8496 5.59011 34.8396 5.63011C34.8296 5.67011 34.8296 5.71011 34.8596 5.75011C34.8796 5.78011 34.8996 5.80011 34.9096 5.84011V5.85011C34.9396 5.91011 34.9496 5.97011 34.9496 6.03011C34.9596 6.06011 34.9596 6.08011 34.9596 6.09011ZM34.2596 4.14011C34.3096 4.15011 34.3596 4.16011 34.3996 4.16011C34.4196 4.16011 34.4396 4.15011 34.4596 4.13011C34.4796 4.10011 34.5096 4.07011 34.5296 4.04011C34.5596 4.03011 34.5796 4.01011 34.5996 4.00011C34.6096 3.99011 34.6196 3.99011 34.6296 3.98011C34.6596 3.96011 34.6896 3.95011 34.7196 3.95011C34.7596 3.94011 34.7896 3.96011 34.8196 3.99011C34.8296 4.00011 34.8496 4.01011 34.8596 4.02011C34.8696 4.03011 34.8796 4.03011 34.8796 4.05011C34.8796 4.06011 34.8796 4.07011 34.8896 4.07011C34.9096 4.08011 34.9396 4.08011 34.9696 4.07011C34.9396 4.04011 34.9196 4.02011 34.8996 3.99011C34.8896 3.98011 34.8696 3.96011 34.8596 3.95011C34.8496 3.94011 34.8496 3.92011 34.8596 3.91011C34.8696 3.91011 34.8696 3.91011 34.8796 3.92011C34.9196 3.94011 34.9496 3.96011 34.9896 3.98011C35.0196 4.00011 35.0396 4.02011 35.0496 4.05011C35.0596 4.07011 35.0696 4.09011 35.0796 4.10011C35.0796 4.11011 35.0896 4.11011 35.0996 4.12011C35.0996 4.10011 35.0996 4.09011 35.0996 4.07011C35.1396 4.06011 35.1796 4.06011 35.2196 4.05011C35.2596 4.04011 35.2696 4.03011 35.2696 3.99011C35.2696 3.97011 35.2796 3.95011 35.2996 3.94011C35.3396 3.91011 35.3896 3.89011 35.4396 3.87011C35.4596 3.87011 35.4796 3.87011 35.4996 3.87011C35.4996 3.87011 35.4996 3.87011 35.4996 3.88011C35.4896 3.90011 35.4596 3.91011 35.4596 3.93011C35.4796 3.93011 35.4896 3.94011 35.4996 3.94011C35.5096 3.95011 35.5296 3.95011 35.5396 3.96011C35.5696 3.98011 35.5796 3.99011 35.5696 4.02011C35.5196 4.02011 35.4796 4.02011 35.4296 4.02011C35.3796 4.01011 35.3296 4.02011 35.2896 4.06011C35.2896 4.06011 35.2896 4.06011 35.2796 4.06011C35.2596 4.07011 35.2496 4.09011 35.2596 4.11011C35.2596 4.12011 35.2696 4.13011 35.2796 4.14011C35.2996 4.17011 35.3196 4.20011 35.3396 4.22011C35.3696 4.25011 35.3696 4.25011 35.3996 4.23011C35.4096 4.22011 35.4196 4.22011 35.4296 4.21011C35.4296 4.21011 35.4396 4.21011 35.4396 4.20011C35.4396 4.24011 35.4496 4.28011 35.4496 4.32011C35.4496 4.33011 35.4396 4.33011 35.4396 4.33011C35.4296 4.33011 35.4196 4.33011 35.4096 4.34011C35.4396 4.38011 35.4596 4.41011 35.4796 4.44011C35.5296 4.52011 35.5896 4.60011 35.6396 4.68011C35.6596 4.71011 35.6796 4.75011 35.6896 4.79011C35.6996 4.82011 35.7096 4.82011 35.7396 4.82011C35.7496 4.82011 35.7696 4.82011 35.7796 4.81011C35.8296 4.79011 35.8896 4.77011 35.9296 4.73011C35.9396 4.72011 35.9496 4.71011 35.9696 4.70011C35.9896 4.69011 35.9996 4.67011 36.0196 4.66011C36.0296 4.65011 36.0296 4.64011 36.0196 4.62011C36.0096 4.63011 35.9996 4.61011 35.9896 4.59011C35.9796 4.57011 35.9696 4.57011 35.9496 4.56011C35.9396 4.56011 35.9296 4.56011 35.9196 4.56011C35.8996 4.56011 35.8796 4.55011 35.8696 4.53011C35.8496 4.50011 35.8396 4.47011 35.8196 4.45011C35.8196 4.45011 35.8196 4.44011 35.8196 4.43011C35.8296 4.43011 35.8396 4.44011 35.8396 4.44011C35.8596 4.45011 35.8796 4.47011 35.8996 4.48011C35.9196 4.49011 35.9496 4.51011 35.9796 4.52011C36.0296 4.54011 36.0796 4.56011 36.1196 4.59011C36.1296 4.60011 36.1396 4.61011 36.1596 4.62011C36.1996 4.65011 36.2196 4.68011 36.2396 4.72011C36.2596 4.76011 36.2696 4.80011 36.2896 4.84011C36.2896 4.85011 36.2996 4.85011 36.2996 4.87011C36.2996 4.86011 36.2996 4.85011 36.2996 4.85011C36.2996 4.77011 36.2996 4.69011 36.2896 4.61011C36.2796 4.52011 36.2696 4.44011 36.2396 4.35011C36.2096 4.27011 36.1896 4.18011 36.1396 4.10011C36.1096 4.04011 36.0796 3.97011 36.0296 3.91011C35.9996 3.87011 35.9696 3.83011 35.9396 3.78011C35.8796 3.70011 35.8096 3.63011 35.7396 3.57011C35.6896 3.52011 35.6296 3.48011 35.5696 3.44011C35.5396 3.42011 35.4996 3.40011 35.4596 3.43011C35.4396 3.44011 35.4196 3.44011 35.3996 3.42011C35.3796 3.40011 35.3696 3.39011 35.3596 3.37011C35.3196 3.33011 35.2696 3.32011 35.2196 3.33011C35.1496 3.34011 35.0796 3.34011 35.0096 3.33011C34.9796 3.32011 34.9496 3.33011 34.9196 3.33011C34.8896 3.34011 34.8496 3.35011 34.8196 3.36011C34.7896 3.37011 34.7496 3.38011 34.7196 3.40011C34.6896 3.42011 34.6596 3.44011 34.6496 3.48011C34.6496 3.50011 34.6496 3.50011 34.6696 3.50011C34.6896 3.50011 34.6996 3.50011 34.7196 3.50011C34.7596 3.50011 34.7596 3.50011 34.7696 3.54011C34.7796 3.58011 34.8096 3.60011 34.8496 3.60011C34.8696 3.60011 34.8896 3.60011 34.8996 3.58011C34.9096 3.56011 34.9296 3.54011 34.9396 3.52011C34.9396 3.51011 34.9496 3.51011 34.9596 3.50011C34.9796 3.54011 34.9996 3.57011 34.9996 3.60011C34.9996 3.62011 34.9896 3.64011 34.9696 3.65011C34.9596 3.66011 34.9396 3.66011 34.9296 3.67011C34.9096 3.68011 34.8896 3.68011 34.8696 3.66011C34.8496 3.64011 34.8296 3.63011 34.8096 3.61011C34.7896 3.60011 34.7796 3.58011 34.7596 3.59011C34.7296 3.61011 34.6996 3.62011 34.6796 3.64011C34.6296 3.69011 34.5696 3.72011 34.5096 3.74011C34.4696 3.75011 34.4496 3.79011 34.4696 3.83011C34.4696 3.83011 34.4696 3.85011 34.4696 3.86011C34.4496 3.89011 34.4196 3.91011 34.3896 3.92011C34.3496 3.93011 34.3196 3.93011 34.2796 3.94011C34.2596 4.01011 34.2596 4.07011 34.2596 4.14011ZM33.0396 5.15011C33.0396 5.17011 33.0496 5.19011 33.0496 5.21011C33.0796 5.30011 33.0996 5.39011 33.1496 5.48011C33.1796 5.54011 33.2096 5.60011 33.2496 5.65011C33.2796 5.70011 33.3196 5.75011 33.3496 5.79011C33.3996 5.85011 33.4496 5.90011 33.4996 5.96011C33.5196 5.98011 33.5396 5.98011 33.5596 5.98011C33.5796 5.97011 33.5996 5.96011 33.6296 5.95011C33.6296 5.95011 33.6396 5.94011 33.6396 5.93011C33.6396 5.92011 33.6396 5.91011 33.6296 5.91011C33.6096 5.88011 33.6196 5.85011 33.6196 5.82011C33.6296 5.80011 33.6396 5.77011 33.6496 5.75011C33.6596 5.73011 33.6596 5.70011 33.6696 5.68011C33.6696 5.65011 33.6596 5.63011 33.6396 5.62011C33.6196 5.61011 33.5996 5.60011 33.5796 5.58011C33.5696 5.57011 33.5496 5.56011 33.5296 5.56011C33.4996 5.55011 33.4696 5.53011 33.4396 5.52011C33.3996 5.50011 33.3696 5.47011 33.3596 5.43011C33.3496 5.40011 33.3396 5.38011 33.3196 5.36011C33.2896 5.33011 33.2696 5.31011 33.2396 5.29011C33.1796 5.25011 33.1196 5.21011 33.0596 5.17011C33.0596 5.15011 33.0496 5.15011 33.0396 5.15011ZM33.3296 3.83011C33.3296 3.83011 33.3196 3.83011 33.3296 3.83011C33.3196 3.83011 33.3096 3.84011 33.2996 3.85011C33.2696 3.89011 33.2496 3.92011 33.2196 3.96011C33.1896 4.02011 33.1596 4.07011 33.1296 4.13011C33.0896 4.22011 33.0596 4.31011 33.0296 4.41011C33.0196 4.50011 33.0096 4.59011 32.9996 4.68011C32.9996 4.70011 32.9996 4.72011 32.9996 4.73011C32.9996 4.73011 32.9996 4.73011 33.0096 4.73011C33.0096 4.72011 33.0096 4.72011 33.0196 4.71011C33.0196 4.69011 33.0296 4.66011 33.0296 4.64011C33.0296 4.54011 33.0596 4.45011 33.1196 4.37011C33.1496 4.32011 33.1796 4.27011 33.2196 4.22011C33.2296 4.21011 33.2396 4.19011 33.2396 4.18011C33.2396 4.18011 33.2396 4.18011 33.2396 4.17011C33.2196 4.17011 33.2096 4.18011 33.1896 4.18011C33.2096 4.15011 33.2296 4.13011 33.2596 4.10011C33.2896 4.08011 33.3196 4.06011 33.3496 4.03011C33.3796 4.01011 33.3796 3.97011 33.3596 3.93011C33.3196 3.91011 33.3096 3.88011 33.3296 3.83011C33.3296 3.83011 33.3296 3.84011 33.3296 3.83011ZM34.0596 3.28011C34.0496 3.28011 34.0496 3.27011 34.0596 3.28011C34.0496 3.28011 34.0496 3.28011 34.0396 3.28011C33.9496 3.32011 33.8596 3.36011 33.7796 3.41011C33.6896 3.47011 33.5996 3.52011 33.5296 3.60011C33.5296 3.61011 33.5196 3.61011 33.5196 3.62011C33.5196 3.62011 33.5296 3.63011 33.5396 3.63011C33.5596 3.63011 33.5696 3.63011 33.5896 3.64011C33.6196 3.65011 33.6496 3.65011 33.6696 3.62011C33.6896 3.60011 33.7096 3.59011 33.7296 3.57011C33.7696 3.53011 33.8096 3.49011 33.8396 3.45011C33.8896 3.39011 33.9496 3.34011 34.0096 3.30011C34.0396 3.30011 34.0496 3.29011 34.0596 3.28011ZM35.8096 5.48011C35.7996 5.48011 35.7996 5.48011 35.8096 5.48011C35.7996 5.49011 35.7896 5.50011 35.7796 5.50011C35.7596 5.53011 35.7396 5.56011 35.7096 5.57011C35.6896 5.58011 35.6696 5.60011 35.6696 5.62011C35.6596 5.65011 35.6496 5.69011 35.6396 5.72011C35.6296 5.74011 35.6296 5.77011 35.6296 5.79011C35.6296 5.82011 35.6496 5.82011 35.6696 5.81011C35.7196 5.78011 35.7596 5.73011 35.7796 5.67011C35.7996 5.62011 35.8096 5.56011 35.8096 5.50011C35.8096 5.50011 35.8096 5.49011 35.8096 5.48011ZM34.3396 3.68011C34.3396 3.70011 34.3396 3.71011 34.3396 3.72011C34.3396 3.73011 34.3496 3.74011 34.3596 3.74011C34.3796 3.74011 34.4096 3.73011 34.4296 3.73011C34.4596 3.72011 34.4896 3.71011 34.5196 3.68011C34.5196 3.68011 34.5196 3.67011 34.5096 3.67011C34.4796 3.63011 34.4496 3.60011 34.4196 3.56011C34.3996 3.54011 34.3896 3.53011 34.3596 3.55011C34.3496 3.56011 34.3396 3.57011 34.3396 3.59011C34.3396 3.61011 34.3396 3.63011 34.3396 3.64011C34.3396 3.65011 34.3396 3.66011 34.3396 3.67011C34.3096 3.67011 34.2796 3.64011 34.2696 3.68011C34.2596 3.70011 34.2596 3.72011 34.2896 3.74011C34.2996 3.71011 34.3196 3.70011 34.3396 3.68011Z" fill="white"/>
  <path d="M2.42969 4.75H5.49969C6.46969 4.75 7.20969 4.84 7.70969 5.03C8.20969 5.22 8.60969 5.59 8.91969 6.15C9.22969 6.71 9.37969 7.62 9.37969 8.87C9.37969 9.72 9.26969 10.3 9.04969 10.64C8.82969 10.98 8.39969 11.23 7.75969 11.41C8.46969 11.61 8.95969 11.93 9.20969 12.39C9.45969 12.85 9.58969 13.55 9.58969 14.49V15.83C9.58969 16.81 9.49969 17.53 9.31969 18C9.13969 18.47 8.83969 18.79 8.43969 18.97C8.03969 19.15 7.21969 19.23 5.97969 19.23H2.42969V4.75ZM5.50969 7.22V10.44C5.63969 10.43 5.73969 10.43 5.81969 10.43C6.11969 10.43 6.31969 10.34 6.39969 10.16C6.47969 9.98 6.51969 9.46 6.51969 8.6C6.51969 8.15 6.48969 7.83 6.41969 7.65C6.34969 7.47 6.25969 7.35 6.14969 7.3C6.03969 7.25 5.82969 7.23 5.50969 7.22ZM5.50969 12.69V16.74C5.93969 16.72 6.21969 16.64 6.33969 16.49C6.45969 16.34 6.51969 15.98 6.51969 15.39V14.04C6.51969 13.42 6.46969 13.05 6.35969 12.91C6.24969 12.78 5.96969 12.71 5.50969 12.69Z" fill="white"/>
  <path d="M17.3191 11.5199V14.4199C17.3191 15.4899 17.2791 16.2699 17.1891 16.7699C17.0991 17.2699 16.9091 17.7299 16.6291 18.1599C16.3391 18.5899 15.9691 18.9099 15.5191 19.1199C15.0691 19.3299 14.5491 19.4299 13.9591 19.4299C13.3091 19.4299 12.7491 19.3399 12.2991 19.1699C11.8491 18.9899 11.4891 18.7299 11.2391 18.3799C10.9891 18.0299 10.8091 17.5999 10.6991 17.0899C10.5891 16.5899 10.5391 15.8299 10.5391 14.8199V11.7799C10.5391 10.6799 10.6391 9.8199 10.8291 9.1999C11.0191 8.5799 11.3791 8.0799 11.8791 7.7099C12.3891 7.3299 13.0391 7.1499 13.8291 7.1499C14.4891 7.1499 15.0591 7.2699 15.5391 7.5099C16.0191 7.7499 16.3791 8.0699 16.6391 8.4499C16.8991 8.8399 17.0791 9.2399 17.1691 9.6499C17.2691 10.0499 17.3191 10.6799 17.3191 11.5199ZM14.3591 10.6299C14.3591 10.0199 14.3291 9.6399 14.2791 9.4799C14.2291 9.3199 14.1091 9.2399 13.9391 9.2399C13.7691 9.2399 13.6491 9.3199 13.5891 9.4799C13.5291 9.6399 13.4991 10.0199 13.4991 10.6299V15.9799C13.4991 16.5399 13.5291 16.8999 13.5891 17.0699C13.6491 17.2399 13.7591 17.3199 13.9291 17.3199C14.1091 17.3199 14.2191 17.2399 14.2791 17.0899C14.3291 16.9299 14.3591 16.5999 14.3591 16.0899V10.6299Z" fill="white"/>
  <path d="M24.9792 11.5199V14.4199C24.9792 15.4899 24.9392 16.2699 24.8492 16.7699C24.7592 17.2699 24.5692 17.7299 24.2892 18.1599C24.0092 18.5899 23.6292 18.9099 23.1792 19.1199C22.7292 19.3299 22.2092 19.4299 21.6192 19.4299C20.9692 19.4299 20.4092 19.3399 19.9592 19.1699C19.5092 18.9999 19.1492 18.7299 18.8992 18.3799C18.6492 18.0299 18.4692 17.5999 18.3592 17.0899C18.2492 16.5899 18.1992 15.8299 18.1992 14.8199V11.7799C18.1992 10.6799 18.2992 9.8199 18.4892 9.1999C18.6792 8.5799 19.0392 8.0799 19.5392 7.7099C20.0492 7.3299 20.6992 7.1499 21.4892 7.1499C22.1492 7.1499 22.7192 7.2699 23.1992 7.5099C23.6792 7.7499 24.0392 8.0699 24.2992 8.4499C24.5592 8.8399 24.7392 9.2399 24.8292 9.6499C24.9392 10.0499 24.9792 10.6799 24.9792 11.5199ZM22.0292 10.6299C22.0292 10.0199 21.9992 9.6399 21.9492 9.4799C21.8992 9.3199 21.7792 9.2399 21.6092 9.2399C21.4392 9.2399 21.3192 9.3199 21.2592 9.4799C21.1992 9.6399 21.1692 10.0199 21.1692 10.6299V15.9799C21.1692 16.5399 21.1992 16.8999 21.2592 17.0699C21.3192 17.2399 21.4292 17.3199 21.5992 17.3199C21.7792 17.3199 21.8892 17.2399 21.9492 17.0899C22.0092 16.9299 22.0292 16.5999 22.0292 16.0899V10.6299Z" fill="white"/>
  <path d="M32.3307 7.35L31.1307 12.07L32.6907 19.21H29.8507L28.9307 14.04V19.21H25.9707V4.75H28.9307V10.82L29.8507 7.36H32.3307V7.35Z" fill="white"/>
  <path d="M36.1809 7.3501H33.1309V19.2101H36.1809V7.3501Z" fill="white"/>
  <path d="M40.2505 7.34989L40.2005 8.44989C40.4105 8.00989 40.6805 7.68989 40.9905 7.46989C41.3005 7.24989 41.6605 7.13989 42.0605 7.13989C42.5705 7.13989 42.9805 7.28989 43.3105 7.57989C43.6305 7.86989 43.8405 8.23989 43.9305 8.67989C44.0205 9.11989 44.0705 9.85989 44.0705 10.8999V19.2099H41.1105V10.9999C41.1105 10.1799 41.0905 9.68989 41.0405 9.50989C41.0005 9.32989 40.8705 9.23989 40.6705 9.23989C40.4605 9.23989 40.3305 9.33989 40.2705 9.54989C40.2205 9.75989 40.1905 10.2999 40.1905 11.1999V19.2199H37.2305V7.34989H40.2505Z" fill="white"/>
  <path d="M51.81 7.3499V16.4799C51.81 17.7099 51.79 18.5099 51.74 18.8699C51.69 19.2299 51.53 19.6099 51.25 20.0099C50.97 20.4099 50.57 20.7199 50.07 20.9299C49.57 21.1399 48.93 21.2499 48.16 21.2499C47.22 21.2499 46.46 21.0499 45.89 20.6599C45.32 20.2699 45.02 19.4999 45 18.3599H47.87C47.87 18.8799 48.03 19.1499 48.34 19.1499C48.56 19.1499 48.71 19.0699 48.79 18.9099C48.86 18.7499 48.9 18.4099 48.9 17.8999V17.0099C48.65 17.2899 48.38 17.4999 48.1 17.6499C47.82 17.7899 47.52 17.8699 47.22 17.8699C46.69 17.8699 46.25 17.7399 45.91 17.4799C45.57 17.2199 45.33 16.8699 45.2 16.4499C45.07 16.0299 45.01 15.4199 45.01 14.6299V10.3199C45.01 9.1899 45.18 8.3799 45.51 7.8899C45.84 7.3999 46.35 7.1499 47.03 7.1499C47.4 7.1499 47.74 7.2399 48.04 7.4299C48.35 7.6199 48.62 7.8899 48.86 8.2599L49.07 7.3599H51.81V7.3499ZM48.84 10.4999C48.84 9.9599 48.81 9.6099 48.76 9.4599C48.71 9.3099 48.59 9.2399 48.42 9.2399C48.25 9.2399 48.13 9.3199 48.06 9.4899C47.99 9.6599 47.95 9.9899 47.95 10.4899V14.4799C47.95 15.0099 47.98 15.3499 48.03 15.5099C48.08 15.6699 48.2 15.7499 48.37 15.7499C48.56 15.7499 48.69 15.6599 48.75 15.4599C48.81 15.2699 48.84 14.8399 48.84 14.1699V10.4999V10.4999Z" fill="white"/>
  <path d="M52.9492 4.75H55.1292C56.5892 4.75 57.5692 4.82 58.0892 4.96C58.5992 5.09 59.0192 5.44 59.3492 6C59.6792 6.56 59.8392 7.46 59.8392 8.69C59.8392 9.82 59.7192 10.57 59.4992 10.96C59.2692 11.35 58.8192 11.58 58.1392 11.66C58.7492 11.85 59.1592 12.09 59.3692 12.4C59.5792 12.71 59.7092 12.99 59.7592 13.25C59.8092 13.51 59.8392 14.22 59.8392 15.39V19.21H56.9792V14.4C56.9792 13.63 56.9292 13.15 56.8292 12.96C56.7292 12.78 56.4692 12.68 56.0392 12.68V19.2H52.9592V4.75H52.9492ZM56.0292 7.22V10.44C56.3792 10.44 56.6192 10.38 56.7592 10.27C56.8992 10.15 56.9692 9.78 56.9692 9.14V8.34C56.9692 7.88 56.8992 7.58 56.7692 7.44C56.6292 7.29 56.3892 7.22 56.0292 7.22Z" fill="white"/>
  <path d="M67.7109 7.35009V19.2101H64.7009L64.7509 18.2201C64.5409 18.6201 64.2909 18.9201 63.9909 19.1201C63.6909 19.3201 63.3409 19.4201 62.9509 19.4201C62.5109 19.4201 62.1409 19.3201 61.8409 19.1301C61.5409 18.9401 61.3309 18.6901 61.1909 18.3701C61.0509 18.0501 60.9609 17.7301 60.9309 17.3801C60.8909 17.0401 60.8809 16.3601 60.8809 15.3401V7.34009H63.8409V15.4101C63.8409 16.3301 63.8609 16.8801 63.9109 17.0501C63.9609 17.2201 64.0809 17.3101 64.2909 17.3101C64.5109 17.3101 64.6409 17.2201 64.6809 17.0401C64.7209 16.8601 64.7409 16.2901 64.7409 15.3201V7.35009H67.7109Z" fill="white"/>
</svg>
