<svg width="72" height="24" viewBox="0 0 72 24" fill="none" xmlns="http://www.w3.org/2000/svg">
  <path d="M22.0526 3.15865V1.22815H26.6955V3.15865H25.8061V5.36661H28.5296V3.15865H27.684V1.22815H32.343V3.15865H31.5112V9.52153H32.343V11.452H27.684V9.52153H28.5296V7.31357H25.8061V9.52153H26.6955V11.452H22.0526V9.52153H22.8406V3.15865H22.0526Z" fill="white"/>
  <path d="M36.8569 11.6425C36.3407 11.6425 35.8415 11.5618 35.3592 11.4003C34.8768 11.2404 34.449 10.999 34.0757 10.6761C33.704 10.3547 33.4083 9.95027 33.1886 9.46275C32.969 8.97523 32.8591 8.41011 32.8591 7.76739C32.8591 7.15289 32.9713 6.60894 33.1955 6.13552C33.4198 5.66211 33.7163 5.26472 34.0849 4.94336C34.4521 4.622 34.8722 4.37824 35.3453 4.21208C35.8185 4.04591 36.2985 3.96283 36.7854 3.96283C37.3492 3.96283 37.8745 4.05297 38.3615 4.23324C38.8484 4.41351 39.2716 4.67217 39.6311 5.0092C39.989 5.34624 40.2686 5.75616 40.4698 6.23898C40.6695 6.72024 40.7693 7.26811 40.7693 7.88261C40.7693 8.4877 40.6664 9.02147 40.4606 9.48391C40.2563 9.94792 39.9775 10.3406 39.6242 10.662C39.2693 10.9833 38.8561 11.2271 38.3845 11.3932C37.9114 11.5594 37.4022 11.6425 36.8569 11.6425ZM36.8569 9.77078C37.0105 9.77078 37.1464 9.7214 37.2647 9.62264C37.3845 9.52545 37.4874 9.38907 37.5735 9.2135C37.6595 9.03793 37.724 8.83101 37.767 8.59273C37.81 8.35446 37.8315 8.09816 37.8315 7.82383C37.8315 7.55106 37.8077 7.29554 37.7601 7.05727C37.7125 6.81743 37.6457 6.60972 37.5596 6.43415C37.4736 6.26015 37.3661 6.12141 37.2371 6.01795C37.108 5.91606 36.9575 5.86511 36.7854 5.86511C36.6426 5.86511 36.5112 5.91371 36.3914 6.0109C36.2716 6.10809 36.1687 6.24447 36.0827 6.42004C35.9966 6.59561 35.9275 6.80097 35.8753 7.03611C35.8231 7.26968 35.7969 7.51814 35.7969 7.7815C35.7969 8.38503 35.8968 8.86785 36.0965 9.22996C36.2977 9.59051 36.5512 9.77078 36.8569 9.77078Z" fill="white"/>
  <path d="M41.1426 6.04152V4.13924H41.9168V2.79424L44.5528 1.93127V4.13924H45.9145V6.04152H44.5528V8.64452C44.5528 8.71192 44.5505 8.78011 44.5459 8.84909C44.5413 8.91649 44.539 8.98939 44.539 9.06777C44.539 9.26215 44.5651 9.43537 44.6173 9.58743C44.6695 9.73792 44.8009 9.81316 45.0113 9.81316C45.1065 9.81316 45.2479 9.78651 45.4353 9.73321C45.6211 9.67991 45.7809 9.62427 45.9145 9.56626V11.438C45.8101 11.4866 45.6764 11.5281 45.5136 11.5626C45.3508 11.5955 45.1834 11.6222 45.0113 11.6425C44.8393 11.6614 44.6795 11.6786 44.532 11.6943C44.383 11.7084 44.2655 11.7154 44.1795 11.7154C43.6449 11.7154 43.2271 11.6425 42.926 11.4968C42.625 11.3494 42.403 11.1441 42.2601 10.8807C42.1173 10.6173 42.0266 10.296 41.9882 9.91662C41.9498 9.5357 41.926 9.11166 41.9168 8.64452V6.04152H41.1426Z" fill="white"/>
  <path d="M52.4791 9.02306L53.6819 10.4433C53.1473 10.9104 52.5836 11.2396 51.9906 11.4309C51.3992 11.6206 50.731 11.7154 49.986 11.7154C49.5359 11.7154 49.0866 11.6402 48.6381 11.4897C48.1895 11.3376 47.7855 11.1033 47.4261 10.7866C47.0682 10.47 46.7748 10.06 46.5459 9.55682C46.317 9.05519 46.2026 8.45323 46.2026 7.75095C46.2026 7.15683 46.3024 6.62306 46.5021 6.14965C46.7033 5.6778 46.976 5.27571 47.3201 4.94338C47.6642 4.61262 48.0697 4.3618 48.5367 4.19093C49.0052 4.02007 49.5121 3.93463 50.0574 3.93463C50.6489 3.93463 51.1719 4.02242 51.6266 4.19799C52.0797 4.37356 52.4592 4.61732 52.7648 4.92927C53.0705 5.24123 53.3002 5.60883 53.4538 6.03208C53.6059 6.4569 53.6819 6.91777 53.6819 7.4147C53.6819 7.61065 53.6681 7.80347 53.6404 7.99314C53.6112 8.18282 53.5682 8.36075 53.5114 8.52691H48.9952C49.0152 8.6241 49.0467 8.74089 49.0897 8.87727C49.1327 9.01365 49.2064 9.14533 49.3109 9.27231C49.4169 9.39928 49.5605 9.50666 49.7418 9.59445C49.923 9.68223 50.1665 9.72613 50.4722 9.72613C50.5966 9.72613 50.7326 9.72142 50.88 9.71202C51.029 9.70261 51.1896 9.67283 51.3616 9.62266C51.5337 9.57407 51.7149 9.50353 51.9054 9.41104C52.0959 9.31855 52.2871 9.18922 52.4791 9.02306ZM50.1427 5.90981C49.923 5.90981 49.7441 5.9537 49.6058 6.04148C49.4676 6.12927 49.3577 6.23351 49.2763 6.35422C49.1949 6.47649 49.1373 6.60582 49.1035 6.7422C49.0697 6.87858 49.0482 6.99067 49.039 7.07845H51.2026C51.2026 6.94207 51.1888 6.80334 51.1611 6.66225C51.132 6.52117 51.0813 6.39419 51.0091 6.28133C50.9384 6.17003 50.8332 6.07989 50.6934 6.01092C50.5552 5.94351 50.3716 5.90981 50.1427 5.90981Z" fill="white"/>
  <path d="M58.44 9.53567V11.4521H54.2556V9.53567H54.8731V2.36861H54.2694V0.482788H57.5944V9.53567H58.44Z" fill="white"/>
  <path d="M60.6612 11.452H58.8709V8.81847H60.7903C60.7903 9.01442 60.8502 9.17588 60.97 9.30285C61.0898 9.42826 61.2311 9.5278 61.3939 9.60148C61.5552 9.67516 61.7219 9.72611 61.8939 9.75432C62.066 9.78411 62.205 9.799 62.311 9.799C62.4539 9.799 62.5944 9.76765 62.7327 9.70494C62.8709 9.64067 62.94 9.50664 62.94 9.30285C62.94 9.16647 62.8425 9.05674 62.6474 8.97366C62.4508 8.89058 62.2027 8.80984 61.9032 8.73146C61.6021 8.65309 61.2795 8.5606 60.9354 8.454C60.5913 8.34584 60.2687 8.19691 59.9677 8.00723C59.6666 7.81755 59.4177 7.56909 59.2211 7.26184C59.026 6.95459 58.9285 6.56191 58.9285 6.08379C58.9285 5.71384 59.0122 5.39483 59.1796 5.12677C59.3471 4.85871 59.5568 4.63925 59.8087 4.46838C60.0621 4.29751 60.3348 4.17054 60.6267 4.08745C60.9185 4.00437 61.1935 3.96283 61.4515 3.96283C61.9385 3.96283 62.3778 4.07491 62.7695 4.29908C63.1612 4.52325 63.4331 4.79131 63.5852 5.10326L63.7004 4.13918H65.4631V6.77275H63.6013C63.6013 6.61599 63.5583 6.47177 63.4723 6.34009C63.3863 6.20841 63.2734 6.09163 63.1336 5.98973C62.9953 5.88627 62.8402 5.80554 62.6682 5.74754C62.4961 5.68954 62.3195 5.66054 62.1382 5.66054C61.9861 5.66054 61.8548 5.70208 61.7442 5.78516C61.6351 5.86825 61.5806 6.00228 61.5806 6.18725C61.5806 6.35185 61.6804 6.48353 61.8801 6.58229C62.0814 6.67948 62.3325 6.77432 62.6336 6.86681C62.9347 6.95929 63.2619 7.06197 63.6152 7.17484C63.9685 7.28614 64.2957 7.43428 64.5967 7.61925C64.8978 7.80423 65.1482 8.04094 65.3479 8.32938C65.5491 8.61625 65.6497 8.98463 65.6497 9.43453C65.6497 9.7747 65.576 10.0812 65.4285 10.3539C65.2795 10.6283 65.0837 10.8603 64.841 11.0499C64.5967 11.2396 64.3126 11.3831 63.9884 11.4802C63.6628 11.579 63.3279 11.6284 62.9838 11.6284C62.4677 11.6284 62.0161 11.521 61.629 11.3062C61.2419 11.0915 60.9623 10.843 60.7903 10.5609L60.6612 11.452Z" fill="white"/>
  <path d="M31.2889 15.5562H31.2226C31.1956 15.7224 31.1643 15.9027 31.1286 16.097C31.093 16.2914 31.0574 16.4795 31.0218 16.6614C30.9862 16.8417 30.9513 17.007 30.9171 17.1575C30.8815 17.308 30.8545 17.4272 30.836 17.5149L29.4409 23.2053H26.6637L25.1768 17.3692C25.1582 17.3112 25.1355 17.2163 25.1084 17.0846C25.0828 16.953 25.0564 16.804 25.0294 16.6379C25.0023 16.4717 24.9759 16.2961 24.9503 16.1112C24.9232 15.9262 24.9054 15.7412 24.8969 15.5562H24.8435V21.3195H25.6019V23.2053H22V21.3195H22.7178V14.8696H22.0128V12.9814H27.0503L28.392 18.4508L29.6674 12.9814H34.7305V14.8696H33.9999V21.303H34.7305V23.2053H30.5305V21.303H31.2889V15.5562Z" fill="white"/>
  <path d="M37.0949 18.2039L36.5672 16.5062C36.6925 16.4184 36.8516 16.3165 37.0444 16.2005C37.2385 16.083 37.4549 15.9677 37.6935 15.8549C37.9321 15.7436 38.1875 15.6511 38.4598 15.5774C38.7321 15.5053 39.0152 15.4692 39.3091 15.4692C39.6866 15.4692 40.0768 15.5155 40.4799 15.608C40.8816 15.7005 41.2483 15.8611 41.5799 16.09C41.9102 16.3189 42.1825 16.6285 42.3968 17.0188C42.6112 17.4091 42.7183 17.8967 42.7183 18.4814V21.3336H43.4726V23.2053H40.7812L40.4799 22.5469C40.3613 22.7319 40.2292 22.8855 40.0836 23.0078C39.9366 23.1301 39.7856 23.2249 39.6306 23.2923C39.4756 23.3613 39.3226 23.4099 39.1716 23.4381C39.0206 23.4679 38.8905 23.4828 38.7813 23.4828C38.4794 23.4828 38.1815 23.4342 37.8876 23.337C37.5951 23.2398 37.3308 23.0933 37.0949 22.8973C36.8604 22.7029 36.6696 22.4521 36.5227 22.1449C36.3771 21.8376 36.3043 21.4692 36.3043 21.0397C36.3043 20.6306 36.373 20.2606 36.5105 19.9298C36.6494 19.5975 36.8381 19.3146 37.0767 19.081C37.3153 18.8474 37.5944 18.6671 37.9139 18.5402C38.232 18.4132 38.567 18.3497 38.9188 18.3497C39.1035 18.3497 39.2693 18.3716 39.4163 18.4155C39.5632 18.4594 39.6893 18.5104 39.7944 18.5684C39.8982 18.6279 39.9818 18.6867 40.0451 18.7447C40.1085 18.8027 40.1483 18.8419 40.1644 18.8623V18.3497C40.1644 18.0174 40.0512 17.7979 39.8247 17.6913C39.5983 17.5847 39.3131 17.5314 38.9694 17.5314C38.5919 17.5314 38.2462 17.6043 37.9321 17.7501C37.618 17.8959 37.3389 18.0472 37.0949 18.2039ZM39.3597 21.5829C39.5524 21.5829 39.7203 21.5288 39.8632 21.4206C40.006 21.314 40.1065 21.2066 40.1644 21.0985V20.5436C40.1564 20.5232 40.1375 20.491 40.1078 20.4471C40.0782 20.4033 40.0344 20.357 39.9764 20.3084C39.9171 20.2598 39.8436 20.2159 39.756 20.1767C39.6684 20.1391 39.5571 20.1203 39.4223 20.1203C39.1703 20.1203 38.9856 20.1932 38.8683 20.339C38.751 20.4848 38.6924 20.6697 38.6924 20.8939C38.6924 21.0993 38.7557 21.2654 38.8824 21.3924C39.0078 21.5194 39.1669 21.5829 39.3597 21.5829Z" fill="white"/>
  <path d="M48.345 21.2889V23.2053H45.0463V21.2889H45.558V17.7947H45.0575V15.8925H47.2485L47.599 16.8283C47.6765 16.6527 47.7583 16.4874 47.8445 16.3322C47.9295 16.1754 48.0382 16.0359 48.1707 15.9136C48.3019 15.7929 48.4649 15.6981 48.6598 15.6291C48.8535 15.5601 49.1022 15.5256 49.4058 15.5256V18.1592C48.8773 18.1592 48.4712 18.2689 48.1875 18.4884C47.9039 18.7079 47.7621 19.139 47.7621 19.7817V21.2889H48.345Z" fill="white"/>
  <path d="M54.5426 23.2054H51.1662V21.3031H51.6848V14.1525H51.1662V12.2361H54.0869V18.8459L55.5555 17.8371H54.6443V15.9066H58.1874V17.8371H57.2132L56.3528 18.4673L58.0613 21.289H58.6939V23.2054H54.9473V21.289H55.4802L54.5182 19.7088L54.0747 20.0615V21.289H54.5426V23.2054Z" fill="white"/>
  <path d="M65.5045 20.7764L66.5465 22.1966C66.0834 22.6637 65.595 22.9929 65.0813 23.1842C64.569 23.3739 63.9894 23.4687 63.3426 23.4687C62.954 23.4687 62.5654 23.3935 62.1769 23.243C61.7869 23.0909 61.4369 22.8566 61.1269 22.5399C60.8168 22.2232 60.5626 21.8133 60.3643 21.3101C60.1647 20.8085 60.0649 20.2065 60.0649 19.5042C60.0649 18.9101 60.152 18.3764 60.3264 17.9029C60.5007 17.4311 60.7363 17.029 61.033 16.6967C61.3311 16.3659 61.6831 16.1151 62.089 15.9442C62.4949 15.7734 62.9334 15.6879 63.4045 15.6879C63.9182 15.6879 64.372 15.7757 64.7659 15.9513C65.1585 16.1269 65.4872 16.3706 65.752 16.6826C66.0169 16.9945 66.2158 17.3621 66.3489 17.7854C66.4806 18.2102 66.5465 18.6711 66.5465 19.168C66.5465 19.3639 66.5339 19.5568 66.5086 19.7464C66.4846 19.9361 66.4474 20.114 66.3968 20.2802H62.4863C62.5036 20.3774 62.5308 20.4942 62.5681 20.6306C62.6054 20.7669 62.6692 20.8986 62.7597 21.0256C62.8502 21.1526 62.9747 21.26 63.133 21.3477C63.2901 21.4355 63.501 21.4794 63.7658 21.4794C63.8736 21.4794 63.9914 21.4747 64.1191 21.4653C64.2482 21.4559 64.3866 21.4261 64.5344 21.376C64.6834 21.3274 64.8411 21.2568 65.0075 21.1643C65.1725 21.0718 65.3382 20.9425 65.5045 20.7764ZM63.4804 17.6631C63.2901 17.6631 63.135 17.707 63.0153 17.7948C62.8941 17.8826 62.7983 17.9868 62.7278 18.1075C62.6586 18.2298 62.6094 18.3591 62.5801 18.4955C62.5508 18.6319 62.5322 18.744 62.5242 18.8317H64.3986C64.3986 18.6954 64.386 18.5566 64.3607 18.4155C64.3367 18.2745 64.2935 18.1475 64.2309 18.0346C64.1684 17.9233 64.0772 17.8332 63.9575 17.7642C63.8377 17.6968 63.6787 17.6631 63.4804 17.6631Z" fill="white"/>
  <path d="M67.9774 17.7948V15.8925H68.5893V14.5475L70.6729 13.6845V15.8925H71.7493V17.7948H70.6729V20.3978C70.6729 20.4652 70.6711 20.5333 70.6675 20.6023C70.6638 20.6697 70.662 20.7426 70.662 20.821C70.662 21.0154 70.6826 21.1886 70.7239 21.3407C70.7652 21.4912 70.869 21.5664 71.0354 21.5664C71.1106 21.5664 71.2224 21.5397 71.3705 21.4864C71.5174 21.4331 71.6437 21.3775 71.7493 21.3195V23.1912C71.6668 23.2398 71.5611 23.2813 71.4324 23.3158C71.3037 23.3488 71.1714 23.3754 71.0354 23.3958C70.8994 23.4146 70.7731 23.4318 70.6565 23.4475C70.5388 23.4616 70.4459 23.4687 70.3779 23.4687C69.9553 23.4687 69.6251 23.3958 69.3871 23.25C69.1491 23.1026 68.9736 22.8973 68.8607 22.6339C68.7478 22.3706 68.6762 22.0492 68.6458 21.6699C68.6155 21.2889 68.5966 20.8649 68.5893 20.3978V17.7948H67.9774Z" fill="white"/>
  <g clip-path="url(#clip0_3_36)">
    <path d="M1.05621 9.0261C0.346395 9.72701 0.716673 10.1947 1.66579 9.91764C3.91758 9.26052 7.80165 8.34254 9.56959 9.20535C9.56959 9.20535 4.39911 13.3868 5.17843 21.6561C5.27275 22.6594 6.0099 23.4614 6.71972 23.4614C7.42988 23.4614 7.90182 22.6488 7.89964 21.6406C7.89522 19.3619 8.27318 15.1155 10.5383 9.88967C10.5383 9.88967 12.2231 12.1491 12.7294 14.6146C12.9321 15.6009 13.309 15.7391 13.5716 14.7671C13.859 13.6996 13.95 12.2287 13.109 10.6872C13.109 10.6872 16.3258 12.4669 18.4211 14.7607C19.0947 15.4978 19.4952 15.3736 19.2326 14.4021C18.6803 12.3623 17.0518 9.19619 12.2516 8.25413C12.2516 8.25413 14.0998 7.33503 16.3413 7.42601C17.3281 7.46564 17.6525 6.99346 16.7736 6.53336C15.7044 5.97284 13.8779 5.59726 10.9104 6.46805C10.9104 6.46805 9.48051 2.91014 4.86078 3.05587C3.87399 3.08717 3.83108 3.58128 4.71839 4.0225C6.25077 4.78455 8.36832 6.01281 8.78701 7.15238C8.78763 7.15245 4.02625 6.09255 1.05621 9.0261Z" fill="white"/>
  </g>
  <defs>
    <clipPath id="clip0_3_36">
      <rect width="20" height="20.4099" fill="white" transform="translate(0 3.05157)"/>
    </clipPath>
  </defs>
</svg>
