<svg width="69" height="24" viewBox="0 0 69 24" fill="none" xmlns="http://www.w3.org/2000/svg">
<path d="M13.3446 5.81341C13.6908 5.69154 14.0388 5.57421 14.3817 5.44392C14.4313 5.42399 14.4845 5.41467 14.5378 5.41657C14.5912 5.41846 14.6436 5.43154 14.6916 5.45494C15.2102 5.67339 15.7287 5.88536 16.2512 6.09862C16.2739 6.10637 16.2985 6.10637 16.3212 6.09862C17.0083 5.86008 17.6952 5.62024 18.3819 5.3791C18.3903 5.3791 18.3981 5.37132 18.4162 5.3629L15.2802 1.13785C15.3022 1.12812 15.3178 1.12035 15.334 1.11451C15.6937 0.988759 16.0528 0.863652 16.4119 0.735954C16.4277 0.728139 16.4456 0.725561 16.463 0.728591C16.4804 0.731622 16.4963 0.740103 16.5085 0.752808C16.961 1.15384 17.4147 1.55443 17.8698 1.95459C18.2933 2.32926 18.7179 2.70393 19.1435 3.0786C19.6789 3.55049 20.2137 4.02347 20.7478 4.49753C20.7625 4.51268 20.7816 4.52274 20.8023 4.52624C20.8231 4.52974 20.8444 4.52649 20.8632 4.51698C21.842 4.17343 22.8215 3.83052 23.8016 3.48827C24.1271 3.36945 24.4661 3.2915 24.8108 3.25621C24.9643 3.24184 25.1186 3.2401 25.2724 3.25102C25.5317 3.27047 25.7644 3.35733 25.9109 3.59522L25.9653 3.75014C26.0029 4.09694 25.8033 4.32122 25.5628 4.52217C25.3116 4.7314 25.0267 4.89624 24.7201 5.00962C24.0472 5.26048 23.3692 5.49643 22.6918 5.73627C22.2752 5.88449 21.8576 6.03034 21.4388 6.17381C21.4174 6.17947 21.3984 6.19184 21.3845 6.2091C21.3706 6.22636 21.3626 6.24761 21.3617 6.26975C21.2398 6.96593 21.1167 7.66211 20.9922 8.35829C20.9125 8.8062 20.8354 9.25477 20.7556 9.70268C20.6649 10.2213 20.5722 10.7327 20.4808 11.2474C20.4464 11.4418 20.416 11.6363 20.3777 11.8308C20.3752 11.8443 20.3698 11.857 20.3618 11.8682C20.3539 11.8794 20.3436 11.8888 20.3317 11.8956C19.9518 12.0317 19.5707 12.1646 19.1805 12.3007C19.1156 10.5441 19.0586 8.79259 18.997 7.03269C18.9691 7.04047 18.9484 7.04566 18.9283 7.05279C18.2585 7.28658 17.5887 7.52123 16.9189 7.75675C16.8865 7.76929 16.8592 7.79205 16.8411 7.82157C16.5494 8.34014 16.2585 8.86087 15.9686 9.38376C15.9551 9.40897 15.9337 9.42903 15.9076 9.44081C15.5226 9.57693 15.1369 9.71046 14.7512 9.84464L14.7467 9.83168C14.7558 9.77658 14.7668 9.72148 14.772 9.66638C14.848 8.96156 14.9224 8.25652 14.995 7.55126C14.9968 7.51682 14.9854 7.48298 14.9632 7.45662C14.8258 7.31142 14.6851 7.16946 14.5451 7.02686C14.2292 6.70664 13.9137 6.38643 13.5987 6.06621C13.5177 5.98454 13.4341 5.9061 13.3517 5.82572L13.3446 5.81341Z" fill="white"/>
<path d="M10.3719 23.5226H7.70776L8.82658 18.2649H4.0661L2.94664 23.5226H0.299988L2.94664 11.0886H5.59589L4.58338 15.8309H9.34385L10.3564 11.0886H13.0205L10.3719 23.5226Z" fill="white"/>
<path d="M22.5933 18.2999C22.5933 19.1767 22.4274 19.9704 22.0955 20.6808C21.7636 21.3913 21.3254 21.9595 20.7809 22.3856C20.2395 22.8107 19.63 23.141 18.9782 23.3625C18.3236 23.5871 17.6362 23.7012 16.9441 23.7002C15.9139 23.7002 15.0436 23.3834 14.3331 22.7499C13.6227 22.1164 13.2675 21.2372 13.2675 20.1123C13.2577 19.3062 13.4308 18.5084 13.7737 17.7788C14.0806 17.1129 14.5363 16.5266 15.1058 16.0649C15.6515 15.6294 16.2672 15.2899 16.9266 15.0608C17.5721 14.8329 18.2516 14.7159 18.9361 14.7147C19.9668 14.7147 20.8343 15.0314 21.5387 15.6649C22.2431 16.2985 22.5946 17.1768 22.5933 18.2999ZM15.754 19.5964C15.7065 20.1646 15.8279 20.6147 16.1183 20.9466C16.2589 21.109 16.4318 21.2403 16.626 21.3321C16.8202 21.4238 17.0315 21.474 17.2462 21.4794C17.8974 21.5269 18.5163 21.3078 19.1027 20.8221C19.6891 20.3364 20.0178 19.6666 20.0886 18.8127C20.1353 18.2444 20.0169 17.7945 19.7334 17.4631C19.4499 17.1316 19.0709 16.9538 18.5964 16.9296C17.921 16.9063 17.2963 17.1254 16.7225 17.5869C16.1486 18.0484 15.8258 18.7185 15.754 19.597V19.5964Z" fill="white"/>
<path d="M28.9523 12.3137L28.3838 14.9785H31.1711L30.7822 16.8434H27.9948L27.2818 20.1655C27.1634 20.7225 27.2196 21.14 27.4504 21.4178C27.6818 21.6959 28.0156 21.8204 28.4544 21.7906C28.9425 21.7517 29.4248 21.6595 29.8928 21.5157L29.7334 23.3955C29.151 23.5495 28.5566 23.6536 27.9566 23.7067C27.4555 23.7496 26.9508 23.7256 26.456 23.6354C25.988 23.5468 25.6179 23.3661 25.3456 23.0935C25.0734 22.8208 24.8808 22.4509 24.768 21.9837C24.6553 21.5157 24.6821 20.9265 24.8484 20.2161L25.5615 16.8408L23.9805 16.6813L24.3357 14.9759H26.1299L26.9648 12.3111L28.9523 12.3137Z" fill="white"/>
<path d="M39.29 21.071L38.9704 22.9897C38.177 23.4046 37.1053 23.6423 35.7553 23.7028C34.4407 23.7503 33.3956 23.4632 32.6199 22.8413C31.8442 22.2195 31.4801 21.3165 31.5276 20.1324C31.5635 19.256 31.7411 18.4685 32.0604 17.7697C32.3798 17.0709 32.7973 16.5091 33.3128 16.0843C33.818 15.6637 34.3918 15.3333 35.0092 15.1075C35.6308 14.8815 36.2843 14.7554 36.9454 14.7341C37.4257 14.7198 37.906 14.7647 38.3753 14.8676C38.8014 14.9611 39.2095 15.1231 39.5836 15.3473C39.9379 15.5569 40.206 15.8857 40.3401 16.2749C40.4827 16.6781 40.4887 17.1459 40.3582 17.6783C40.2652 18.0737 40.0938 18.4464 39.8542 18.7744C39.6146 19.1025 39.3117 19.3791 38.9633 19.5879C38.253 20.0389 37.4332 20.2876 36.5921 20.3074C35.5027 20.3671 34.6263 20.1836 33.963 19.7571C33.8333 20.4559 33.9902 20.9649 34.4336 21.2843C34.8769 21.6037 35.5135 21.7517 36.3432 21.7283C37.2896 21.7283 38.2718 21.5092 39.29 21.071ZM34.4413 18.1761C34.6189 18.3058 34.9061 18.4181 35.3028 18.5132C35.6772 18.6065 36.0636 18.6425 36.4488 18.6201C37.3131 18.5959 37.8224 18.282 37.9767 17.6783C38.0588 17.3231 37.9581 17.0627 37.6746 16.8972C37.3595 16.7235 37.0036 16.6375 36.644 16.6483C35.6012 16.7079 34.867 17.2172 34.4413 18.1761Z" fill="white"/>
<path d="M43.5714 10.5201H46.0223L43.9441 20.2718C43.8024 20.9118 43.8409 21.3292 44.0595 21.5241C44.2782 21.719 44.7075 21.7635 45.3475 21.6577L45.0454 23.5226C43.5887 23.7715 42.5554 23.6589 41.9457 23.1849C41.3359 22.7108 41.1847 21.7398 41.4919 20.2718L43.5714 10.5201Z" fill="white"/>
<path d="M50.6233 15.0705L48.8317 23.5226H46.3445L48.1361 15.0705H50.6233ZM48.4382 12.7791C48.4382 12.2705 48.6219 11.8589 48.9892 11.5443C49.3258 11.2421 49.762 11.0746 50.2143 11.0737C50.5277 11.0634 50.8342 11.1675 51.0764 11.3666C51.3072 11.5624 51.4226 11.8433 51.4226 12.2093C51.4226 12.7305 51.245 13.1391 50.8897 13.4351C50.5426 13.7285 50.101 13.8863 49.6465 13.8791C49.3361 13.9013 49.0287 13.8062 48.785 13.6127C48.5538 13.4221 48.4382 13.1432 48.4382 12.7759V12.7791Z" fill="white"/>
<path d="M56.6984 12.3137L56.1299 14.9785H58.9172L58.5283 16.8434H55.741L55.028 20.1655C54.9096 20.7225 54.9657 21.14 55.1965 21.4178C55.4273 21.6957 55.7617 21.8199 56.1999 21.7906C56.6882 21.7518 57.1708 21.6596 57.639 21.5157L57.4789 23.3955C56.8967 23.5495 56.3026 23.6536 55.7028 23.7067C55.2014 23.7496 54.6965 23.7256 54.2015 23.6354C53.7335 23.5468 53.3636 23.3661 53.0918 23.0935C52.8199 22.8208 52.6274 22.4509 52.5142 21.9837C52.4014 21.5157 52.428 20.9265 52.5939 20.2161L53.307 16.8408L51.7266 16.6813L52.0818 14.9759H53.8755L54.7103 12.3111L56.6984 12.3137Z" fill="white"/>
<path d="M68.7416 15.5645L67.6396 20.7696C67.5208 21.1365 67.4881 21.4118 67.5417 21.5954C67.5953 21.7791 67.8233 21.8591 68.2256 21.8353L67.8892 23.4325C67.5701 23.4992 67.2463 23.5408 66.9207 23.5569C66.6283 23.5684 66.3357 23.5416 66.0502 23.4772C65.917 23.4525 65.7915 23.397 65.6835 23.3152C65.5756 23.2334 65.4883 23.1275 65.4285 23.006C65.3041 22.7575 65.2825 22.426 65.3637 22.0116C65.024 22.5291 64.5547 22.9485 64.0025 23.2283C63.4745 23.5097 62.8862 23.659 62.288 23.6632C61.0347 23.6399 60.1644 23.2017 59.677 22.3487C59.1895 21.4956 59.0888 20.4239 59.3749 19.1335C59.7184 17.7126 60.4202 16.6232 61.4803 15.8652C62.5403 15.1073 63.7985 14.7399 65.2548 14.7633C66.4611 14.7774 67.6502 15.0506 68.7416 15.5645V15.5645ZM65.5264 19.2236L66.0768 17.0035C65.7099 16.8376 65.254 16.7546 64.709 16.7546C64.0602 16.7414 63.4276 16.9587 62.9239 17.3678C62.4204 17.7762 62.0622 18.3652 61.8491 19.1348C61.6477 19.8932 61.6449 20.4736 61.8407 20.8759C62.0364 21.2783 62.4597 21.4727 63.1105 21.4593C63.391 21.4622 63.6692 21.4087 63.9285 21.3019C64.1879 21.1951 64.4231 21.0372 64.6202 20.8377C65.0467 20.4254 65.3488 19.8874 65.5264 19.2236V19.2236Z" fill="white"/>
<path d="M63.6998 12.2035C58.8012 4.17084 44.1976 -0.047733 28.682 2.90228C44.8432 -1.25471 60.7919 2.28778 67.1858 12.5211C66.2232 12.1406 65.0675 12.0239 63.6998 12.2035Z" fill="white"/>
</svg>
