<svg width="60" height="23" viewBox="0 0 60 23" fill="none" xmlns="http://www.w3.org/2000/svg">
<path d="M10.1797 22.7626H7.48641L8.61743 17.6289H3.80615L2.67513 22.7626H0L2.67513 10.6223H5.35026L4.32693 15.2529H9.1382L10.1615 10.6223H12.8549L10.1797 22.7626Z" fill="white"/>
<path d="M22.5315 17.6636C22.5315 18.5196 22.364 19.2942 22.029 19.9874C21.6939 20.6806 21.251 21.2356 20.7003 21.6524C20.1531 22.0672 19.5376 22.39 18.8794 22.6073C18.2179 22.8265 17.5232 22.938 16.8239 22.9369C15.7834 22.9369 14.9036 22.6277 14.1846 22.0092C13.4657 21.3907 13.1065 20.5322 13.1072 19.4336C13.1072 18.6014 13.2778 17.8412 13.6191 17.153C13.9604 16.4649 14.4087 15.9072 14.964 15.48C15.5154 15.0546 16.1376 14.7227 16.8041 14.4985C17.4559 14.2763 18.1419 14.162 18.8331 14.1603C19.8736 14.1603 20.7504 14.4695 21.4635 15.088C22.1766 15.7065 22.5326 16.565 22.5315 17.6636ZM15.6195 18.9296C15.5716 19.4851 15.6942 19.9245 15.9873 20.2478C16.2804 20.5711 16.6605 20.7445 17.1277 20.7679C17.7867 20.8141 18.412 20.6002 19.0037 20.1261C19.5954 19.6521 19.9275 18.9987 20 18.1662C20.0479 17.6114 19.9282 17.172 19.641 16.848C19.3538 16.524 18.9708 16.3506 18.4918 16.3278C17.8096 16.3047 17.1783 16.5186 16.5981 16.9696C16.0178 17.4206 15.6916 18.0739 15.6195 18.9296Z" fill="white"/>
<path d="M28.9587 11.8189L28.3864 14.4206H31.2052L30.8098 16.2414H27.9895L27.2715 19.4849C27.1519 20.028 27.2088 20.4354 27.4422 20.7071C27.6756 20.9788 28.0138 21.1003 28.4567 21.0715C28.9501 21.0336 29.4377 20.9434 29.9108 20.8026L29.749 22.6409C29.1604 22.7904 28.5598 22.8913 27.9536 22.9425C27.447 22.9847 26.9368 22.9614 26.4365 22.8731C25.9638 22.7867 25.5899 22.6104 25.3149 22.3444C25.0398 22.0784 24.8453 21.7171 24.7312 21.2604C24.6174 20.8038 24.6443 20.2285 24.8118 19.5346L25.5303 16.2394L23.9315 16.0856L24.2905 14.4206H26.1041L26.949 11.8189H28.9587Z" fill="white"/>
<path d="M39.4074 20.3689L39.0844 22.2424C38.2821 22.6468 37.1988 22.878 35.8344 22.9359C34.5063 22.9822 33.4502 22.7017 32.666 22.0947C31.8818 21.4876 31.5137 20.6061 31.5615 19.4502C31.5962 18.5949 31.7759 17.8261 32.1005 17.144C32.4251 16.4618 32.8469 15.9126 33.3658 15.4961C33.8771 15.0851 34.4579 14.7621 35.0826 14.5412C35.711 14.3208 36.3716 14.198 37.0398 14.1774C37.5252 14.1632 38.0106 14.2067 38.485 14.3071C38.9147 14.3992 39.3261 14.5577 39.7035 14.7764C40.062 14.9825 40.3326 15.3054 40.4667 15.6871C40.6103 16.0801 40.6161 16.5367 40.4843 17.057C40.2811 17.8551 39.8113 18.4766 39.075 18.9215C38.357 19.362 37.5285 19.6052 36.6782 19.6251C35.5774 19.6831 34.6917 19.5038 34.0213 19.0874C33.8895 19.7698 34.048 20.267 34.4968 20.5789C34.9456 20.8909 35.589 21.0353 36.4269 21.0121C37.3849 21.0111 38.3784 20.7967 39.4074 20.3689ZM34.5062 17.5405C34.6858 17.6681 34.9759 17.778 35.3765 17.8702C35.7549 17.9611 36.1454 17.9962 36.5346 17.9742C37.4079 17.9511 37.9226 17.6447 38.0787 17.055C38.1626 16.7083 38.061 16.454 37.7738 16.2922C37.4867 16.1303 37.1398 16.0494 36.7333 16.0494C35.6793 16.108 34.9369 16.6051 34.5062 17.5405Z" fill="white"/>
<path d="M43.7338 10.0675H46.2118L44.111 19.5889C43.9674 20.2131 44.0063 20.6207 44.2276 20.8116C44.4488 21.0026 44.8824 21.0458 45.5282 20.9413L45.2233 22.7626C43.751 23.0051 42.7067 22.8952 42.0904 22.4329C41.474 21.9705 41.3214 21.0225 41.6325 19.5889L43.7338 10.0675Z" fill="white"/>
<path d="M46.5349 20.2131H48.9946C48.9343 20.5367 49.021 20.7825 49.2547 20.9503C49.4885 21.1182 49.8027 21.202 50.1974 21.2016C51.2033 21.2016 51.7897 20.8833 51.9569 20.2468C51.9939 20.1157 51.9908 19.9771 51.9481 19.8477C51.9225 19.7918 51.8854 19.7414 51.8391 19.6997C51.7928 19.658 51.7382 19.6257 51.6786 19.605C51.5717 19.5574 51.4604 19.5197 51.3461 19.4924C51.2626 19.4747 51.1131 19.4487 50.8977 19.4145C50.4426 19.3569 50.0896 19.3048 49.8385 19.2582C49.5105 19.1924 49.1867 19.1085 48.8687 19.007C48.4737 18.8853 48.1775 18.7465 47.9801 18.5903C47.7828 18.4342 47.6241 18.2117 47.5041 17.9229C47.3844 17.6345 47.3605 17.306 47.4323 16.9374C47.588 15.9993 48.0668 15.3055 48.8687 14.8558C49.6706 14.4062 50.6341 14.1809 51.7592 14.1799C52.8483 14.1799 53.7041 14.4144 54.3267 14.8835C54.9492 15.3525 55.1468 16.0087 54.9192 16.852H52.5495C52.6088 16.5632 52.5278 16.3493 52.3065 16.2102C52.0853 16.0712 51.7833 16.0007 51.4008 15.9987C50.9815 15.9987 50.6194 16.0883 50.3145 16.2675C50.0096 16.4468 49.8568 16.6868 49.8562 16.9877C49.8537 17.0625 49.8695 17.1368 49.9022 17.2046C49.9349 17.2724 49.9836 17.3319 50.0445 17.3782C50.1528 17.4679 50.2824 17.5304 50.4217 17.5601C50.5476 17.5832 50.7241 17.6063 50.9513 17.6294C52.2321 17.7799 53.0819 17.9417 53.5005 18.1149C54.3981 18.5083 54.7212 19.2194 54.4697 20.2483C54.3383 20.875 54.0053 21.4456 53.5182 21.8786C53.053 22.3036 52.4899 22.6157 51.8752 22.7892C51.2541 22.9592 50.6078 23.0272 49.9633 22.9902C48.8261 22.9902 47.9284 22.7822 47.2705 22.366C46.6126 21.9499 46.3673 21.2323 46.5349 20.2131Z" fill="white"/>
<path d="M60 14.5071L58.1864 22.7626H55.6731L57.4861 14.5071H60Z" fill="white"/>
<path d="M13.0583 4.91279C13.41 4.79971 13.7638 4.69116 14.1128 4.56954C14.1632 4.55115 14.217 4.54313 14.2707 4.54599C14.3245 4.54884 14.377 4.56252 14.425 4.58612C14.9452 4.80775 15.4655 5.02385 15.9894 5.23945C16.0118 5.24844 16.0367 5.25003 16.0601 5.24397C16.7601 5.02351 17.4589 4.80139 18.1568 4.57758C18.1651 4.57758 18.1734 4.57054 18.1921 4.56301L15.0977 0.381242C15.12 0.372196 15.1357 0.36516 15.1523 0.359632C15.5165 0.243039 15.8833 0.126949 16.248 0.00784325C16.264 0.000489338 16.2821 -0.00176952 16.2995 0.00138967C16.317 0.00454887 16.333 0.0129643 16.3452 0.0254327C16.7961 0.425132 17.247 0.823994 17.6979 1.22202C18.1203 1.59424 18.5431 1.96664 18.9663 2.3392C19.499 2.80825 20.031 3.27914 20.5624 3.75188C20.577 3.76689 20.5961 3.77703 20.6171 3.78083C20.638 3.78462 20.6597 3.78188 20.6789 3.77299C21.674 3.45403 22.6698 3.13575 23.6662 2.81813C23.9972 2.70788 24.3411 2.63766 24.6901 2.60907C24.8459 2.59642 25.0025 2.59642 25.1583 2.60907C25.4215 2.63269 25.6541 2.72114 25.7977 2.95634L25.8497 3.1071C25.8814 3.44583 25.6759 3.65991 25.4299 3.8534C25.1733 4.05634 24.8826 4.21527 24.5704 4.32329C23.8863 4.55698 23.1964 4.77559 22.5081 4.99822C22.0843 5.13525 21.6596 5.27044 21.234 5.40378C21.2123 5.40882 21.1928 5.42048 21.1785 5.43705C21.1642 5.45361 21.1557 5.4742 21.1544 5.49575C21.0192 6.1737 20.8808 6.85265 20.744 7.52859C20.656 7.9648 20.5697 8.40102 20.4838 8.83523C20.3822 9.33779 20.2804 9.839 20.1784 10.3389C20.1405 10.5283 20.104 10.7188 20.0635 10.9078C20.0608 10.9208 20.0553 10.933 20.0472 10.9437C20.0391 10.9544 20.0287 10.9632 20.0166 10.9696C19.6301 11.0957 19.2425 11.2209 18.8456 11.3455C18.8149 9.62977 18.7842 7.91857 18.7535 6.19983C18.7254 6.20737 18.7041 6.21139 18.6832 6.21792C18.0028 6.43503 17.3223 6.6528 16.6418 6.87124C16.6089 6.88333 16.581 6.90537 16.5622 6.93406C16.2578 7.43662 15.9561 7.93917 15.6523 8.44173C15.6384 8.46607 15.6167 8.48533 15.5904 8.49651C15.1991 8.62282 14.8072 8.74779 14.4146 8.87142L14.4104 8.85835C14.4198 8.80457 14.4323 8.7513 14.439 8.69703C14.5254 8.01054 14.6109 7.32371 14.6955 6.63655C14.6979 6.60291 14.687 6.56965 14.6648 6.54358C14.529 6.39934 14.3886 6.25863 14.2486 6.11691C13.9365 5.79862 13.6235 5.48034 13.3096 5.16205C13.2295 5.08114 13.1457 5.00324 13.064 4.92384L13.0583 4.91279Z" fill="white"/>
<path d="M28.6856 2.31307C45.4231 -2.07073 54.7049 8.76688 56.6959 11.3942C56.8138 11.5502 56.9745 11.6714 57.1597 11.7441C57.345 11.8168 57.5476 11.8382 57.7447 11.8058C57.9231 11.7764 58.0909 11.704 58.2326 11.5954C58.3743 11.4867 58.4853 11.3453 58.5555 11.1841C58.6256 11.023 58.6525 10.8474 58.6337 10.6736C58.615 10.4998 58.5511 10.3333 58.4481 10.1896C53.4298 3.14731 41.1877 -2.74566 28.6856 2.31307Z" fill="white"/>
</svg>
