<svg width="242" height="52" viewBox="0 0 242 52" fill="none" xmlns="http://www.w3.org/2000/svg">
<g clip-path="url(#clip0)">
<path d="M240.64 34.7473C239.889 34.7473 239.28 35.3632 239.28 36.1214C239.28 36.8797 239.889 37.4955 240.64 37.4955C241.391 37.4955 242 36.8797 242 36.1214C242 35.3632 241.391 34.7473 240.64 34.7473ZM240.64 37.2776C240.007 37.2776 239.495 36.7575 239.495 36.1214C239.495 35.4823 240.01 34.9653 240.64 34.9653C241.273 34.9653 241.788 35.4853 241.788 36.1214C241.788 36.7576 241.273 37.2776 240.64 37.2776ZM241.083 35.8861C241.083 35.6363 240.907 35.4881 240.649 35.4881H240.214V36.7402H240.427V36.287H240.66L240.884 36.7402H241.114L240.867 36.2406C241 36.1795 241.083 36.0574 241.083 35.8861ZM240.64 36.0924H240.43V35.677H240.64C240.784 35.677 240.87 35.7496 240.87 35.8833C240.87 36.0198 240.781 36.0924 240.64 36.0924ZM76.7325 20.8409V17.5176H71.6882V37.2892H76.7325V25.4339C76.7325 23.287 78.0957 22.2324 80.2211 22.2324H82.982V17.5176H80.6237C78.7773 17.5176 77.1726 18.4907 76.7325 20.8409ZM87.7071 9.69727C85.9815 9.69727 84.6586 11.0743 84.6586 12.8173C84.6586 14.5196 85.9815 15.8966 87.7071 15.8966C89.4326 15.8966 90.7556 14.5196 90.7556 12.8173C90.7555 11.0742 89.4326 9.69727 87.7071 9.69727ZM85.1906 37.2893H90.2236V17.5176H85.1906V37.2893ZM114.197 27.4034C114.197 33.0478 109.668 37.6234 104.08 37.6234C101.825 37.6234 99.7802 36.8768 98.1408 35.6159V43.0936H93.108V17.5176H98.1408V19.1908C99.7802 17.9301 101.825 17.1835 104.08 17.1835C109.668 17.1835 114.197 21.7589 114.197 27.4034ZM109.133 27.4034C109.133 24.3386 106.671 21.8519 103.637 21.8519C100.603 21.8519 98.1409 24.3386 98.1409 27.4034C98.1409 30.4682 100.603 32.9549 103.637 32.9549C106.671 32.9549 109.133 30.4711 109.133 27.4034ZM201.671 25.6691L198.735 24.8557C196.802 24.3473 196.052 23.7489 196.052 22.7176C196.052 21.7124 197.11 21.0094 198.623 21.0094C200.064 21.0094 201.194 21.9623 201.194 23.1824V23.2956H205.833V23.1824C205.833 19.5946 202.937 17.1834 198.623 17.1834C194.352 17.1834 191.249 19.5917 191.249 22.9121C191.249 25.4947 192.943 27.4411 195.899 28.2487L198.712 29.0243C200.849 29.6227 201.643 30.2852 201.643 31.4733C201.643 32.7254 200.495 33.5678 198.787 33.5678C197.006 33.5678 195.807 32.429 195.807 30.7383V30.625H190.884V30.7383C190.884 34.7938 194.116 37.629 198.747 37.629C203.207 37.629 206.445 34.8606 206.445 31.0492C206.445 29.1783 205.617 26.7324 201.671 25.6691ZM132.051 17.5176H137.084V37.2892H132.051V35.6159C130.412 36.8767 128.367 37.6233 126.112 37.6233C120.524 37.6233 115.995 33.0478 115.995 27.4033C115.995 21.7588 120.524 17.1834 126.112 17.1834C128.367 17.1834 130.412 17.93 132.051 19.1908V17.5176ZM132.051 27.4034C132.051 24.3357 129.589 21.8519 126.555 21.8519C123.521 21.8519 121.059 24.3386 121.059 27.4034C121.059 30.4682 123.521 32.9549 126.555 32.9549C129.592 32.9549 132.051 30.4711 132.051 27.4034ZM155.257 10.4816H160.29V37.2921H155.257V35.6188C153.617 36.8796 151.573 37.6262 149.318 37.6262C143.73 37.6262 139.2 33.0508 139.2 27.4062C139.2 21.7617 143.73 17.1863 149.318 17.1863C151.573 17.1863 153.617 17.9329 155.257 19.1937V10.4816ZM155.257 27.4034C155.257 24.3386 152.795 21.8519 149.761 21.8519C146.727 21.8519 144.265 24.3386 144.265 27.4034C144.265 30.4682 146.724 32.9549 149.761 32.9549C152.795 32.9549 155.257 30.4711 155.257 27.4034ZM183.657 37.2893H188.689V17.5176H183.657V37.2893ZM186.173 9.69727C184.447 9.69727 183.124 11.0743 183.124 12.8173C183.124 14.5196 184.447 15.8966 186.173 15.8966C187.898 15.8966 189.221 14.5196 189.221 12.8173C189.221 11.0742 187.898 9.69727 186.173 9.69727ZM228.199 27.4034C228.199 33.0478 223.669 37.6234 218.081 37.6234C212.493 37.6234 207.964 33.0479 207.964 27.4034C207.964 21.7589 212.493 17.1835 218.081 17.1835C223.669 17.1835 228.199 21.7589 228.199 27.4034ZM223.577 27.4034C223.577 24.3386 221.115 21.8519 218.081 21.8519C215.047 21.8519 212.585 24.3386 212.585 27.4034C212.585 30.4682 215.044 32.9549 218.081 32.9549C221.115 32.9549 223.577 30.4711 223.577 27.4034ZM74.1557 10.4816H54.8496V15.0164H61.9963V37.2892H67.0119V15.0164H74.1586V10.4816H74.1557ZM171.79 31.8742L167.313 17.5176H162.027L168.742 37.2893H174.799L181.554 17.5176H176.268L171.79 31.8742ZM235.573 20.8409V17.5176H230.528V37.2892H235.573V25.4339C235.573 23.287 236.936 22.2324 239.061 22.2324H241.822V17.5176H239.464C237.617 17.5176 236.016 18.4907 235.573 20.8409Z" fill="black"/>
<path d="M25.7404 52C39.9559 52 51.4799 40.3594 51.4799 26C51.4799 11.6406 39.9559 0 25.7404 0C11.5249 0 0.000976562 11.6406 0.000976562 26C0.000976562 40.3594 11.5249 52 25.7404 52Z" fill="#34E0A1"/>
<path d="M41.6376 20.9274L44.7436 17.514H37.8558C34.4076 15.1347 30.2432 13.749 25.7395 13.749C21.2415 13.749 17.0888 15.1377 13.6463 17.514H6.74121L9.84721 20.9274C7.94338 22.682 6.74987 25.2094 6.74987 28.0157C6.74987 33.3116 11.0005 37.6052 16.2433 37.6052C18.7339 37.6052 21.0029 36.6349 22.6969 35.0487L25.7396 38.3953L28.7823 35.0517C30.4763 36.6378 32.7424 37.6052 35.233 37.6052C40.4758 37.6052 44.7321 33.3116 44.7321 28.0157C44.735 25.2065 43.5415 22.6792 41.6376 20.9274ZM16.2461 34.5055C12.6972 34.5055 9.82138 31.6005 9.82138 28.0157C9.82138 24.4308 12.6973 21.5258 16.2461 21.5258C19.795 21.5258 22.6709 24.4308 22.6709 28.0157C22.6709 31.6005 19.795 34.5055 16.2461 34.5055ZM25.7424 27.8269C25.7424 23.5564 22.6681 19.8903 18.6101 18.3245C20.8044 17.3977 23.2116 16.8835 25.7395 16.8835C28.2675 16.8835 30.6774 17.3977 32.8718 18.3245C28.8168 19.8932 25.7424 23.5565 25.7424 27.8269ZM35.2359 34.5055C31.6869 34.5055 28.811 31.6005 28.811 28.0157C28.811 24.4308 31.6869 21.5258 35.2359 21.5258C38.7848 21.5258 41.6606 24.4308 41.6606 28.0157C41.6606 31.6005 38.7847 34.5055 35.2359 34.5055ZM35.2359 24.6109C33.3751 24.6109 31.8681 26.1332 31.8681 28.0128C31.8681 29.8923 33.3751 31.4145 35.2359 31.4145C37.0966 31.4145 38.6036 29.8923 38.6036 28.0128C38.6035 26.1361 37.0966 24.6109 35.2359 24.6109ZM19.6138 28.0157C19.6138 29.8952 18.1068 31.4175 16.2461 31.4175C14.3855 31.4175 12.8785 29.8952 12.8785 28.0157C12.8785 26.1361 14.3855 24.6138 16.2461 24.6138C18.1068 24.6109 19.6138 26.1361 19.6138 28.0157Z" fill="black"/>
</g>
<defs>
<clipPath id="clip0">
<rect width="242" height="52" fill="white"/>
</clipPath>
</defs>
</svg>
