<svg width="29" height="14" viewBox="0 0 29 14" fill="none" xmlns="http://www.w3.org/2000/svg">
<path d="M0 14H29V0H0V14Z" fill="#3F9C35"/>
<path d="M0 14H29V4.66667H0V14Z" fill="#ED2939"/>
<path d="M0 14H29V9.33333H0V14Z" fill="#00B9E4"/>
<path d="M14.0168 4.89961C15.218 4.89961 16.1918 5.83981 16.1918 6.99961C16.1918 8.15941 15.218 9.09961 14.0168 9.09961C12.8156 9.09961 11.8418 8.15941 11.8418 6.99961C11.8418 5.83981 12.8156 4.89961 14.0168 4.89961Z" fill="white"/>
<path d="M14.5 5.25C15.501 5.25 16.3125 6.0335 16.3125 7C16.3125 7.9665 15.501 8.75 14.5 8.75C13.499 8.75 12.6875 7.9665 12.6875 7C12.6875 6.0335 13.499 5.25 14.5 5.25Z" fill="#ED2939"/>
<path d="M16.4334 8.16699L16.6646 7.53926L17.2878 7.82528L16.9916 7.22356L17.6418 7.00033L16.9916 6.7771L17.2878 6.17538L16.6646 6.4614L16.4334 5.83366L16.2022 6.4614L15.579 6.17538L15.8753 6.7771L15.2251 7.00033L15.8753 7.22356L15.579 7.82528L16.2022 7.53926L16.4334 8.16699Z" fill="white"/>
</svg>
