<svg width="30" height="20" viewBox="0 0 30 20" fill="none" xmlns="http://www.w3.org/2000/svg">
<path d="M0 0H30V20H0V0Z" fill="#EE1C25"/>
<path d="M5.00004 2L6.76405 7.427L2.14404 4.073H7.85605L3.23604 7.427L5.00004 2Z" fill="#FFFF00"/>
<path d="M10.3912 1.07956L10.2245 2.9744L9.24474 1.34293L10.9969 2.08798L9.14223 2.51422L10.3912 1.07956Z" fill="#FFFF00"/>
<path d="M12.7176 3.3044L11.8285 4.98603L11.5587 3.10223L12.8844 4.46885L11.0097 4.14195L12.7176 3.3044Z" fill="#FFFF00"/>
<path d="M12.9393 6.65795L11.4416 7.83064L11.9637 6.00063L12.6166 7.78918L11.0383 6.72595L12.9393 6.65795Z" fill="#FFFF00"/>
<path d="M10.3527 8.0644L10.2646 9.96453L9.21811 8.37508L10.9997 9.04685L9.16425 9.54961L10.3527 8.0644Z" fill="#FFFF00"/>
</svg>
