<svg width="29" height="19" viewBox="0 0 29 19" fill="none" xmlns="http://www.w3.org/2000/svg">
<g clip-path="url(#clip0)">
<path d="M0 0H29V19H0V0Z" fill="white"/>
<path d="M4.78125 5.99316L7.47062 2.03395L4.78125 5.99316ZM5.78256 6.64832L8.47193 2.68911L5.78256 6.64832ZM6.78386 7.30348L9.47324 3.34426L6.78386 7.30348Z" fill="black"/>
<path d="M6.78386 7.30348L9.47324 3.34426M4.78125 5.99316L7.47062 2.03395L4.78125 5.99316ZM5.78256 6.64832L8.47193 2.68911L5.78256 6.64832Z" stroke="black" stroke-width="2"/>
<path d="M19.2129 15.4307L21.9023 11.4715L19.2129 15.4307ZM20.2142 16.0858L22.9036 12.1266L20.2142 16.0858ZM21.2155 16.741L23.9049 12.7818L21.2155 16.741Z" fill="black"/>
<path d="M21.2155 16.741L23.9049 12.7818M19.2129 15.4307L21.9023 11.4715L19.2129 15.4307ZM20.2142 16.0858L22.9036 12.1266L20.2142 16.0858Z" stroke="black" stroke-width="2"/>
<path d="M22.6138 7.21289L19.2127 3.84937L22.6138 7.21289ZM23.4622 6.36351L20.0611 2.99999L23.4622 6.36351ZM24.3106 5.51414L20.9095 2.15061L24.3106 5.51414Z" fill="black"/>
<path d="M24.3106 5.51414L20.9095 2.15061M22.6138 7.21289L19.2127 3.84937L22.6138 7.21289ZM23.4622 6.36351L20.0611 2.99999L23.4622 6.36351Z" stroke="black" stroke-width="2"/>
<path d="M7.75146 16.5332L4.35043 13.1697L7.75146 16.5332ZM8.59986 15.6838L5.19883 12.3203L8.59986 15.6838ZM9.44826 14.8344L6.04723 11.4709L9.44826 14.8344Z" fill="black"/>
<path d="M9.44826 14.8344L6.04723 11.4709M7.75146 16.5332L4.35043 13.1697L7.75146 16.5332ZM8.59986 15.6838L5.19883 12.3203L8.59986 15.6838Z" stroke="black" stroke-width="2"/>
<path d="M18.5108 12.1236C19.9974 9.93502 19.4069 6.98589 17.1918 5.53655C14.9767 4.08721 11.9758 4.68649 10.4892 6.87509C9.00253 9.06368 9.59306 12.0128 11.8082 13.4622C14.0233 14.9115 17.0241 14.3122 18.5108 12.1236Z" fill="#CD2E3A"/>
<path d="M10.4904 6.87127C10.1333 7.39702 10.0022 8.03954 10.1259 8.65748C10.2496 9.27543 10.6181 9.81819 11.1502 10.1664C11.6823 10.5145 12.3345 10.6396 12.9632 10.514C13.592 10.3884 14.1459 10.0225 14.503 9.49677C14.8601 8.97102 15.414 8.60511 16.0427 8.47954C16.6715 8.35397 17.3237 8.47902 17.8558 8.82718C18.3879 9.17534 18.7563 9.7181 18.8801 10.336C19.0038 10.954 18.8727 11.5965 18.5156 12.1223C17.8013 13.1738 16.6936 13.9056 15.4361 14.1567C14.1785 14.4079 12.8742 14.1578 11.81 13.4614C10.7458 12.7651 10.0089 11.6796 9.76139 10.4437C9.51393 9.20781 9.77615 7.92276 10.4904 6.87127Z" fill="#0047A0"/>
</g>
<defs>
<clipPath id="clip0">
<rect width="29" height="19" fill="white"/>
</clipPath>
</defs>
</svg>
