<svg width="29" height="14" viewBox="0 0 29 14" fill="none" xmlns="http://www.w3.org/2000/svg">
<path d="M29 14H0V0H29V14Z" fill="#00AFCA"/>
<path d="M15.6668 6.23651C16.7443 6.23651 17.6178 7.07987 17.6178 8.12021C17.6178 9.16055 16.7443 10.0039 15.6668 10.0039C14.5893 10.0039 13.7158 9.16055 13.7158 8.12021C13.7158 7.07987 14.5893 6.23651 15.6668 6.23651Z" fill="#FEC50C"/>
<path d="M15.6668 10.2607C15.7828 10.2621 15.8263 10.3321 15.8263 10.4161C15.8263 10.5281 15.6668 11.0615 15.6668 11.0615C15.6668 11.0615 15.5073 10.5281 15.5073 10.4161C15.5073 10.3321 15.5508 10.2607 15.6668 10.2607Z" fill="#FEC50C"/>
<path d="M15.3188 4.03906C15.2666 4.03626 15.2158 4.02973 15.166 4.01433C15.0979 4.00546 15.0326 3.9826 14.965 3.97186L14.9379 3.96766L14.8925 3.96346C14.8954 3.95133 14.8973 3.93919 14.8973 3.92706C14.8973 3.91446 14.8958 3.90233 14.8925 3.89206C14.8896 3.88226 14.8804 3.87013 14.8731 3.86266C14.8635 3.85239 14.8533 3.84353 14.8412 3.83793C14.8296 3.83233 14.8166 3.82999 14.8035 3.82906C14.7905 3.82859 14.7769 3.82906 14.7644 3.83373C14.7513 3.83793 14.7392 3.84586 14.7281 3.85519C14.7146 3.85193 14.7006 3.84959 14.6875 3.84819C14.674 3.84679 14.6614 3.84679 14.6493 3.84819C14.6358 3.85193 14.6218 3.85613 14.6087 3.86126C14.5957 3.86639 14.5831 3.87293 14.571 3.88039C14.5217 3.85239 14.4666 3.82579 14.4367 3.77679C14.4198 3.75439 14.4164 3.72873 14.4125 3.70213C14.4101 3.66946 14.4188 3.63492 14.4333 3.60459C14.4386 3.59572 14.443 3.63679 14.4594 3.64239C14.4869 3.66432 14.5213 3.68019 14.5561 3.68906C14.5855 3.70353 14.5817 3.68812 14.5696 3.66572C14.5667 3.65406 14.5503 3.60972 14.5725 3.63212C14.6706 3.67412 14.7794 3.68252 14.8852 3.69046C15.0389 3.70586 15.1931 3.70913 15.3473 3.71099C15.4923 3.70913 15.6373 3.70726 15.7823 3.70213C15.8514 3.70026 15.921 3.68533 15.9892 3.69653C16.0056 3.70073 16.0312 3.70166 16.0409 3.71099C16.0099 3.72826 15.9737 3.72873 15.9394 3.73293H15.6629C15.5861 3.74039 15.5058 3.74133 15.4333 3.76933C15.414 3.77679 15.3961 3.79453 15.3777 3.77539C15.3502 3.76606 15.3207 3.75953 15.2917 3.75766C15.2409 3.75393 15.1902 3.76419 15.1433 3.78239C15.1771 3.82766 15.2177 3.86733 15.255 3.90933C15.225 3.91399 15.196 3.92006 15.166 3.92706C15.2187 3.96206 15.2675 4.00173 15.3188 4.03906Z" fill="#FEC50C"/>
<path d="M17.5767 3.55546C17.4716 3.49456 17.3915 3.60253 17.3037 3.63491C17.2409 3.60203 17.2351 3.492 17.1765 3.4399C17.1064 3.36287 17.0205 3.4614 17.0269 3.5374C16.943 3.46917 16.9006 3.3145 16.765 3.33516C16.7008 3.38577 16.6531 3.49197 16.604 3.37105C16.564 3.31194 16.4574 3.22784 16.4022 3.3171C16.3851 3.39591 16.3442 3.4886 16.2998 3.36341C16.2693 3.27487 16.1715 3.20972 16.0768 3.24849C16.025 3.28939 16.1183 3.44067 16.0524 3.4299C15.9538 3.36696 15.8965 3.21069 15.7589 3.22321C15.7054 3.28111 15.7913 3.37922 15.7327 3.4435C15.6635 3.35777 15.5868 3.23225 15.4671 3.22321C15.4093 3.26845 15.4694 3.39822 15.4325 3.41743C15.3097 3.34633 15.1801 3.21964 15.0258 3.25931C15.0859 3.48153 15.3374 3.5595 15.5488 3.57683C15.9126 3.62 16.2953 3.54062 16.6453 3.6674C16.7019 3.70062 16.8389 3.74775 16.7901 3.82481C16.7469 3.88566 16.9025 3.86187 16.9175 3.93295C16.9083 4.02297 16.989 4.01058 17.0678 4.01846C17.4212 4.03318 17.7704 3.96131 18.1228 3.94909C18.1494 3.78331 17.9589 3.6669 17.8056 3.71809C17.7323 3.70664 17.6225 3.8807 17.644 3.75407C17.6293 3.68761 17.6396 3.59983 17.5767 3.55544L17.5767 3.55546ZM14.5694 3.89491C14.6512 3.8226 14.7086 3.90853 14.7851 3.93993C15.0416 4.02512 15.2654 4.17399 15.4861 4.32274C15.6198 4.42957 15.7357 4.56809 15.9153 4.60274C16.2655 4.70498 16.6378 4.69258 16.9894 4.78694C17.2572 5.14087 17.7119 5.26713 18.0928 5.47057C18.1784 5.49622 18.2114 5.56419 18.2387 5.63923C18.3841 5.86085 18.5822 6.05723 18.8165 6.19138C18.9273 6.24985 19.0596 6.28353 19.185 6.25678C19.176 6.11248 19.0903 5.98459 18.9868 5.8848C19.0715 5.8866 19.1443 5.93827 19.2299 5.93536C19.2593 5.78727 19.0936 5.70977 19.0055 5.61756C19.0546 5.60654 19.2426 5.5928 19.1401 5.54534C19.0096 5.45784 18.8605 5.39776 18.7399 5.29615C18.8511 5.27686 18.8638 5.25403 18.7507 5.2152C18.6895 5.17514 18.5718 5.16114 18.5604 5.08308C18.6444 5.03323 18.5217 4.98373 18.4744 4.96751C18.3839 4.94717 18.2888 4.9092 18.409 4.84281C18.3635 4.77648 18.266 4.76233 18.1863 4.76889C18.2105 4.69371 18.2455 4.6096 18.1444 4.57643C17.9179 4.41108 17.652 4.2908 17.3672 4.26329C17.723 4.23688 18.0894 4.30064 18.3934 4.48745C18.4335 4.53326 18.644 4.5825 18.5263 4.62103C18.4709 4.6433 18.352 4.66803 18.344 4.70882C18.5087 4.80691 18.7161 4.77202 18.8933 4.83028C18.8979 4.88565 18.7585 4.87025 18.7066 4.88286C18.5827 4.89266 18.59 4.92318 18.7094 4.93449C18.8606 4.97312 19.0317 4.98073 19.1588 5.07587C19.0553 5.12216 18.9251 5.0814 18.8147 5.1192C19.0019 5.1983 19.2228 5.20624 19.3907 5.32506C19.4673 5.40725 19.2927 5.38156 19.2419 5.37956C19.1382 5.36214 19.0903 5.41005 19.2081 5.45165C19.4092 5.59482 19.6638 5.68784 19.8051 5.8954C19.8386 5.94186 19.8839 6.08187 19.7772 6.03151C19.6368 5.98645 19.5133 5.83409 19.3533 5.88122C19.6685 6.11703 19.9683 6.38549 20.1837 6.71183C20.1948 6.80596 20.0418 6.81615 20.002 6.74224C19.7995 6.55389 19.6163 6.33155 19.3571 6.21346C19.6053 6.44481 19.8106 6.71875 19.9897 7.00267C20.0281 7.08712 20.1312 7.18867 20.0752 7.28243C19.985 7.35458 19.8721 7.28854 19.8252 7.20221C19.6678 7.00384 19.5483 6.77229 19.3459 6.61071C19.523 6.93721 19.7065 7.28478 19.711 7.66136C19.7104 7.7389 19.6943 7.85308 19.5853 7.83859C19.4988 7.82364 19.5193 7.69871 19.4837 7.63553C19.4052 7.37826 19.3684 7.09963 19.2075 6.87434C19.2437 7.08342 19.307 7.30134 19.2584 7.51246C19.2357 7.60681 19.0779 7.56624 19.0982 7.47286C18.9097 6.55082 18.2689 5.74442 17.4308 5.27794C17.0471 5.06832 16.6185 4.93318 16.1824 4.87191C16.0651 4.84711 15.9383 4.86166 15.8261 4.82304C15.5545 4.62191 15.39 4.28535 15.046 4.17995C14.8919 4.10599 14.6908 4.09098 14.5806 3.95269C14.5711 3.93501 14.569 3.91452 14.5694 3.89491" fill="#FEC50C"/>
<path d="M15.5989 4.82827C15.5482 4.73931 15.5183 4.63706 15.4531 4.55741C15.2567 4.72991 14.9721 4.72421 14.723 4.73569C14.5175 4.74628 14.2939 4.76459 14.1349 4.90615C13.9675 5.03848 13.831 5.21029 13.644 5.31765C13.4734 5.36246 13.3013 5.41851 13.1641 5.53145C12.8709 5.7622 12.703 6.10457 12.4165 6.34251C12.3619 6.39442 12.2975 6.43465 12.2363 6.47869C12.1782 6.46501 12.2045 6.34385 12.1333 6.40562C12.0946 6.43221 11.9978 6.4348 11.9891 6.39765C12.0766 6.28621 12.1643 6.15896 12.1765 6.01642C12.1167 6.01051 12.0105 6.02861 11.9809 6.00713C12.0602 5.89233 12.1619 5.79051 12.2775 5.70945C12.222 5.70085 12.1128 5.70553 12.0916 5.68397C12.2063 5.59372 12.3293 5.5015 12.4794 5.47831C12.5102 5.43918 12.4345 5.36365 12.4981 5.33025C12.535 5.31569 12.6568 5.29133 12.5729 5.2508C12.5154 5.21334 12.5367 5.12604 12.6103 5.12801C12.6569 5.10506 12.7614 5.09943 12.7696 5.0597C12.7283 5.01916 12.6 4.9711 12.7092 4.93313C12.8113 4.87847 12.9277 4.84299 13.0442 4.83909C12.9857 4.79158 12.9137 4.7646 12.8535 4.71991C13.1224 4.56764 13.4206 4.46749 13.7152 4.37105C13.8326 4.3332 13.9512 4.29792 14.0728 4.27571C13.7195 4.2954 13.378 4.3964 13.0562 4.53464C12.8894 4.60527 12.7214 4.67351 12.5505 4.73435C12.6254 4.772 12.7121 4.78121 12.7899 4.8138C12.6285 4.845 12.4522 4.85524 12.3104 4.94087C12.3321 4.97833 12.4146 4.9801 12.4601 4.99917C12.5458 5.019 12.599 5.04305 12.4782 5.05024C12.3563 5.08217 12.2165 5.06784 12.1091 5.13883C12.116 5.18139 12.2284 5.16656 12.2742 5.18493C12.3318 5.1945 12.3959 5.2025 12.442 5.23995C12.2536 5.31538 12.0072 5.26194 11.8596 5.42259C11.8255 5.48379 11.9653 5.43449 12.0051 5.44468C12.1062 5.44468 12.2148 5.41366 12.3111 5.45302C12.0366 5.5694 11.7425 5.67835 11.5331 5.89362C11.5099 5.92822 11.4402 6.02277 11.4964 6.03446C11.6594 6.01364 11.7773 5.84192 11.9516 5.86864C11.9748 5.89878 11.8504 5.94818 11.8193 5.99126C11.5652 6.20183 11.3185 6.43035 11.1404 6.70618C11.1281 6.79829 11.2781 6.81209 11.3175 6.74095C11.5119 6.56019 11.6875 6.34927 11.9296 6.22587C12.0155 6.18566 11.8803 6.27347 11.8623 6.30532C11.6386 6.55612 11.4256 6.821 11.2693 7.11637C11.2413 7.16961 11.1949 7.26598 11.2786 7.29431C11.3623 7.3348 11.4454 7.27965 11.4879 7.21022C11.6523 7.00995 11.7733 6.77192 11.9782 6.60507C11.8037 6.9321 11.6173 7.27634 11.6128 7.65266C11.6169 7.72562 11.6218 7.83595 11.7242 7.83296C11.8102 7.84555 11.7967 7.73921 11.8249 7.6885C11.9096 7.41205 11.9466 7.11281 12.1166 6.86872C12.079 7.07381 12.0238 7.28501 12.0605 7.4935C12.069 7.56196 12.1488 7.58268 12.2009 7.54129C12.243 7.44175 12.2518 7.31884 12.2902 7.21242C12.5085 6.49115 12.9989 5.85677 13.6378 5.43105C14.1641 5.08258 14.7886 4.87457 15.426 4.83828C15.4835 4.83343 15.5413 4.83176 15.599 4.82834" fill="#FEC50C"/>
<path d="M14.7897 3.87416C14.8086 3.87416 14.824 3.88899 14.824 3.90729C14.824 3.92559 14.8086 3.94043 14.7897 3.94043C14.7707 3.94043 14.7554 3.92559 14.7554 3.90729C14.7554 3.88899 14.7707 3.87416 14.7897 3.87416Z" fill="#FEC50C"/>
<path d="M14.7869 3.89876C14.7947 3.89876 14.8009 3.90481 14.8009 3.91227C14.8009 3.91973 14.7947 3.92578 14.7869 3.92578C14.7792 3.92578 14.7729 3.91973 14.7729 3.91227C14.7729 3.90481 14.7792 3.89876 14.7869 3.89876Z" fill="#FEC50C" stroke="#00AFCA" stroke-width="0.381274"/>
<path d="M1.74034 12.9795C1.74034 12.9795 1.60098 13.0926 1.55367 13.0359C1.47755 12.9447 1.78769 12.4903 1.78769 12.3304C1.78769 12.0677 1.6062 11.9963 1.38209 11.9588C1.23171 11.9336 0.986832 11.9693 0.986832 11.9693C1.03294 12.0292 1.06293 12.0468 1.14062 12.0516C1.05413 12.0949 0.966054 12.189 0.966054 12.3355C0.966054 12.5615 1.06238 12.6546 1.06238 12.9093C1.06238 13.0506 0.942383 13.2305 0.942383 13.2305C1.15449 13.21 1.25961 13.0203 1.1998 12.8688C1.23357 12.8641 1.26422 12.8714 1.29055 12.8955C1.30607 12.8535 1.28157 12.8048 1.24874 12.7628C1.27518 12.7491 1.2946 12.7573 1.3367 12.7657C1.33271 12.7224 1.30585 12.6764 1.24013 12.6331C1.43082 12.6809 1.54816 12.5526 1.54816 12.4183C1.54816 12.3168 1.47451 12.2441 1.40252 12.2441C1.37926 12.2441 1.34508 12.2533 1.3258 12.2672C1.31221 12.2393 1.31922 12.2019 1.33322 12.174C1.28045 12.1875 1.24696 12.2177 1.2708 12.2807C1.23028 12.2843 1.19804 12.2975 1.17611 12.3227C1.19833 12.3502 1.23203 12.366 1.2708 12.3647C1.2413 12.4235 1.27418 12.4564 1.32209 12.4831C1.32209 12.4831 1.29162 12.3647 1.36944 12.3647C1.40443 12.3647 1.43632 12.3757 1.43632 12.4255C1.43632 12.4689 1.39706 12.5289 1.30631 12.5251C1.21556 12.5213 1.142 12.4647 1.142 12.3248C1.142 12.1958 1.24978 12.1316 1.39182 12.1275C1.51991 12.1237 1.61658 12.1906 1.61658 12.3182C1.61658 12.488 1.36272 12.875 1.36272 13.0264C1.36272 13.1399 1.46845 13.2032 1.57191 13.2032C1.70606 13.2032 1.81925 13.075 1.81925 13.075L1.74044 12.9796L1.74034 12.9795Z" fill="#FEC50C"/>
<path d="M1.76944 9.91068C1.76944 9.6269 1.50557 9.48105 1.29822 9.48105C1.01886 9.48105 0.870117 9.64232 0.870117 9.85342C0.870117 9.97309 0.892826 10.0482 0.949975 10.1627C0.949975 10.1627 1.41079 11.088 1.59019 11.4459C1.61257 11.4905 1.61979 11.5413 1.61979 11.6158C1.61979 11.7308 1.50422 11.8248 1.38304 11.8277C1.27258 11.8304 1.15223 11.7283 1.15223 11.612C1.15223 11.4707 1.22815 11.4077 1.30611 11.4077C1.40203 11.4077 1.44026 11.4457 1.44026 11.5108C1.44026 11.5561 1.41759 11.5757 1.38502 11.5757C1.30274 11.5757 1.32584 11.4688 1.32584 11.4688C1.28497 11.4774 1.2514 11.5177 1.2706 11.5681C1.2407 11.5745 1.2127 11.5896 1.1907 11.6139C1.21276 11.6345 1.23806 11.6505 1.2706 11.6559C1.25133 11.7173 1.27708 11.7473 1.33274 11.7599C1.32151 11.7363 1.32112 11.7146 1.32485 11.6941C1.41248 11.7181 1.54679 11.6798 1.54679 11.5337C1.54679 11.3886 1.44248 11.2664 1.24691 11.2969C1.29344 11.2754 1.3171 11.2315 1.32188 11.1824C1.28637 11.1957 1.24691 11.1976 1.24691 11.1976C1.26978 11.1587 1.30154 11.1251 1.30018 11.0487C1.26392 11.0646 1.23025 11.0941 1.18378 11.0754C1.25671 10.9369 1.16711 10.7463 0.939152 10.7012C1.02258 10.7956 1.06344 10.8976 1.06344 10.9991C1.06344 11.328 0.968745 11.3833 0.968745 11.612C0.968745 11.7077 1.01969 11.811 1.12065 11.8812V11.8774C1.05392 11.8947 1.01117 11.9264 0.986599 11.9695C1.13907 12.0112 1.36068 12.0105 1.47969 11.9653C1.61648 11.95 1.71196 11.8486 1.74009 11.7972C1.76823 11.7458 1.82288 11.5599 1.74009 11.3924C1.64949 11.2092 1.22228 10.3346 1.08908 10.0597C1.06083 10.0013 1.04371 9.9395 1.04371 9.87253C1.04371 9.70411 1.2035 9.64531 1.29426 9.64531C1.40276 9.64531 1.51323 9.72512 1.51323 9.82479C1.51323 9.88795 1.47772 9.92599 1.42643 9.92599C1.30378 9.92599 1.31123 9.82525 1.33568 9.76179C1.25935 9.79492 1.21498 9.85407 1.22718 9.91644C1.18396 9.92216 1.14283 9.94195 1.10487 9.98327C1.13474 10.0197 1.17116 10.0472 1.22718 10.0482C1.20271 10.145 1.26982 10.1859 1.33568 10.2086C1.31485 10.1376 1.30117 10.0558 1.42643 10.0558C1.51776 10.0558 1.58967 10.0405 1.63161 9.98327C1.63407 10.0596 1.64147 10.3613 1.64147 10.3613C1.64673 10.4747 1.48431 10.4715 1.38107 10.4377C1.42003 10.5683 1.49993 10.6389 1.68487 10.621C1.63999 10.6392 1.59215 10.6799 1.59215 10.7585C1.59218 10.8648 1.6815 10.9826 1.74013 11.0174L1.76945 9.91066L1.76944 9.91068Z" fill="#FEC50C"/>
</svg>
