<svg width="30" height="20" viewBox="0 0 30 20" fill="none" xmlns="http://www.w3.org/2000/svg">
<path d="M0 20H30V0H0V20Z" fill="#FF0000"/>
<path d="M0 20H12V0H0V20Z" fill="#006600"/>
<path fill-rule="evenodd" clip-rule="evenodd" d="M15.9122 6.90621C14.4017 6.95171 7.47523 11.2752 7.42773 11.9637L7.81023 12.6016C8.49723 11.6033 15.5782 7.39856 16.2737 7.54756L15.9122 6.90641" fill="#FFFF00"/>
<path d="M15.9122 6.90621C14.4017 6.95171 7.47523 11.2752 7.42773 11.9637L7.81023 12.6016C8.49723 11.6033 15.5782 7.39856 16.2737 7.54756L15.9122 6.90641" stroke="black" stroke-width="0.573" stroke-linecap="round" stroke-linejoin="round"/>
<path fill-rule="evenodd" clip-rule="evenodd" d="M7.72976 12.6889C7.59426 12.3242 9.53721 11.123 11.8749 9.70122C14.2125 8.27952 16.2282 7.40092 16.3776 7.52692C16.3867 7.54317 16.4511 7.65392 16.4452 7.65307C16.4172 7.61087 16.349 7.59757 16.2427 7.62822C15.6111 7.81037 13.9639 8.56647 11.9239 9.80352C9.88401 11.0407 8.10921 12.1807 7.83341 12.6651C7.81421 12.6986 7.80051 12.7599 7.80331 12.8075L7.79661 12.8076L7.73786 12.705L7.72981 12.6889H7.72976V12.6889ZM15.9478 6.88692C15.9222 6.84043 15.8744 6.83893 15.7837 6.84888C15.2187 6.91138 13.5042 7.74512 11.4756 8.95952C9.11506 10.3725 7.16556 11.66 7.37706 11.9965L7.43461 12.0982L7.44596 12.0947C7.25576 11.5245 11.2934 9.21582 11.5311 9.06862C13.8673 7.62127 15.8368 6.77607 16.0111 6.99572L15.9477 6.88667V6.88678L15.9478 6.88692Z" fill="#FFFF00" stroke="black" stroke-width="0.573" stroke-linecap="round" stroke-linejoin="round"/>
<path fill-rule="evenodd" clip-rule="evenodd" d="M12.0085 11.5475C13.5204 11.5594 15.386 11.7541 16.4597 12.182L16.2283 12.5578C15.5937 12.2066 13.7178 11.9756 11.9957 11.9411C9.95892 11.9598 8.52122 12.1495 7.80087 12.6328L7.58252 12.2326C8.90672 11.6722 10.2637 11.5532 12.0085 11.5474" fill="#FFFF00"/>
<path d="M12.0085 11.5475C13.5204 11.5594 15.386 11.7541 16.4597 12.182L16.2283 12.5578C15.5937 12.2066 13.7178 11.9756 11.9957 11.9411C9.95892 11.9598 8.52122 12.1495 7.80087 12.6328L7.58252 12.2326C8.90672 11.6722 10.2637 11.5532 12.0085 11.5474" stroke="black" stroke-width="0.573" stroke-linecap="round" stroke-linejoin="round"/>
<path fill-rule="evenodd" clip-rule="evenodd" d="M16.522 12.173C16.485 12.1139 15.7848 11.8725 14.7533 11.6943C14.0539 11.5876 13.1416 11.4965 12.0031 11.4954C10.9215 11.4944 10.0379 11.5714 9.36894 11.662C8.28614 11.8318 7.72729 12.068 7.52069 12.1515C7.54044 12.1908 7.55319 12.2183 7.57219 12.255C8.16694 12.0182 8.72839 11.8754 9.38619 11.7742C10.0507 11.6842 10.9237 11.6061 11.9999 11.6072C13.1331 11.6083 14.0354 11.7064 14.7307 11.8098C15.7885 11.9804 16.3663 12.2 16.4474 12.302L16.5221 12.173H16.522L16.522 12.173ZM16.319 12.5541C16.2043 12.4621 15.6331 12.2595 14.628 12.099C13.9573 12.0029 13.1044 11.9168 12.0148 11.9158C10.9796 11.9148 10.1338 11.9845 9.49054 12.0782C8.46984 12.2115 7.92654 12.452 7.73074 12.5221C7.75024 12.5558 7.77004 12.5892 7.79044 12.6228C7.94284 12.546 8.46709 12.3332 9.50174 12.1866C10.1377 12.0965 10.9847 12.0293 12.0148 12.0303C13.0993 12.0314 13.9425 12.1191 14.609 12.2147C15.6192 12.3537 16.1628 12.6121 16.2454 12.6768L16.319 12.5543V12.5541H16.319ZM7.04399 9.72551C7.97389 9.22535 10.0392 8.9733 11.9937 8.95596C13.7732 8.9531 16.0916 9.23101 16.9585 9.69046L16.9347 10.1911C16.6634 9.76721 14.179 9.36055 11.9744 9.37725C9.76974 9.39386 7.72249 9.73441 7.04004 10.1752L7.04404 9.72561" fill="#FFFF00"/>
<path d="M7.04399 9.72551C7.97389 9.22535 10.0392 8.9733 11.9937 8.95595C13.7732 8.9531 16.0916 9.23101 16.9585 9.69046L16.9347 10.1911C16.6634 9.76721 14.179 9.36056 11.9744 9.37726C9.76974 9.39386 7.72249 9.73441 7.04004 10.1752L7.04404 9.72561M16.522 12.173C16.485 12.1139 15.7848 11.8725 14.7533 11.6943C14.0539 11.5876 13.1416 11.4965 12.0031 11.4954C10.9215 11.4944 10.0379 11.5714 9.36894 11.662C8.28614 11.8318 7.72729 12.068 7.52069 12.1515C7.54044 12.1908 7.55319 12.2183 7.57219 12.255C8.16694 12.0182 8.72839 11.8754 9.38619 11.7742C10.0507 11.6842 10.9237 11.6061 11.9999 11.6072C13.1331 11.6083 14.0354 11.7064 14.7307 11.8098C15.7885 11.9804 16.3663 12.2 16.4474 12.302L16.5221 12.173H16.522L16.522 12.173ZM16.319 12.5541C16.2043 12.4621 15.6331 12.2595 14.628 12.099C13.9573 12.0029 13.1044 11.9168 12.0148 11.9158C10.9796 11.9148 10.1338 11.9845 9.49054 12.0782C8.46984 12.2115 7.92654 12.452 7.73074 12.5221C7.75024 12.5558 7.77004 12.5892 7.79044 12.6228C7.94284 12.546 8.46709 12.3332 9.50174 12.1866C10.1377 12.0965 10.9847 12.0293 12.0148 12.0303C13.0993 12.0314 13.9425 12.1191 14.609 12.2147C15.6192 12.3537 16.1628 12.6121 16.2454 12.6768L16.319 12.5543V12.5541H16.319Z" stroke="black" stroke-width="0.573" stroke-linecap="round" stroke-linejoin="round"/>
<path fill-rule="evenodd" clip-rule="evenodd" d="M17.0062 9.79768V9.67828C16.8759 9.52253 16.0589 9.28703 15.0344 9.12118C14.2546 9.00168 13.238 8.91148 11.9713 8.91148C10.7678 8.91148 9.80814 8.99728 9.06389 9.11153C7.88739 9.28288 7.13489 9.58288 6.98389 9.67238L6.98454 9.81168C7.43829 9.50998 8.66759 9.28933 9.08039 9.22178C9.81979 9.10828 10.7738 9.02308 11.9712 9.02308C13.232 9.02308 14.2429 9.11268 15.0178 9.23143C15.7528 9.33758 16.8 9.61373 17.0061 9.79763H17.0062V9.79768ZM17.0067 10.2223V10.1029C16.8764 9.94718 16.0594 9.71173 15.0349 9.54593C14.2551 9.42638 13.2385 9.33618 11.9718 9.33618C10.7683 9.33618 9.80864 9.42193 9.06439 9.53628C7.88789 9.70748 7.13539 10.0075 6.98439 10.0971L6.98504 10.2363C7.43879 9.93468 8.66809 9.71398 9.08089 9.64653C9.82029 9.53293 10.7743 9.44773 11.9717 9.44773C13.2325 9.44773 14.2434 9.53733 15.0183 9.65618C15.7533 9.76238 16.8005 10.0385 17.0066 10.2224L17.0067 10.2223ZM11.9897 6.99268C9.85109 7.00543 8.01864 7.57563 7.63169 7.66988L7.91384 7.22818C8.59734 6.94068 10.385 6.51218 12.0102 6.55963C13.6354 6.60703 15.0557 6.73293 16.0566 7.22013L16.3459 7.67793C15.6638 7.35668 13.3425 6.99598 11.9897 6.99268Z" fill="#FFFF00"/>
<path d="M11.9897 6.99268C9.85109 7.00543 8.01864 7.57563 7.63169 7.66988L7.91384 7.22818C8.59734 6.94068 10.385 6.51218 12.0102 6.55963C13.6354 6.60703 15.0557 6.73293 16.0566 7.22013L16.3459 7.67793C15.6638 7.35668 13.3425 6.99598 11.9897 6.99268M17.0062 9.79768V9.67828C16.8759 9.52253 16.0589 9.28703 15.0344 9.12118C14.2546 9.00168 13.238 8.91148 11.9713 8.91148C10.7678 8.91148 9.80814 8.99728 9.06389 9.11153C7.88739 9.28288 7.13489 9.58288 6.98389 9.67238L6.98454 9.81168C7.43829 9.50998 8.66759 9.28933 9.08039 9.22178C9.81979 9.10828 10.7738 9.02308 11.9712 9.02308C13.232 9.02308 14.2429 9.11268 15.0178 9.23143C15.7528 9.33758 16.8 9.61373 17.0061 9.79763H17.0062V9.79768ZM17.0067 10.2223V10.1029C16.8764 9.94718 16.0594 9.71173 15.0349 9.54593C14.2551 9.42638 13.2385 9.33618 11.9718 9.33618C10.7683 9.33618 9.80864 9.42193 9.06439 9.53628C7.88789 9.70748 7.13539 10.0075 6.98439 10.0971L6.98504 10.2363C7.43879 9.93468 8.66809 9.71398 9.08089 9.64653C9.82029 9.53293 10.7743 9.44773 11.9717 9.44773C13.2325 9.44773 14.2434 9.53733 15.0183 9.65618C15.7533 9.76238 16.8005 10.0385 17.0066 10.2224L17.0067 10.2223V10.2223Z" stroke="black" stroke-width="0.573" stroke-linecap="round" stroke-linejoin="round"/>
<path fill-rule="evenodd" clip-rule="evenodd" d="M16.1651 7.32248C16.123 7.2579 16.0797 7.19406 16.0353 7.13098C15.5632 6.96453 14.8193 6.78978 14.5055 6.73878C13.8643 6.60668 12.8722 6.50908 11.9918 6.50868C10.0973 6.53638 8.54655 6.90728 7.817 7.22363L7.75809 7.32483L7.76775 7.34003L7.86755 7.30133C9.16495 6.83713 10.6221 6.65198 12.0024 6.61873C12.8793 6.61563 13.7572 6.71923 14.467 6.84618C15.5556 7.06428 15.9957 7.22868 16.1308 7.30318L16.1651 7.32248ZM16.416 7.73623L16.4193 7.73238C16.387 7.67776 16.3542 7.62338 16.3211 7.56923C16.0694 7.47923 15.386 7.27928 14.3882 7.13978C13.7307 7.05023 13.3221 6.96348 12.0142 6.93808C9.56349 7.00043 7.97674 7.47963 7.59979 7.59783L7.54395 7.70498C8.96425 7.33423 10.415 7.07538 12.0143 7.04898C13.2108 7.07443 13.7199 7.16253 14.3719 7.25143C15.5354 7.43238 16.1217 7.62393 16.2977 7.67923C16.2953 7.68268 16.2927 7.68602 16.29 7.68923L16.4161 7.73633L16.416 7.73623H16.416Z" fill="#FFFF00" stroke="black" stroke-width="0.55" stroke-linecap="round" stroke-linejoin="round"/>
<path fill-rule="evenodd" clip-rule="evenodd" d="M16.4416 10.1204C16.4486 8.71355 15.7286 7.4511 15.1487 6.89415C14.3283 6.10615 13.2406 5.59935 11.9703 5.576C10.5518 5.54995 9.21428 6.4747 8.85553 6.88095C8.15413 7.6752 7.58308 8.6838 7.56478 10.0431C7.65168 11.5785 8.25443 12.6481 9.12818 13.3815C10.0019 14.115 11.1653 14.4722 12.1342 14.4466C13.2521 14.4171 14.558 13.8687 15.4603 12.78C16.0514 12.0667 16.3074 11.2926 16.4416 10.1204ZM11.9823 14.9375C14.7066 14.9375 16.9471 12.7206 16.9471 10.0023C16.9471 7.28415 14.7066 5.06715 11.9823 5.06715C9.25808 5.06715 7.03613 7.2841 7.03613 10.0023C7.03613 12.7206 9.25808 14.9375 11.9823 14.9375Z" fill="#FFFF00"/>
<path d="M11.9823 14.9375C14.7066 14.9375 16.9471 12.7206 16.9471 10.0023C16.9471 7.28415 14.7066 5.06715 11.9823 5.06715C9.25808 5.06715 7.03613 7.2841 7.03613 10.0023C7.03613 12.7206 9.25808 14.9375 11.9823 14.9375M16.4416 10.1204C16.4486 8.71355 15.7286 7.4511 15.1487 6.89415C14.3283 6.10615 13.2406 5.59935 11.9703 5.576C10.5518 5.54995 9.21428 6.4747 8.85553 6.88095C8.15413 7.6752 7.58308 8.6838 7.56478 10.0431C7.65168 11.5785 8.25443 12.6481 9.12818 13.3815C10.0019 14.115 11.1653 14.4722 12.1342 14.4466C13.2521 14.4171 14.558 13.8687 15.4603 12.78C16.0514 12.0667 16.3074 11.2926 16.4416 10.1204V10.1204Z" stroke="black" stroke-width="0.573" stroke-linecap="round" stroke-linejoin="round"/>
<path fill-rule="evenodd" clip-rule="evenodd" d="M11.9955 14.9541C14.7222 14.9541 16.946 12.73 16.946 10.003C16.946 7.2761 14.7221 5.052 11.9955 5.052C9.26877 5.052 7.04492 7.276 7.04492 10.003C7.04492 12.73 9.26882 14.9541 11.9955 14.9541ZM7.15387 10.003C7.15387 7.33995 9.34067 5.1609 11.9955 5.1609C14.6503 5.1609 16.8371 7.34 16.8371 10.003C16.8371 12.6661 14.6503 14.8452 11.9955 14.8452C9.34067 14.8452 7.15387 12.666 7.15387 10.003V10.003Z" fill="#FFFF00" stroke="black" stroke-width="0.573" stroke-linecap="round" stroke-linejoin="round"/>
<path fill-rule="evenodd" clip-rule="evenodd" d="M11.9995 14.543C14.486 14.543 16.5341 12.5019 16.5341 10.0078C16.5341 7.51357 14.486 5.47262 11.9995 5.47262C9.51299 5.47262 7.46484 7.51357 7.46484 10.0078C7.46484 12.5019 9.51304 14.543 11.9995 14.543ZM7.57374 10.0078C7.57374 7.57357 9.57269 5.58162 11.9995 5.58162C14.4263 5.58162 16.4252 7.57357 16.4252 10.0078C16.4252 12.4421 14.4263 14.4341 11.9995 14.4341C9.57269 14.4341 7.57374 12.4421 7.57374 10.0078V10.0078Z" fill="#FFFF00" stroke="black" stroke-width="0.573" stroke-linecap="round" stroke-linejoin="round"/>
<path fill-rule="evenodd" clip-rule="evenodd" d="M12.1991 14.9746H11.7749L11.7754 5.02661H12.2011L12.1991 14.9746Z" fill="#FFFF00" stroke="black" stroke-width="0.573" stroke-linecap="round" stroke-linejoin="round"/>
<path fill-rule="evenodd" clip-rule="evenodd" d="M12.1569 15.0312H12.2649L12.2658 4.96875H12.1577L12.1569 15.0312H12.1569ZM11.7358 15.0312H11.8446L11.8448 4.96865H11.7359V15.0312H11.7358Z" fill="#FFFF00" stroke="black" stroke-width="0.573" stroke-linecap="round" stroke-linejoin="round"/>
<path fill-rule="evenodd" clip-rule="evenodd" d="M16.9499 9.81145V10.1792L16.6504 10.4582L14.9504 10.9082L12.5004 11.1582L9.55037 11.0082L7.45037 10.5082L7.02637 10.1942V9.82635L8.10037 10.3082L10.6504 10.7082H13.1004L14.9004 10.5082L16.1504 10.2082L16.9499 9.81145Z" fill="#FFFF00" stroke="black" stroke-width="0.573" stroke-linecap="round" stroke-linejoin="round"/>
<path fill-rule="evenodd" clip-rule="evenodd" d="M11.9977 10.7696C13.1668 10.7718 14.3012 10.6588 15.201 10.4836C16.1294 10.298 16.7828 10.0659 17.0062 9.80512L17.0059 9.67597C16.7365 10.0005 15.8573 10.2384 15.18 10.3744C14.2871 10.5481 13.1604 10.6602 11.9977 10.6581C10.7708 10.6558 9.62835 10.5396 8.7485 10.3679C8.0425 10.2278 7.10095 9.94952 6.9834 9.67502V9.80947C7.04795 9.99947 7.74905 10.2834 8.7326 10.4803C9.61905 10.6532 10.7636 10.7674 11.9977 10.7696ZM11.9982 11.1942C13.1673 11.1963 14.3017 11.0834 15.2014 10.9082C16.1299 10.7226 16.7833 10.4905 17.0067 10.2297L17.0064 10.1006C16.7371 10.425 15.8578 10.6629 15.1805 10.7989C14.2876 10.9727 13.1609 11.0848 11.9982 11.0826C10.7713 11.0804 9.6344 10.9641 8.75445 10.7925C8.07315 10.6633 7.09315 10.374 6.98385 10.0995V10.234C7.0484 10.422 7.7637 10.7161 8.7331 10.9049C9.61955 11.0778 10.7641 11.1919 11.9982 11.1942ZM11.9742 13.3601C13.8166 13.3693 15.4237 13.1025 16.1589 12.7259L16.4271 12.2619C15.7881 12.6063 14.0543 12.9644 11.9769 12.9109C10.2842 12.9005 8.47555 12.7245 7.5681 12.2404L7.88825 12.7758C8.633 13.162 10.3893 13.358 11.9742 13.36" fill="#FFFF00"/>
<path d="M11.9742 13.3601C13.8166 13.3693 15.4237 13.1025 16.1589 12.7259L16.4271 12.2619C15.7881 12.6063 14.0543 12.9644 11.9769 12.9109C10.2842 12.9005 8.47555 12.7245 7.5681 12.2404L7.88825 12.7758C8.633 13.162 10.3893 13.358 11.9742 13.36M11.9977 10.7696C13.1668 10.7718 14.3012 10.6588 15.201 10.4836C16.1294 10.298 16.7828 10.0659 17.0062 9.80512L17.0059 9.67597C16.7365 10.0005 15.8573 10.2384 15.18 10.3744C14.2871 10.5481 13.1604 10.6602 11.9977 10.6581C10.7708 10.6558 9.62835 10.5396 8.7485 10.3679C8.0425 10.2278 7.10095 9.94952 6.9834 9.67502V9.80947C7.04795 9.99947 7.74905 10.2834 8.7326 10.4803C9.61905 10.6532 10.7636 10.7674 11.9977 10.7696V10.7696ZM11.9982 11.1942C13.1673 11.1963 14.3017 11.0834 15.2014 10.9082C16.1299 10.7226 16.7833 10.4905 17.0067 10.2297L17.0065 10.1006C16.737 10.425 15.8578 10.6629 15.1805 10.7989C14.2876 10.9727 13.1609 11.0848 11.9982 11.0826C10.7713 11.0804 9.6344 10.9641 8.75445 10.7925C8.07315 10.6633 7.09315 10.374 6.98385 10.0995V10.234C7.0484 10.422 7.7637 10.7161 8.7331 10.9049C9.61955 11.0778 10.7641 11.1919 11.9982 11.1942V11.1942Z" stroke="black" stroke-width="0.573" stroke-linecap="round" stroke-linejoin="round"/>
<path fill-rule="evenodd" clip-rule="evenodd" d="M11.9987 12.9781C13.0496 12.9808 14.065 12.9216 14.8725 12.7759C15.6246 12.6359 16.3418 12.4259 16.4443 12.3129L16.5238 12.1724C16.2744 12.3352 15.6538 12.5165 14.8569 12.6677C14.0566 12.8181 13.0419 12.8679 11.9969 12.8652C10.8108 12.8692 9.88928 12.8066 9.09843 12.6687C8.26202 12.5122 7.68172 12.2886 7.53857 12.1824L7.61647 12.3309C7.89467 12.4728 8.33597 12.6439 9.07763 12.7774C9.89548 12.9268 10.8268 12.9716 11.9988 12.9781H11.9987ZM11.9983 13.4023C13.0039 13.4049 13.9969 13.3489 14.7709 13.2098C15.3813 13.0909 15.985 12.9054 16.2061 12.7403L16.3224 12.5555C16.1247 12.7753 15.3806 12.9835 14.7237 13.1001C13.9556 13.2326 13.0039 13.285 11.9983 13.2934C10.9429 13.2904 9.96753 13.2258 9.21068 13.088C8.48862 12.9506 8.02267 12.7879 7.82552 12.6609L7.92777 12.8152C8.19982 12.9584 8.63938 13.09 9.19293 13.1975C9.95538 13.3364 10.9367 13.3993 11.9983 13.4023H11.9983ZM14.4577 7.94606C13.5468 8.11606 12.6343 8.14081 11.9969 8.13331C8.92652 8.09731 7.93467 7.50281 7.81362 7.32281L7.58412 7.69691C8.36587 8.26351 10.0378 8.58126 12.0135 8.54876C13.0394 8.53196 13.9247 8.46386 14.6695 8.31961L14.4577 7.94596" fill="#FFFF00"/>
<path d="M14.4577 7.94606C13.5468 8.11606 12.6343 8.14081 11.9969 8.13331C8.92652 8.09731 7.93467 7.50281 7.81362 7.32281L7.58412 7.69691C8.36587 8.26351 10.0378 8.58126 12.0135 8.54876C13.0394 8.53196 13.9247 8.46386 14.6695 8.31961L14.4577 7.94596M11.9987 12.9781C13.0496 12.9808 14.065 12.9216 14.8725 12.7759C15.6246 12.6359 16.3418 12.4259 16.4443 12.3129L16.5238 12.1724C16.2744 12.3352 15.6538 12.5165 14.8569 12.6677C14.0566 12.8181 13.0419 12.8679 11.9969 12.8652C10.8108 12.8692 9.88928 12.8066 9.09843 12.6687C8.26202 12.5122 7.68172 12.2886 7.53857 12.1824L7.61647 12.3309C7.89467 12.4728 8.33597 12.6439 9.07763 12.7774C9.89548 12.9268 10.8268 12.9716 11.9988 12.9781H11.9987ZM11.9983 13.4023C13.0039 13.4049 13.9969 13.3489 14.7709 13.2098C15.3813 13.0909 15.985 12.9054 16.2061 12.7403L16.3224 12.5555C16.1247 12.7753 15.3806 12.9835 14.7237 13.1001C13.9556 13.2326 13.0039 13.285 11.9983 13.2934C10.9429 13.2904 9.96753 13.2258 9.21068 13.088C8.48862 12.9506 8.02267 12.7879 7.82552 12.6609L7.92777 12.8152C8.19982 12.9584 8.63938 13.09 9.19293 13.1975C9.95538 13.3364 10.9367 13.3993 11.9983 13.4023H11.9983Z" stroke="black" stroke-width="0.573" stroke-linecap="round" stroke-linejoin="round"/>
<path fill-rule="evenodd" clip-rule="evenodd" d="M11.9794 8.18543C12.8335 8.17268 13.6719 8.13743 14.4811 7.98648L14.4225 7.88303C13.6709 8.02178 12.8697 8.07488 11.9823 8.07053C10.8492 8.07943 9.70307 7.97358 8.70527 7.68723C8.39042 7.59958 7.86922 7.39723 7.81607 7.22993L7.75777 7.32603C7.77457 7.42493 8.08957 7.63008 8.67847 7.79553C9.82137 8.12283 10.8905 8.17803 11.9795 8.18553V8.18543H11.9794ZM12.0182 8.61523C12.9031 8.59873 13.8169 8.55778 14.7052 8.38183L14.6442 8.27413C13.8421 8.43338 13.0757 8.48648 12.0234 8.50263C10.8867 8.50063 9.68087 8.41953 8.58452 8.10078C8.23052 7.99768 7.61967 7.77478 7.59932 7.59828L7.54102 7.70158C7.55427 7.86188 8.08312 8.07098 8.55892 8.20938C9.66372 8.53058 10.8727 8.61318 12.0182 8.61523H12.0182Z" fill="#FFFF00" stroke="black" stroke-width="0.55" stroke-linecap="round" stroke-linejoin="round"/>
<path fill-rule="evenodd" clip-rule="evenodd" d="M16.3792 7.63954L16.0103 7.06704L14.9502 8.00859L12.2002 9.85859L9.10022 11.5586L7.49072 12.1091L7.83372 12.7451L7.95022 12.8086L8.95022 12.5586L12.2502 10.8586L14.1502 9.65859L15.7502 8.50859L16.4002 7.75859L16.3792 7.63954Z" fill="#FFFF00" stroke="black" stroke-width="0.573" stroke-linecap="round" stroke-linejoin="round"/>
<path fill-rule="evenodd" clip-rule="evenodd" d="M7.43247 12.0938C7.71477 12.2853 9.78942 11.3611 11.9602 10.0521C14.1253 8.73941 16.1941 7.25606 16.0073 6.97846L15.9459 6.88186L15.9177 6.85961C15.9237 6.86396 15.9549 6.90201 15.9147 7.00491C15.8224 7.30841 14.3549 8.47946 11.92 9.94966C9.54622 11.3652 7.56797 12.2182 7.37012 11.9744L7.43247 12.0939V12.0938ZM16.4545 7.64746C16.633 8.00006 14.7087 9.44966 12.3229 10.8611C9.88222 12.2444 8.12317 13.0586 7.80187 12.8158L7.73047 12.6858C7.72987 12.6787 7.73307 12.6947 7.74817 12.7063C7.80657 12.7573 7.90342 12.7539 7.94712 12.7547C8.50037 12.7464 10.0805 12.0192 12.2974 10.7483C13.2688 10.1826 16.401 8.17376 16.389 7.60881C16.3899 7.56031 16.393 7.55031 16.3748 7.52626L16.4545 7.64741V7.64751V7.64746Z" fill="#FFFF00" stroke="black" stroke-width="0.573" stroke-linecap="round" stroke-linejoin="round"/>
<path d="M9.03 9.45798C9.03 8.64443 9.36315 7.90863 9.90285 7.37088C10.4436 6.83197 11.1784 6.49193 11.9933 6.49193C12.8123 6.49193 13.5556 6.82457 14.0941 7.36137C14.6325 7.89813 14.9662 8.63898 14.9664 9.45538H14.9663V13.4148L9.0293 13.4219L9.0299 9.45798H9.03Z" fill="white" stroke="black" stroke-width="0.67"/>
<path d="M9.14121 9.45264V9.45039C9.14121 8.67254 9.46326 7.96419 9.97996 7.44994C10.4977 6.93469 11.2107 6.61434 11.9907 6.61434C12.7747 6.61434 13.4863 6.93234 14.0018 7.44564C14.5172 7.95889 14.8366 8.66729 14.8367 9.44784H14.8366V13.2891L9.14461 13.29L9.14111 9.45269L9.14121 9.45264ZM13.6922 12.14L13.6924 9.69549L13.6904 9.43689C13.6904 9.36884 13.6863 9.29129 13.6784 9.22524C13.6321 8.83874 13.4544 8.50189 13.1911 8.23984C12.8829 7.93304 12.4576 7.74274 11.9888 7.74274C11.5224 7.74274 11.1068 7.93964 10.7973 8.24774C10.4798 8.56374 10.2958 8.99704 10.2958 9.44509L10.2952 12.1462L13.6922 12.1401L13.6923 12.14L13.6922 12.14Z" fill="#FF0000" stroke="black" stroke-width="0.507"/>
<path d="M9.50928 12.2865C9.51603 12.5626 9.71188 12.6279 9.71328 12.6289C9.71473 12.6298 9.92488 12.5585 9.92418 12.284L9.50928 12.2865Z" fill="#FFFF00"/>
<path d="M9.34027 12.623L9.30617 12.3057L9.51317 12.3053C9.51517 12.5678 9.71192 12.6114 9.71667 12.6104C9.72117 12.6107 9.91612 12.5524 9.92132 12.3053H10.1289L10.0914 12.625L9.34027 12.6231V12.623ZM9.29227 12.3045H10.1396C10.1574 12.3045 10.1721 12.2868 10.1721 12.2653C10.1721 12.2438 10.1574 12.2262 10.1396 12.2262H9.29227C9.27442 12.2262 9.25977 12.2437 9.25977 12.2653C9.25977 12.2868 9.27442 12.3045 9.29227 12.3045Z" fill="#FFFF00" stroke="black" stroke-width="0.5"/>
<path d="M9.60044 12.3065C9.60134 12.4721 9.71354 12.519 9.71414 12.5189C9.71414 12.5189 9.83124 12.4706 9.83214 12.3065H9.60044ZM9.31045 12.7555H10.1227C10.1398 12.7555 10.1538 12.7396 10.1538 12.7202C10.1538 12.7009 10.1398 12.685 10.1227 12.685H9.31045C9.29335 12.685 9.2793 12.7008 9.2793 12.7202C9.2793 12.7396 9.2933 12.7555 9.31045 12.7555ZM9.32745 12.6845H10.1043C10.1207 12.6845 10.1341 12.6686 10.1341 12.6493C10.1341 12.6299 10.1207 12.6141 10.1043 12.6141H9.32745C9.3111 12.6141 9.2977 12.6299 9.2977 12.6493C9.2977 12.6686 9.3111 12.6845 9.32745 12.6845ZM9.57845 13.214L9.63979 13.2139V13.1703H9.68454V13.2148L9.74739 13.2146V13.1703H9.79224V13.2148H9.85514L9.85504 13.1143C9.85504 13.0984 9.84234 13.0882 9.82759 13.0882H9.6071C9.59225 13.0882 9.5786 13.1001 9.5785 13.1145L9.57834 13.2139H9.5784L9.57845 13.214ZM9.80944 13.0795L9.82329 12.7569L9.60815 12.7577L9.6224 13.0803L9.80944 13.0795Z" fill="#FFFF00" stroke="black" stroke-width="0.5"/>
<path d="M9.54687 12.9297L9.55342 12.7558L9.34717 12.7557L9.35297 12.9297H9.54692H9.54687Z" fill="#FFFF00" stroke="black" stroke-width="0.5"/>
<path d="M9.31499 13.0558L9.37499 13.0556V13.012H9.41884V13.0566L9.48034 13.0564V13.012H9.52429V13.0566L9.5858 13.0565L9.5857 12.9559C9.5857 12.9402 9.57325 12.93 9.5589 12.93H9.34304C9.32854 12.93 9.31509 12.9418 9.31504 12.9563L9.31494 13.0557L9.31499 13.0558Z" fill="#FFFF00" stroke="black" stroke-width="0.5"/>
<path d="M9.69485 12.9773C9.69355 13.0087 9.7387 13.009 9.73815 12.9773V12.9005H9.69485V12.9773Z" fill="black"/>
<path d="M9.42822 12.8657C9.42807 12.896 9.47007 12.8966 9.46952 12.8657V12.8064H9.42822V12.8657Z" fill="black"/>
<path d="M11.6319 9.88841V9.88816C11.6319 9.77756 11.6744 9.6768 11.7425 9.60365C11.8107 9.53035 11.9047 9.4848 12.0076 9.4848C12.1109 9.4848 12.2048 9.53005 12.2727 9.60305C12.3406 9.676 12.3828 9.77666 12.3828 9.88771V10.4261L11.6332 10.4268L11.6318 9.88846" fill="#003399"/>
<path d="M11.8038 10.1473C11.8448 10.1473 11.8781 10.1806 11.8781 10.2216C11.8781 10.2626 11.8448 10.2959 11.8038 10.2959C11.7628 10.2959 11.7295 10.2626 11.7295 10.2216C11.7295 10.1806 11.7628 10.1473 11.8038 10.1473Z" fill="white"/>
<path d="M12.2198 10.1473C12.2608 10.1473 12.2941 10.1806 12.2941 10.2216C12.2941 10.2626 12.2608 10.2959 12.2198 10.2959C12.1788 10.2959 12.1455 10.2626 12.1455 10.2216C12.1455 10.1806 12.1788 10.1473 12.2198 10.1473Z" fill="white"/>
<path d="M12.0113 9.94808C12.0524 9.94808 12.0856 9.98134 12.0856 10.0224C12.0856 10.0634 12.0524 10.0967 12.0113 10.0967C11.9703 10.0967 11.937 10.0634 11.937 10.0224C11.937 9.98134 11.9703 9.94808 12.0113 9.94808Z" fill="white"/>
<path d="M11.8038 9.73812C11.8448 9.73812 11.8781 9.77139 11.8781 9.81242C11.8781 9.85345 11.8448 9.88672 11.8038 9.88672C11.7628 9.88672 11.7295 9.85345 11.7295 9.81242C11.7295 9.77139 11.7628 9.73812 11.8038 9.73812Z" fill="white"/>
<path d="M12.2193 9.7391C12.2604 9.7391 12.2936 9.77236 12.2936 9.8134C12.2936 9.85443 12.2604 9.8877 12.2193 9.8877C12.1783 9.8877 12.145 9.85443 12.145 9.8134C12.145 9.77236 12.1783 9.7391 12.2193 9.7391Z" fill="white"/>
</svg>
