<svg width="30" height="20" viewBox="0 0 30 20" fill="none" xmlns="http://www.w3.org/2000/svg">
<path d="M0 0H30V20H0V0Z" fill="#E30A17"/>
<path d="M10.625 15C13.3864 15 15.625 12.7614 15.625 10C15.625 7.23858 13.3864 5 10.625 5C7.86358 5 5.625 7.23858 5.625 10C5.625 12.7614 7.86358 15 10.625 15Z" fill="white"/>
<path d="M11.875 14C14.0841 14 15.875 12.2091 15.875 10C15.875 7.79086 14.0841 6 11.875 6C9.66586 6 7.875 7.79086 7.875 10C7.875 12.2091 9.66586 14 11.875 14Z" fill="#E30A17"/>
<path d="M14.5835 9.99972L19.106 11.4692L16.3109 7.62207V12.3774L19.106 8.53025L14.5835 9.99972Z" fill="white"/>
</svg>
