<svg width="30" height="16" viewBox="0 0 30 16" fill="none" xmlns="http://www.w3.org/2000/svg">
<path d="M0 0H30V16H0V0Z" fill="#B22234"/>
<path d="M0 1.83105H30H0ZM30 4.33708H0H30ZM0 6.74672H30H0ZM30 9.25274H0H30ZM0 11.6624H30H0ZM30 14.1684H0H30Z" fill="black"/>
<path d="M30 14.1684H0M0 1.83105H30H0ZM30 4.33708H0H30ZM0 6.74672H30H0ZM30 9.25274H0H30ZM0 11.6624H30H0Z" stroke="white" stroke-width="1.2768"/>
<path d="M0 0H12V8.57831H0V0Z" fill="#3C3B6E"/>
<path d="M1.04748 0.385742L1.33319 1.25321L0.571289 0.674899H1.52367L0.761765 1.25321L1.04748 0.385742Z" fill="white"/>
<path d="M1.04748 2.12109L1.33319 2.98856L0.571289 2.41025H1.52367L0.761765 2.98856L1.04748 2.12109Z" fill="white"/>
<path d="M1.04748 3.85547L1.33319 4.72294L0.571289 4.14463H1.52367L0.761765 4.72294L1.04748 3.85547Z" fill="white"/>
<path d="M1.04748 5.49414L1.33319 6.36161L0.571289 5.87968H1.52367L0.761765 6.458L1.04748 5.49414Z" fill="white"/>
<path d="M1.04748 7.22949L1.33319 8.09696L0.571289 7.61503H1.52367L0.761765 8.19335L1.04748 7.22949Z" fill="white"/>
<path d="M1.99963 1.25293L2.28534 2.1204L1.52344 1.54209H2.47582L1.71391 2.1204L1.99963 1.25293Z" fill="white"/>
<path d="M1.99963 2.98828L2.28534 3.85575L1.52344 3.27744H2.47582L1.71391 3.85575L1.99963 2.98828Z" fill="white"/>
<path d="M1.99963 4.72266L2.28534 5.59013L1.52344 5.01181H2.47582L1.71391 5.59013L1.99963 4.72266Z" fill="white"/>
<path d="M1.99963 6.36133L2.28534 7.2288L1.52344 6.74687H2.47582L1.71391 7.32518L1.99963 6.36133Z" fill="white"/>
<path d="M3.04748 0.385742L3.33319 1.25321L2.57129 0.674899H3.52367L2.76177 1.25321L3.04748 0.385742Z" fill="white"/>
<path d="M3.04748 2.12109L3.33319 2.98856L2.57129 2.41025H3.52367L2.76177 2.98856L3.04748 2.12109Z" fill="white"/>
<path d="M3.04748 3.85547L3.33319 4.72294L2.57129 4.14463H3.52367L2.76177 4.72294L3.04748 3.85547Z" fill="white"/>
<path d="M3.04748 5.49414L3.33319 6.36161L2.57129 5.87968H3.52367L2.76177 6.458L3.04748 5.49414Z" fill="white"/>
<path d="M3.04748 7.22949L3.33319 8.09696L2.57129 7.61503H3.52367L2.76177 8.19335L3.04748 7.22949Z" fill="white"/>
<path d="M3.99963 1.25293L4.28534 2.1204L3.52344 1.54209H4.47582L3.71391 2.1204L3.99963 1.25293Z" fill="white"/>
<path d="M3.99963 2.98828L4.28534 3.85575L3.52344 3.27744H4.47582L3.71391 3.85575L3.99963 2.98828Z" fill="white"/>
<path d="M3.99963 4.72266L4.28534 5.59013L3.52344 5.01181H4.47582L3.71391 5.59013L3.99963 4.72266Z" fill="white"/>
<path d="M3.99963 6.36133L4.28534 7.2288L3.52344 6.74687H4.47582L3.71391 7.32518L3.99963 6.36133Z" fill="white"/>
<path d="M5.04748 0.385742L5.33319 1.25321L4.57129 0.674899H5.52367L4.76177 1.25321L5.04748 0.385742Z" fill="white"/>
<path d="M5.04748 2.12109L5.33319 2.98856L4.57129 2.41025H5.52367L4.76177 2.98856L5.04748 2.12109Z" fill="white"/>
<path d="M5.04748 3.85547L5.33319 4.72294L4.57129 4.14463H5.52367L4.76177 4.72294L5.04748 3.85547Z" fill="white"/>
<path d="M5.04748 5.49414L5.33319 6.36161L4.57129 5.87968H5.52367L4.76177 6.458L5.04748 5.49414Z" fill="white"/>
<path d="M5.04748 7.22949L5.33319 8.09696L4.57129 7.61503H5.52367L4.76177 8.19335L5.04748 7.22949Z" fill="white"/>
<path d="M5.99963 1.25293L6.28534 2.1204L5.52344 1.54209H6.47582L5.71391 2.1204L5.99963 1.25293Z" fill="white"/>
<path d="M5.99963 2.98828L6.28534 3.85575L5.52344 3.27744H6.47582L5.71391 3.85575L5.99963 2.98828Z" fill="white"/>
<path d="M5.99963 4.72266L6.28534 5.59013L5.52344 5.01181H6.47582L5.71391 5.59013L5.99963 4.72266Z" fill="white"/>
<path d="M5.99963 6.36133L6.28534 7.2288L5.52344 6.74687H6.47582L5.71391 7.32518L5.99963 6.36133Z" fill="white"/>
<path d="M7.04748 0.385742L7.33319 1.25321L6.57129 0.674899H7.52367L6.76177 1.25321L7.04748 0.385742Z" fill="white"/>
<path d="M7.04748 2.12109L7.33319 2.98856L6.57129 2.41025H7.52367L6.76177 2.98856L7.04748 2.12109Z" fill="white"/>
<path d="M7.04748 3.85547L7.33319 4.72294L6.57129 4.14463H7.52367L6.76177 4.72294L7.04748 3.85547Z" fill="white"/>
<path d="M7.04748 5.49414L7.33319 6.36161L6.57129 5.87968H7.52367L6.76177 6.458L7.04748 5.49414Z" fill="white"/>
<path d="M7.04748 7.22949L7.33319 8.09696L6.57129 7.61503H7.52367L6.76177 8.19335L7.04748 7.22949Z" fill="white"/>
<path d="M7.99963 1.25293L8.28534 2.1204L7.52344 1.54209H8.47582L7.71391 2.1204L7.99963 1.25293Z" fill="white"/>
<path d="M7.99963 2.98828L8.28534 3.85575L7.52344 3.27744H8.47582L7.71391 3.85575L7.99963 2.98828Z" fill="white"/>
<path d="M7.99963 4.72266L8.28534 5.59013L7.52344 5.01181H8.47582L7.71391 5.59013L7.99963 4.72266Z" fill="white"/>
<path d="M7.99963 6.36133L8.28534 7.2288L7.52344 6.74687H8.47582L7.71391 7.32518L7.99963 6.36133Z" fill="white"/>
<path d="M9.04748 0.385742L9.33319 1.25321L8.57129 0.674899H9.52367L8.76176 1.25321L9.04748 0.385742Z" fill="white"/>
<path d="M9.04748 2.12109L9.33319 2.98856L8.57129 2.41025H9.52367L8.76176 2.98856L9.04748 2.12109Z" fill="white"/>
<path d="M9.04748 3.85547L9.33319 4.72294L8.57129 4.14463H9.52367L8.76176 4.72294L9.04748 3.85547Z" fill="white"/>
<path d="M9.04748 5.49414L9.33319 6.36161L8.57129 5.87968H9.52367L8.76176 6.458L9.04748 5.49414Z" fill="white"/>
<path d="M9.04748 7.22949L9.33319 8.09696L8.57129 7.61503H9.52367L8.76176 8.19335L9.04748 7.22949Z" fill="white"/>
<path d="M9.99963 1.25293L10.2853 2.1204L9.52344 1.54209H10.4758L9.71391 2.1204L9.99963 1.25293Z" fill="white"/>
<path d="M9.99963 2.98828L10.2853 3.85575L9.52344 3.27744H10.4758L9.71391 3.85575L9.99963 2.98828Z" fill="white"/>
<path d="M9.99963 4.72266L10.2853 5.59013L9.52344 5.01181H10.4758L9.71391 5.59013L9.99963 4.72266Z" fill="white"/>
<path d="M9.99963 6.36133L10.2853 7.2288L9.52344 6.74687H10.4758L9.71391 7.32518L9.99963 6.36133Z" fill="white"/>
<path d="M11.0475 0.385742L11.3332 1.25321L10.5713 0.674899H11.5237L10.7618 1.25321L11.0475 0.385742Z" fill="white"/>
<path d="M11.0475 2.12109L11.3332 2.98856L10.5713 2.41025H11.5237L10.7618 2.98856L11.0475 2.12109Z" fill="white"/>
<path d="M11.0475 3.85547L11.3332 4.72294L10.5713 4.14463H11.5237L10.7618 4.72294L11.0475 3.85547Z" fill="white"/>
<path d="M11.0475 5.49414L11.3332 6.36161L10.5713 5.7833H11.5237L10.7618 6.36161L11.0475 5.49414Z" fill="white"/>
<path d="M11.0475 7.22949L11.3332 8.09696L10.5713 7.51865H11.5237L10.7618 8.09696L11.0475 7.22949Z" fill="white"/>
</svg>
